<svg width="28" height="28" viewBox="0 0 28 28" fill="none" xmlns="http://www.w3.org/2000/svg">
<path d="M16.2703 2.443C15.637 1.90323 14.8321 1.60675 14 1.60675C13.1679 1.60675 12.363 1.90323 11.7296 2.443L10.157 3.7835C9.97019 3.94284 9.73788 4.03919 9.49315 4.05883L7.43398 4.22216C6.60451 4.28832 5.82575 4.64783 5.23736 5.23621C4.64898 5.8246 4.28947 6.60336 4.22331 7.43283L4.05998 9.49316C4.04001 9.73804 3.94325 9.97035 3.78348 10.157L2.44415 11.7297C1.90469 12.3629 1.6084 13.1676 1.6084 13.9994C1.6084 14.8313 1.90469 15.6359 2.44415 16.2692L3.78348 17.843C3.94282 18.0298 4.03917 18.2621 4.05881 18.5068L4.22331 20.566C4.28947 21.3955 4.64898 22.1742 5.23736 22.7626C5.82575 23.351 6.60451 23.7105 7.43398 23.7767L9.49315 23.94C9.73843 23.9597 9.97119 24.0565 10.1581 24.2165L11.7296 25.5558C12.363 26.0956 13.1679 26.3921 14 26.3921C14.8321 26.3921 15.637 26.0956 16.2703 25.5558L17.843 24.2165C18.0301 24.0569 18.2628 23.9606 18.508 23.9412L20.5671 23.7767C21.3966 23.7105 22.1754 23.351 22.7638 22.7626C23.3521 22.1742 23.7117 21.3955 23.7778 20.566L23.9411 18.5068C23.9605 18.2617 24.0569 18.0289 24.2165 17.8418L25.557 16.2703C26.0968 15.637 26.3932 14.8321 26.3932 14C26.3932 13.1679 26.0968 12.363 25.557 11.7297L24.2165 10.157C24.0569 9.96989 23.9605 9.73714 23.9411 9.492L23.7778 7.43283C23.7117 6.60336 23.3521 5.8246 22.7638 5.23621C22.1754 4.64783 21.3966 4.28832 20.5671 4.22216L18.5068 4.05883C18.2621 4.03919 18.0298 3.94284 17.843 3.7835L16.2703 2.443ZM17.2993 9.04983L18.9501 10.6995L10.7006 18.9502L9.04981 17.2993L17.2993 9.04983ZM11.9373 11.9373C11.7759 12.1045 11.5828 12.2378 11.3693 12.3295C11.1558 12.4212 10.9261 12.4695 10.6938 12.4715C10.4614 12.4735 10.231 12.4293 10.0159 12.3413C9.80083 12.2533 9.60543 12.1233 9.44112 11.959C9.27681 11.7947 9.14687 11.5993 9.05888 11.3842C8.97088 11.1692 8.92661 10.9387 8.92863 10.7064C8.93064 10.474 8.97892 10.2444 9.07064 10.0309C9.16235 9.81737 9.29567 9.62426 9.46281 9.46283C9.79287 9.14405 10.2349 8.96766 10.6938 8.97165C11.1526 8.97564 11.5915 9.15968 11.916 9.48415C12.2405 9.80861 12.4245 10.2475 12.4285 10.7064C12.4325 11.1652 12.2561 11.6073 11.9373 11.9373ZM16.0626 18.5372C15.8927 18.3765 15.7566 18.1833 15.6626 17.9692C15.5685 17.755 15.5184 17.5241 15.5151 17.2903C15.5118 17.0564 15.5554 16.8242 15.6433 16.6075C15.7313 16.3907 15.8618 16.1938 16.0272 16.0284C16.1925 15.8629 16.3894 15.7323 16.6061 15.6443C16.8228 15.5562 17.0549 15.5125 17.2888 15.5157C17.5227 15.5189 17.7536 15.5689 17.9678 15.6629C18.182 15.7568 18.3752 15.8928 18.536 16.0627C18.8451 16.3944 19.0134 16.8332 19.0054 17.2866C18.9974 17.7399 18.8137 18.1725 18.4931 18.4931C18.1725 18.8137 17.7399 18.9974 17.2865 19.0054C16.8332 19.0134 16.3944 18.8451 16.0626 18.536" fill="white"/>
</svg>
