<svg width="28" height="28" viewBox="0 0 28 28" fill="none" xmlns="http://www.w3.org/2000/svg">
<path d="M12.2617 4.27581C12.4805 4.03139 12.7485 3.83587 13.048 3.70201C13.3475 3.56815 13.6719 3.49896 14 3.49896C14.3281 3.49896 14.6525 3.56815 14.952 3.70201C15.2516 3.83587 15.5195 4.03139 15.7384 4.27581L16.555 5.18815C16.7884 5.44889 17.0775 5.6538 17.4008 5.78769C17.7241 5.92158 18.0734 5.98104 18.4229 5.96165L19.6479 5.89398C19.9755 5.87592 20.3033 5.92717 20.6098 6.04439C20.9163 6.16161 21.1946 6.34216 21.4266 6.57425C21.6586 6.80634 21.839 7.08476 21.9561 7.39131C22.0731 7.69787 22.1242 8.02567 22.106 8.35331L22.0383 9.57714C22.0191 9.92637 22.0787 10.2754 22.2126 10.5985C22.3465 10.9217 22.5513 11.2105 22.8119 11.4438L23.7242 12.2605C23.9688 12.4793 24.1645 12.7473 24.2985 13.047C24.4324 13.3466 24.5017 13.6712 24.5017 13.9994C24.5017 14.3276 24.4324 14.6522 24.2985 14.9518C24.1645 15.2514 23.9688 15.5195 23.7242 15.7383L22.8119 16.555C22.5511 16.7884 22.3462 17.0774 22.2123 17.4008C22.0784 17.7241 22.019 18.0734 22.0383 18.4228L22.106 19.6478C22.1241 19.9755 22.0728 20.3032 21.9556 20.6097C21.8384 20.9162 21.6578 21.1946 21.4257 21.4265C21.1937 21.6585 20.9152 21.839 20.6087 21.956C20.3021 22.0731 19.9743 22.1242 19.6467 22.106L18.4229 22.0383C18.0736 22.0191 17.7246 22.0786 17.4014 22.2125C17.0783 22.3464 16.7895 22.5512 16.5562 22.8118L15.7395 23.7241C15.5207 23.9688 15.2527 24.1644 14.953 24.2984C14.6534 24.4324 14.3288 24.5016 14.0006 24.5016C13.6724 24.5016 13.3478 24.4324 13.0482 24.2984C12.7485 24.1644 12.4805 23.9688 12.2617 23.7241L11.445 22.8118C11.2116 22.5511 10.9225 22.3462 10.5992 22.2123C10.2759 22.0784 9.9266 22.0189 9.57719 22.0383L8.35219 22.106C8.02453 22.124 7.69676 22.0728 7.39026 21.9556C7.08376 21.8383 6.80543 21.6578 6.57345 21.4257C6.34147 21.1936 6.16105 20.9152 6.04397 20.6086C5.9269 20.3021 5.8758 19.9743 5.89402 19.6466L5.96169 18.4228C5.9809 18.0736 5.92136 17.7245 5.78747 17.4014C5.65358 17.0783 5.44877 16.7894 5.18819 16.5561L4.27585 15.7395C4.03124 15.5206 3.83555 15.2526 3.70158 14.953C3.5676 14.6533 3.49835 14.3288 3.49835 14.0006C3.49835 13.6723 3.5676 13.3478 3.70158 13.0482C3.83555 12.7485 4.03124 12.4805 4.27585 12.2616L5.18819 11.445C5.44893 11.2116 5.65384 10.9225 5.78773 10.5992C5.92162 10.2759 5.98108 9.92656 5.96169 9.57714L5.89402 8.35214C5.87613 8.02459 5.92751 7.69694 6.0448 7.39058C6.1621 7.08422 6.34267 6.80604 6.57475 6.57418C6.80682 6.34233 7.08518 6.16202 7.39165 6.04501C7.69812 5.92801 8.02581 5.87694 8.35335 5.89515L9.57719 5.96281C9.92641 5.98202 10.2755 5.92249 10.5986 5.7886C10.9217 5.65471 11.2106 5.4499 11.4439 5.18931L12.2617 4.27581Z" stroke="white" stroke-width="1.5"/>
<path d="M11.0834 11.0833H11.095V11.095H11.0834V11.0833ZM16.9167 16.9166H16.9284V16.9283H16.9167V16.9166Z" stroke="white" stroke-width="2.25" stroke-linejoin="round"/>
<path d="M17.5 10.5L10.5 17.5" stroke="white" stroke-width="1.5" stroke-linecap="round" stroke-linejoin="round"/>
</svg>
