<svg width="24" height="24" viewBox="0 0 24 24" fill="none" xmlns="http://www.w3.org/2000/svg">
<path d="M20 18V10C20 8.114 20 7.171 19.414 6.586C18.828 6 17.886 6 16 6H4V18C4 19.885 4 20.828 4.586 21.414C5.172 22 6.114 22 8 22H16C17.886 22 18.828 22 19.414 21.414C20 20.828 20 19.885 20 18Z" stroke="#D9D9D9" stroke-width="1.5" stroke-linecap="round" stroke-linejoin="round"/>
<path d="M4 5.99983L7.6925 4.45283L11.385 2.90583C13.034 2.21483 13.858 1.86883 14.515 2.04583C14.941 2.1603 15.3172 2.41238 15.585 2.76283C16 3.30483 16 4.20283 16 5.99983" stroke="#D9D9D9" stroke-width="1.5" stroke-linecap="round" stroke-linejoin="round"/>
<path d="M12 10C12.7956 10 13.5587 10.3161 14.1213 10.8787C14.6839 11.4413 15 12.2044 15 13M12 10C11.2044 10 10.4413 10.3161 9.87868 10.8787C9.31607 11.4413 9 12.2044 9 13M12 10V9M15 13H9M15 13H16M9 13H8M8 17H16" stroke="#D9D9D9" stroke-width="1.5" stroke-linecap="round" stroke-linejoin="round"/>
</svg>
