<svg width="19" height="19" viewBox="0 0 19 19" fill="none" xmlns="http://www.w3.org/2000/svg">
<path d="M14.4479 8.3125H15.5483C17.0145 8.3125 17.4499 8.52229 17.4143 9.5665C17.3565 11.2947 16.5767 13.3032 13.4583 13.8542" stroke="white" stroke-width="1.5" stroke-linecap="round" stroke-linejoin="round"/>
<path d="M8.95293 1.97917C8.51989 2.24755 7.91664 3.16667 7.91664 4.35417M5.96914 3.16667C5.96914 3.16667 5.54164 3.56251 5.54164 4.35417M11.0841 3.16667C10.868 3.30126 10.6875 3.95834 10.6875 4.35417M4.70722 16.3202C2.03614 14.2658 1.64268 11.3525 1.5841 8.31251C1.55956 6.99913 1.94035 6.72917 3.68835 6.72917H12.1449C13.8929 6.72917 14.2745 6.99913 14.2492 8.31251C14.1906 11.3525 13.7979 14.2658 11.1261 16.3202C10.3661 16.9045 9.72481 17.0208 8.64418 17.0208H7.1891C6.10926 17.0208 5.46801 16.9053 4.70722 16.3202Z" stroke="white" stroke-linecap="round" stroke-linejoin="round"/>
</svg>
