<svg width="19" height="19" viewBox="0 0 19 19" fill="none" xmlns="http://www.w3.org/2000/svg">
<path d="M2.8009 13.4583H8.7479M14.6957 13.4583H16.678M9.92353 3.95833C10.4484 3.95833 10.9518 4.16685 11.323 4.53802C11.6942 4.90918 11.9027 5.41259 11.9027 5.9375C11.9027 6.46241 11.6942 6.96582 11.323 7.33698C10.9518 7.70815 10.4484 7.91667 9.92353 7.91667C9.39862 7.91667 8.89521 7.70815 8.52405 7.33698C8.15288 6.96582 7.94436 6.46241 7.94436 5.9375C7.94436 5.41259 8.15288 4.90918 8.52405 4.53802C8.89521 4.16685 9.39862 3.95833 9.92353 3.95833ZM9.92353 3.95833C10.0557 3.5625 10.636 2.69167 11.9027 2.375" stroke="black" stroke-linecap="round" stroke-linejoin="round"/>
<path d="M7.93246 6.34521C3.22284 8.12567 1.32363 8.94742 1.61179 9.53642C3.1785 10.2766 6.057 10.0866 9.002 9.97579C9.81267 9.94571 10.6123 10.3479 10.7959 11.1451C10.9258 11.708 10.9606 12.1996 11.2163 12.5115C11.3628 12.6904 11.6121 12.7506 11.8354 12.6928C12.437 12.5345 12.6864 11.8623 12.9833 10.682C13.0411 10.4524 13.1234 10.2046 13.3467 10.1278C14.3442 9.78104 17.415 10.5442 17.415 9.13821C17.3652 7.67362 16.8324 6.76083 15.12 5.40312C14.571 4.96487 13.876 4.75151 13.1757 4.80621C12.4426 4.86479 12.1014 4.96058 11.8837 5.14821" stroke="black" stroke-linecap="round" stroke-linejoin="round"/>
<path d="M1.59363 9.49446L2.3655 12.9026C2.76134 14.687 2.95925 15.5792 3.61 16.1025C4.26154 16.625 5.17513 16.625 7.00229 16.625H13.7932C15.1565 16.625 15.8381 16.625 16.2909 16.2149C16.7437 15.8048 16.8103 15.1264 16.944 13.7687L17.4111 9.21025" stroke="black" stroke-linecap="round" stroke-linejoin="round"/>
</svg>
