<svg width="20" height="20" viewBox="0 0 20 20" fill="none" xmlns="http://www.w3.org/2000/svg">
<path d="M17.5626 6.04371L10.6438 2.04371C10.2438 1.81871 9.7563 1.81871 9.3563 2.04996L2.4438 6.04371C2.34208 6.10281 2.2602 6.1908 2.20857 6.29652C2.15694 6.40223 2.13788 6.52089 2.1538 6.63746H2.1438V8.22496C2.1438 8.35933 2.1888 8.49371 2.2788 8.60121C1.70317 8.94621 1.28317 9.56621 1.2688 10.4625C1.28192 11.285 1.63817 11.875 2.1438 12.2331V13.5062C2.1438 13.7062 2.2438 13.9062 2.4438 14.0187L9.36255 18.0187C9.7563 18.25 10.2501 18.25 10.6438 18.0187L17.5626 14.0187C17.7626 13.9062 17.8625 13.7062 17.8625 13.5062V12.2356C18.3688 11.8781 18.7275 11.2868 18.7438 10.4625C18.7238 9.56871 18.3019 8.94871 17.7251 8.60371C17.8141 8.49762 17.8628 8.36347 17.8625 8.22496V6.63746H17.8532C17.869 6.52083 17.8499 6.40212 17.7981 6.2964C17.7464 6.19068 17.6644 6.10273 17.5626 6.04371ZM2.80067 6.55933L9.66942 2.59058C9.87505 2.47183 10.1257 2.47058 10.3344 2.58683L17.2057 6.55933L10.3307 10.5343L10.3275 10.5362C10.1288 10.6525 9.87755 10.6525 9.6788 10.5362L2.80067 6.55933ZM2.5813 8.81683L9.36255 12.7375C9.7563 12.9687 10.2501 12.9687 10.6438 12.7375L17.4188 8.82058L17.5563 8.89996C17.9501 9.13121 17.9501 9.69996 17.5563 9.93121L10.6376 13.9312C10.2438 14.1625 9.75005 14.1625 9.3563 13.9312L2.43755 9.93121C2.34757 9.87853 2.27294 9.80322 2.22108 9.71276C2.16922 9.6223 2.14194 9.51985 2.14194 9.41558C2.14194 9.31132 2.16922 9.20886 2.22108 9.11841C2.27294 9.02795 2.34757 8.95264 2.43755 8.89996L2.5813 8.81683ZM2.70692 12.5181C3.04034 12.6302 3.39406 12.6688 3.7438 12.6312C4.07505 12.5937 4.38755 12.7687 4.5313 13.0687C5.00005 14.0625 6.1438 14.4375 7.12505 14.1875C7.45005 14.1062 7.78755 14.2312 7.96255 14.5062C8.12274 14.8794 8.38229 15.2015 8.71291 15.4373C9.04353 15.6731 9.43254 15.8137 9.83755 15.8437H9.8438C9.8938 15.85 9.9438 15.85 10 15.85H10.0126C10.0626 15.85 10.1126 15.85 10.1688 15.8437H10.1751C10.5801 15.8137 10.9691 15.6731 11.2997 15.4373C11.6303 15.2015 11.8899 14.8794 12.05 14.5062C12.225 14.2312 12.5626 14.1062 12.8876 14.1875C13.8626 14.4375 15.0125 14.0625 15.4813 13.0687C15.6251 12.7687 15.9376 12.5937 16.2688 12.6312C16.6038 12.667 16.9426 12.6329 17.2638 12.5312L16.6732 12.8731C16.5592 13.3184 16.3567 13.7362 16.0779 14.1016C15.799 14.467 15.4495 14.7725 15.05 15C14.1879 15.4975 13.1731 15.6612 12.1982 15.46L10.6376 16.3625C10.2438 16.5937 9.75005 16.5937 9.3563 16.3625L7.79692 15.4612C6.82349 15.6608 5.81066 15.4967 4.95005 15C4.55119 14.7729 4.20204 14.468 3.92331 14.1034C3.64459 13.7388 3.44199 13.3219 3.32755 12.8775L2.70692 12.5181Z" fill="black"/>
</svg>
