<svg width="20" height="19" viewBox="0 0 20 19" fill="none" xmlns="http://www.w3.org/2000/svg">
<path fill-rule="evenodd" clip-rule="evenodd" d="M11.2883 3.11599C11.3357 3.01309 11.4116 2.92591 11.507 2.86475C11.6024 2.80358 11.7133 2.771 11.8266 2.77083H14.2341C14.3121 2.77083 14.3893 2.75547 14.4613 2.72563C14.5333 2.69579 14.5988 2.65206 14.6539 2.59692C14.7091 2.54179 14.7528 2.47633 14.7826 2.4043C14.8125 2.33226 14.8278 2.25505 14.8278 2.17708C14.8278 2.09911 14.8125 2.0219 14.7826 1.94986C14.7528 1.87782 14.7091 1.81237 14.6539 1.75723C14.5988 1.7021 14.5333 1.65836 14.4613 1.62852C14.3893 1.59869 14.3121 1.58333 14.2341 1.58333H11.8274C11.4872 1.58331 11.154 1.68074 10.8674 1.86411C10.5808 2.04748 10.3526 2.3091 10.21 2.61804L9.49991 4.15624H4.83779C4.75497 4.15629 4.67308 4.17367 4.59738 4.20725C4.52168 4.24083 4.45383 4.28987 4.39822 4.35123C4.3426 4.41259 4.30043 4.48491 4.27442 4.56354C4.24841 4.64216 4.23914 4.72536 4.2472 4.80779L5.32941 15.8096C5.37265 16.2497 5.57807 16.658 5.90569 16.955C6.23331 17.2521 6.65972 17.4166 7.10195 17.4167H12.6674C13.1097 17.4168 13.5363 17.2524 13.8641 16.9553C14.1919 16.6582 14.3974 16.2498 14.4407 15.8096L15.5213 4.80779C15.5294 4.72536 15.5201 4.64216 15.4941 4.56354C15.4681 4.48491 15.4259 4.41259 15.3703 4.35123C15.3147 4.28987 15.2469 4.24083 15.1712 4.20725C15.0955 4.17367 15.0136 4.15629 14.9307 4.15624H10.807L11.2883 3.11599ZM9.86645 5.34374H14.2768L13.2587 15.6932C13.2444 15.84 13.1759 15.9763 13.0665 16.0754C12.9572 16.1744 12.8149 16.2293 12.6674 16.2292H7.10195C6.95441 16.2293 6.81211 16.1744 6.70279 16.0754C6.59346 15.9763 6.52494 15.84 6.51058 15.6932L5.4925 5.34374H9.86645Z" fill="black"/>
</svg>
