<svg width="27" height="28" viewBox="0 0 27 28" fill="none" xmlns="http://www.w3.org/2000/svg">
<path fill-rule="evenodd" clip-rule="evenodd" d="M23.7375 9.5045C23.6737 9.50075 23.6058 9.49925 23.5338 9.5H20.6932C18.3667 9.5 16.3766 11.3315 16.3766 13.7188C16.3766 16.106 18.3678 17.9375 20.6932 17.9375H23.5338C23.6058 17.9383 23.6741 17.9368 23.7386 17.933C24.2167 17.9042 24.6681 17.7025 25.0086 17.3655C25.3491 17.0286 25.5554 16.5793 25.5892 16.1015C25.5937 16.034 25.5937 15.9609 25.5937 15.8934V11.5441C25.5937 11.4766 25.5937 11.4035 25.5892 11.336C25.5554 10.8582 25.3491 10.4089 25.0086 10.072C24.6681 9.73502 24.2156 9.53333 23.7375 9.5045ZM20.4446 14.8438C21.0431 14.8438 21.528 14.3398 21.528 13.7188C21.528 13.0978 21.0431 12.5938 20.4446 12.5938C19.845 12.5938 19.3601 13.0978 19.3601 13.7188C19.3601 14.3398 19.845 14.8438 20.4446 14.8438Z" fill="white"/>
<path fill-rule="evenodd" clip-rule="evenodd" d="M23.5327 19.625C23.5716 19.6234 23.6104 19.6311 23.6457 19.6473C23.6811 19.6635 23.7122 19.6878 23.7364 19.7183C23.7606 19.7488 23.7773 19.7845 23.7852 19.8226C23.793 19.8608 23.7917 19.9002 23.7814 19.9377C23.5564 20.7387 23.1975 21.4227 22.6226 21.9965C21.78 22.8402 20.7124 23.2126 19.3939 23.3904C18.1114 23.5625 16.4745 23.5625 14.4067 23.5625H12.0308C9.963 23.5625 8.325 23.5625 7.04363 23.3904C5.72513 23.2126 4.6575 22.8391 3.81488 21.9976C2.97338 21.155 2.59988 20.0874 2.42213 18.7689C2.25 17.4864 2.25 15.8495 2.25 13.7817V13.6557C2.25 11.588 2.25 9.95 2.42213 8.6675C2.59988 7.349 2.97338 6.28137 3.81488 5.43875C4.6575 4.59725 5.72513 4.22375 7.04363 4.046C8.32613 3.875 9.963 3.875 12.0308 3.875H14.4067C16.4745 3.875 18.1125 3.875 19.3939 4.04713C20.7124 4.22488 21.78 4.59837 22.6226 5.43987C23.1975 6.01587 23.5564 6.69875 23.7814 7.49975C23.7917 7.53729 23.793 7.57673 23.7852 7.61486C23.7773 7.65299 23.7606 7.68875 23.7364 7.71922C23.7122 7.74969 23.6811 7.77401 23.6457 7.79022C23.6104 7.80643 23.5716 7.81406 23.5327 7.8125H20.6932C17.5016 7.8125 14.6891 10.3325 14.6891 13.7187C14.6891 17.105 17.5016 19.625 20.6932 19.625H23.5327ZM6.46875 8.375C6.24497 8.375 6.03036 8.46389 5.87213 8.62213C5.71389 8.78036 5.625 8.99497 5.625 9.21875C5.625 9.44253 5.71389 9.65714 5.87213 9.81537C6.03036 9.9736 6.24497 10.0625 6.46875 10.0625H10.9688C11.1925 10.0625 11.4071 9.9736 11.5654 9.81537C11.7236 9.65714 11.8125 9.44253 11.8125 9.21875C11.8125 8.99497 11.7236 8.78036 11.5654 8.62213C11.4071 8.46389 11.1925 8.375 10.9688 8.375H6.46875Z" fill="white"/>
</svg>
