<svg width="27" height="28" viewBox="0 0 27 28" fill="none" xmlns="http://www.w3.org/2000/svg">
<path d="M21.375 14C21.375 14.2984 21.2565 14.5845 21.0455 14.7955C20.8345 15.0065 20.5484 15.125 20.25 15.125C19.9516 15.125 19.6655 15.0065 19.4545 14.7955C19.2435 14.5845 19.125 14.2984 19.125 14C19.125 13.7016 19.2435 13.4155 19.4545 13.2045C19.6655 12.9935 19.9516 12.875 20.25 12.875C20.5484 12.875 20.8345 12.9935 21.0455 13.2045C21.2565 13.4155 21.375 13.7016 21.375 14Z" fill="#D9D9D9"/>
<mask id="path-2-inside-1_174_25" fill="white">
<path fill-rule="evenodd" clip-rule="evenodd" d="M11.187 4.15625H14.688C16.7558 4.15625 18.3938 4.15625 19.6751 4.32838C20.9936 4.50613 22.0613 4.87962 22.9039 5.72112C23.9434 6.76175 24.2753 8.1545 24.3956 9.96237C25.0448 10.247 25.5353 10.8511 25.5881 11.6161C25.5938 11.6847 25.5938 11.7579 25.5938 11.8254V16.1746C25.5938 16.2421 25.5938 16.3152 25.5893 16.3827C25.5353 17.1477 25.0448 17.753 24.3956 18.0387C24.2753 19.8455 23.9434 21.2382 22.9039 22.2789C22.0613 23.1204 20.9936 23.4939 19.6751 23.6716C18.3926 23.8437 16.7558 23.8437 14.688 23.8437H11.187C9.11925 23.8437 7.48125 23.8437 6.19988 23.6716C4.88138 23.4939 3.81375 23.1204 2.97113 22.2789C2.12963 21.4362 1.75613 20.3686 1.57838 19.0501C1.40625 17.7676 1.40625 16.1307 1.40625 14.063V13.937C1.40625 11.8692 1.40625 10.2312 1.57838 8.94987C1.75613 7.63137 2.12963 6.56375 2.97113 5.72112C3.81375 4.87962 4.88138 4.50613 6.19988 4.32838C7.48238 4.15625 9.11925 4.15625 11.187 4.15625ZM22.689 18.2187H20.5088C18.0956 18.2187 16.0301 16.3872 16.0301 14C16.0301 11.6127 18.0956 9.78125 20.5076 9.78125H22.6879C22.5596 8.27262 22.2705 7.475 21.7091 6.91475C21.2333 6.43887 20.5808 6.15312 19.449 6.00125C18.2936 5.846 16.7693 5.84375 14.6239 5.84375H11.2489C9.1035 5.84375 7.58025 5.846 6.42263 6.00125C5.292 6.15312 4.6395 6.43887 4.16363 6.91475C3.68775 7.39062 3.40313 8.04312 3.25125 9.17375C3.096 10.3302 3.09375 11.8535 3.09375 13.9989C3.09375 16.1442 3.096 17.6686 3.25125 18.8251C3.40313 19.9557 3.68887 20.6082 4.16475 21.0841C4.64063 21.56 5.29313 21.8457 6.42488 21.9976C7.58138 22.1529 9.10463 22.1551 11.25 22.1551H14.625C16.7704 22.1551 18.2948 22.1529 19.4513 21.9976C20.5819 21.8457 21.2344 21.56 21.7103 21.0841C22.2716 20.5239 22.5608 19.7274 22.689 18.2176M5.90625 9.5C5.90625 9.27622 5.99515 9.06161 6.15338 8.90338C6.31161 8.74514 6.52622 8.65625 6.75 8.65625H11.25C11.4738 8.65625 11.6884 8.74514 11.8466 8.90338C12.0049 9.06161 12.0938 9.27622 12.0938 9.5C12.0938 9.72378 12.0049 9.93839 11.8466 10.0966C11.6884 10.2549 11.4738 10.3437 11.25 10.3437H6.75C6.52622 10.3437 6.31161 10.2549 6.15338 10.0966C5.99515 9.93839 5.90625 9.72378 5.90625 9.5ZM23.5395 11.4687H20.5088C18.9067 11.4687 17.7176 12.6601 17.7176 14C17.7176 15.3399 18.9068 16.5312 20.5076 16.5312H23.5654C23.7971 16.5166 23.8973 16.3602 23.9051 16.2657V11.7342C23.8973 11.6397 23.7971 11.4834 23.5654 11.4699L23.5395 11.4687Z"/>
</mask>
<path fill-rule="evenodd" clip-rule="evenodd" d="M11.187 4.15625H14.688C16.7558 4.15625 18.3938 4.15625 19.6751 4.32838C20.9936 4.50613 22.0613 4.87962 22.9039 5.72112C23.9434 6.76175 24.2753 8.1545 24.3956 9.96237C25.0448 10.247 25.5353 10.8511 25.5881 11.6161C25.5938 11.6847 25.5938 11.7579 25.5938 11.8254V16.1746C25.5938 16.2421 25.5938 16.3152 25.5893 16.3827C25.5353 17.1477 25.0448 17.753 24.3956 18.0387C24.2753 19.8455 23.9434 21.2382 22.9039 22.2789C22.0613 23.1204 20.9936 23.4939 19.6751 23.6716C18.3926 23.8437 16.7558 23.8437 14.688 23.8437H11.187C9.11925 23.8437 7.48125 23.8437 6.19988 23.6716C4.88138 23.4939 3.81375 23.1204 2.97113 22.2789C2.12963 21.4362 1.75613 20.3686 1.57838 19.0501C1.40625 17.7676 1.40625 16.1307 1.40625 14.063V13.937C1.40625 11.8692 1.40625 10.2312 1.57838 8.94987C1.75613 7.63137 2.12963 6.56375 2.97113 5.72112C3.81375 4.87962 4.88138 4.50613 6.19988 4.32838C7.48238 4.15625 9.11925 4.15625 11.187 4.15625ZM22.689 18.2187H20.5088C18.0956 18.2187 16.0301 16.3872 16.0301 14C16.0301 11.6127 18.0956 9.78125 20.5076 9.78125H22.6879C22.5596 8.27262 22.2705 7.475 21.7091 6.91475C21.2333 6.43887 20.5808 6.15312 19.449 6.00125C18.2936 5.846 16.7693 5.84375 14.6239 5.84375H11.2489C9.1035 5.84375 7.58025 5.846 6.42263 6.00125C5.292 6.15312 4.6395 6.43887 4.16363 6.91475C3.68775 7.39062 3.40313 8.04312 3.25125 9.17375C3.096 10.3302 3.09375 11.8535 3.09375 13.9989C3.09375 16.1442 3.096 17.6686 3.25125 18.8251C3.40313 19.9557 3.68887 20.6082 4.16475 21.0841C4.64063 21.56 5.29313 21.8457 6.42488 21.9976C7.58138 22.1529 9.10463 22.1551 11.25 22.1551H14.625C16.7704 22.1551 18.2948 22.1529 19.4513 21.9976C20.5819 21.8457 21.2344 21.56 21.7103 21.0841C22.2716 20.5239 22.5608 19.7274 22.689 18.2176M5.90625 9.5C5.90625 9.27622 5.99515 9.06161 6.15338 8.90338C6.31161 8.74514 6.52622 8.65625 6.75 8.65625H11.25C11.4738 8.65625 11.6884 8.74514 11.8466 8.90338C12.0049 9.06161 12.0938 9.27622 12.0938 9.5C12.0938 9.72378 12.0049 9.93839 11.8466 10.0966C11.6884 10.2549 11.4738 10.3437 11.25 10.3437H6.75C6.52622 10.3437 6.31161 10.2549 6.15338 10.0966C5.99515 9.93839 5.90625 9.72378 5.90625 9.5ZM23.5395 11.4687H20.5088C18.9067 11.4687 17.7176 12.6601 17.7176 14C17.7176 15.3399 18.9068 16.5312 20.5076 16.5312H23.5654C23.7971 16.5166 23.8973 16.3602 23.9051 16.2657V11.7342C23.8973 11.6397 23.7971 11.4834 23.5654 11.4699L23.5395 11.4687Z" fill="#D9D9D9"/>
<path d="M19.6751 4.32838L19.8087 3.33734L19.8083 3.33728L19.6751 4.32838ZM22.9039 5.72112L23.6114 5.0144L23.6105 5.01355L22.9039 5.72112ZM24.3956 9.96237L23.3978 10.0288L23.4382 10.6345L23.9941 10.8782L24.3956 9.96237ZM25.5881 11.6161L24.5904 11.6851L24.5915 11.6978L25.5881 11.6161ZM25.5893 16.3827L26.5868 16.4532L26.587 16.4493L25.5893 16.3827ZM24.3956 18.0387L23.9927 17.1235L23.4381 17.3676L23.3978 17.9723L24.3956 18.0387ZM22.9039 22.2789L23.6105 22.9865L23.6114 22.9856L22.9039 22.2789ZM19.6751 23.6716L19.8081 24.6627L19.8087 24.6627L19.6751 23.6716ZM6.19988 23.6716L6.06627 24.6627L6.06674 24.6627L6.19988 23.6716ZM2.97113 22.2789L2.26355 22.9855L2.26449 22.9865L2.97113 22.2789ZM1.57838 19.0501L0.587261 19.1831L0.58734 19.1837L1.57838 19.0501ZM1.57838 8.94987L0.58734 8.81627L0.587277 8.81674L1.57838 8.94987ZM2.97113 5.72112L2.26449 5.01354L2.26355 5.01449L2.97113 5.72112ZM6.19988 4.32838L6.06686 3.33726L6.06627 3.33734L6.19988 4.32838ZM22.6879 9.78125V10.7812H23.7765L23.6843 9.69654L22.6879 9.78125ZM21.7091 6.91475L21.002 7.62186L21.0027 7.62257L21.7091 6.91475ZM19.449 6.00125L19.3158 6.99234L19.316 6.99237L19.449 6.00125ZM6.42263 6.00125L6.2897 5.01012L6.28949 5.01015L6.42263 6.00125ZM3.25125 9.17375L2.26015 9.04062L2.26014 9.0407L3.25125 9.17375ZM3.25125 18.8251L2.26014 18.9582L2.26015 18.9583L3.25125 18.8251ZM6.42488 21.9976L6.55792 21.0065L6.55788 21.0065L6.42488 21.9976ZM19.4513 21.9976L19.5843 22.9887L19.5844 22.9887L19.4513 21.9976ZM21.7103 21.0841L21.0039 20.3763L21.0031 20.377L21.7103 21.0841ZM5.90625 9.5H4.90625H5.90625ZM6.75 8.65625V7.65625V8.65625ZM11.25 8.65625V7.65625V8.65625ZM23.5395 11.4687L23.583 10.4697L23.5612 10.4687H23.5395V11.4687ZM23.5654 16.5312V17.5312H23.5969L23.6284 17.5293L23.5654 16.5312ZM23.9051 16.2657L24.9017 16.3488L24.9051 16.3073V16.2657H23.9051ZM23.9051 11.7342H24.9051V11.6927L24.9017 11.6512L23.9051 11.7342ZM23.5654 11.4699L23.6235 10.4716L23.6162 10.4711L23.6088 10.4708L23.5654 11.4699ZM11.187 5.15625H14.688V3.15625H11.187V5.15625ZM14.688 5.15625C16.7823 5.15625 18.3423 5.15832 19.542 5.31947L19.8083 3.33728C18.4452 3.15418 16.7292 3.15625 14.688 3.15625V5.15625ZM19.5415 5.31941C20.7497 5.48228 21.5713 5.80364 22.1972 6.4287L23.6105 5.01355C22.5512 3.9556 21.2376 3.52997 19.8087 3.33734L19.5415 5.31941ZM22.1964 6.42785C22.9687 7.20097 23.2813 8.27876 23.3978 10.0288L25.3934 9.89594C25.2692 8.03024 24.9181 6.32253 23.6114 5.0144L22.1964 6.42785ZM23.9941 10.8782C24.3422 11.0309 24.5662 11.3327 24.5905 11.6851L26.5857 11.5472C26.5044 10.3695 25.7473 9.46315 24.7972 9.04655L23.9941 10.8782ZM24.5915 11.6978C24.5932 11.7185 24.5938 11.7499 24.5938 11.8254H26.5938C26.5938 11.7658 26.5943 11.651 26.5848 11.5344L24.5915 11.6978ZM24.5938 11.8254V16.1746H26.5938V11.8254H24.5938ZM24.5938 16.1746C24.5938 16.249 24.5934 16.2879 24.5915 16.3162L26.587 16.4493C26.5942 16.3426 26.5938 16.2353 26.5938 16.1746H24.5938ZM24.5917 16.3123C24.5667 16.6664 24.3414 16.97 23.9927 17.1235L24.7985 18.954C25.7481 18.536 26.5038 17.6291 26.5868 16.4532L24.5917 16.3123ZM23.3978 17.9723C23.2813 19.7211 22.9687 20.799 22.1964 21.5721L23.6114 22.9856C24.918 21.6775 25.2692 19.9699 25.3934 18.1052L23.3978 17.9723ZM22.1972 21.5713C21.5713 22.1964 20.7497 22.5177 19.5415 22.6806L19.8087 24.6627C21.2376 24.47 22.5512 24.0444 23.6105 22.9865L22.1972 21.5713ZM19.5421 22.6805C18.3412 22.8417 16.7823 22.8437 14.688 22.8437V24.8437C16.7292 24.8437 18.4441 24.8458 19.8081 24.6627L19.5421 22.6805ZM14.688 22.8437H11.187V24.8437H14.688V22.8437ZM11.187 22.8437C9.09266 22.8437 7.53272 22.8417 6.33301 22.6805L6.06674 24.6627C7.42978 24.8458 9.14584 24.8437 11.187 24.8437V22.8437ZM6.33348 22.6806C5.12533 22.5177 4.30365 22.1964 3.67776 21.5713L2.26449 22.9865C3.32385 24.0444 4.63742 24.47 6.06627 24.6627L6.33348 22.6806ZM3.6787 21.5722C3.05364 20.9463 2.73228 20.1247 2.56941 18.9165L0.58734 19.1837C0.779967 20.6126 1.20561 21.9262 2.26355 22.9855L3.6787 21.5722ZM2.56949 18.9171C2.40831 17.7162 2.40625 16.1573 2.40625 14.063H0.40625C0.40625 16.1042 0.404188 17.8191 0.587261 19.1831L2.56949 18.9171ZM2.40625 14.063V13.937H0.40625V14.063H2.40625ZM2.40625 13.937C2.40625 11.8427 2.40832 10.2827 2.56947 9.08301L0.587277 8.81674C0.404182 10.1798 0.40625 11.8958 0.40625 13.937H2.40625ZM2.56941 9.08348C2.73228 7.87533 3.05365 7.05365 3.6787 6.42776L2.26355 5.01449C1.20561 6.07385 0.779967 7.38742 0.58734 8.81627L2.56941 9.08348ZM3.67776 6.4287C4.30365 5.80364 5.12533 5.48228 6.33348 5.31941L6.06627 3.33734C4.63742 3.52997 3.32385 3.9556 2.26449 5.01355L3.67776 6.4287ZM6.33289 5.31949C7.53382 5.15831 9.09274 5.15625 11.187 5.15625V3.15625C9.14576 3.15625 7.43094 3.15419 6.06686 3.33726L6.33289 5.31949ZM22.689 17.2187H20.5088V19.2187H22.689V17.2187ZM20.5088 17.2187C18.5726 17.2187 17.0301 15.7625 17.0301 14H15.0301C15.0301 17.012 17.6187 19.2187 20.5088 19.2187V17.2187ZM17.0301 14C17.0301 12.2373 18.5727 10.7812 20.5076 10.7812V8.78125C17.6185 8.78125 15.0301 10.9882 15.0301 14H17.0301ZM20.5076 10.7812H22.6879V8.78125H20.5076V10.7812ZM23.6843 9.69654C23.55 8.11748 23.2325 7.02232 22.4155 6.20693L21.0027 7.62257C21.3085 7.92768 21.5692 8.42777 21.6915 9.86596L23.6843 9.69654ZM22.4162 6.20764C21.7238 5.51525 20.8254 5.17699 19.582 5.01013L19.316 6.99237C20.3361 7.12926 20.7427 7.3625 21.002 7.62186L22.4162 6.20764ZM19.5822 5.01016C18.3447 4.84387 16.7409 4.84375 14.6239 4.84375V6.84375C16.7976 6.84375 18.2426 6.84813 19.3158 6.99234L19.5822 5.01016ZM14.6239 4.84375H11.2489V6.84375H14.6239V4.84375ZM11.2489 4.84375C9.13173 4.84375 7.52926 4.84389 6.2897 5.01012L6.55555 6.99238C7.63124 6.84811 9.07527 6.84375 11.2489 6.84375V4.84375ZM6.28949 5.01015C5.04714 5.17703 4.14882 5.51534 3.45652 6.20764L4.87073 7.62186C5.13018 7.36241 5.53686 7.12922 6.55576 6.99235L6.28949 5.01015ZM3.45652 6.20764C2.7637 6.90046 2.42689 7.79937 2.26015 9.04062L4.24235 9.30688C4.37936 8.28687 4.6118 7.88079 4.87073 7.62186L3.45652 6.20764ZM2.26014 9.0407C2.09388 10.2792 2.09375 11.8818 2.09375 13.9989H4.09375C4.09375 11.8252 4.09812 10.3813 4.24236 9.3068L2.26014 9.0407ZM2.09375 13.9989C2.09375 16.1159 2.09388 17.7197 2.26014 18.9582L4.24236 18.6921C4.09812 17.6176 4.09375 16.1726 4.09375 13.9989H2.09375ZM2.26015 18.9583C2.42703 20.2006 2.76534 21.0989 3.45764 21.7912L4.87186 20.377C4.61241 20.1176 4.37922 19.7109 4.24235 18.692L2.26015 18.9583ZM3.45764 21.7912C4.15003 22.4836 5.04847 22.8219 6.29187 22.9887L6.55788 21.0065C5.53778 20.8696 5.13122 20.6364 4.87186 20.377L3.45764 21.7912ZM6.29183 22.9887C7.53034 23.155 9.13292 23.1551 11.25 23.1551V21.1551C9.07633 21.1551 7.63241 21.1508 6.55792 21.0065L6.29183 22.9887ZM11.25 23.1551H14.625V21.1551H11.25V23.1551ZM14.625 23.1551C16.7421 23.1551 18.3458 23.155 19.5843 22.9887L19.3182 21.0065C18.2437 21.1508 16.7987 21.1551 14.625 21.1551V23.1551ZM19.5844 22.9887C20.8267 22.8218 21.7251 22.4835 22.4174 21.7912L21.0031 20.377C20.7437 20.6365 20.337 20.8697 19.3181 21.0065L19.5844 22.9887ZM22.4167 21.7919C23.2336 20.9766 23.5512 19.8827 23.6854 18.3023L21.6926 18.133C21.5703 19.572 21.3097 20.0711 21.0039 20.3763L22.4167 21.7919ZM6.90625 9.5C6.90625 9.54144 6.88979 9.58118 6.86049 9.61049L5.44627 8.19627C5.1005 8.54204 4.90625 9.01101 4.90625 9.5H6.90625ZM6.86049 9.61049C6.83118 9.63979 6.79144 9.65625 6.75 9.65625V7.65625C6.26101 7.65625 5.79204 7.8505 5.44627 8.19627L6.86049 9.61049ZM6.75 9.65625H11.25V7.65625H6.75V9.65625ZM11.25 9.65625C11.2086 9.65625 11.1688 9.63979 11.1395 9.61049L12.5537 8.19627C12.208 7.8505 11.739 7.65625 11.25 7.65625V9.65625ZM11.1395 9.61049C11.1102 9.58118 11.0938 9.54144 11.0938 9.5H13.0938C13.0938 9.01101 12.8995 8.54204 12.5537 8.19627L11.1395 9.61049ZM11.0938 9.5C11.0938 9.45856 11.1102 9.41882 11.1395 9.38951L12.5537 10.8037C12.8995 10.458 13.0938 9.98899 13.0938 9.5H11.0938ZM11.1395 9.38951C11.1688 9.36021 11.2086 9.34375 11.25 9.34375V11.3437C11.739 11.3437 12.208 11.1495 12.5537 10.8037L11.1395 9.38951ZM11.25 9.34375H6.75V11.3437H11.25V9.34375ZM6.75 9.34375C6.79144 9.34375 6.83118 9.36021 6.86049 9.38951L5.44627 10.8037C5.79204 11.1495 6.26101 11.3437 6.75 11.3437V9.34375ZM6.86049 9.38951C6.88979 9.41882 6.90625 9.45856 6.90625 9.5H4.90625C4.90625 9.98899 5.1005 10.458 5.44627 10.8037L6.86049 9.38951ZM23.5395 10.4687H20.5088V12.4687H23.5395V10.4687ZM20.5088 10.4687C18.4185 10.4687 16.7176 12.0459 16.7176 14H18.7176C18.7176 13.2744 19.395 12.4687 20.5088 12.4687V10.4687ZM16.7176 14C16.7176 15.9539 18.4183 17.5312 20.5076 17.5312V15.5312C19.3952 15.5312 18.7176 14.7259 18.7176 14H16.7176ZM20.5076 17.5312H23.5654V15.5312H20.5076V17.5312ZM23.6284 17.5293C24.336 17.4846 24.851 16.9565 24.9017 16.3488L22.9086 16.1827C22.9435 15.764 23.2583 15.5486 23.5024 15.5332L23.6284 17.5293ZM24.9051 16.2657V11.7342H22.9051V16.2657H24.9051ZM24.9017 11.6512C24.851 11.0435 24.335 10.513 23.6235 10.4716L23.5072 12.4682C23.2592 12.4537 22.9435 12.236 22.9086 11.8173L24.9017 11.6512ZM23.6088 10.4708L23.583 10.4697L23.496 12.4678L23.5219 12.4689L23.6088 10.4708Z" fill="#D9D9D9" mask="url(#path-2-inside-1_174_25)"/>
</svg>
