<svg width="66" height="37" viewBox="0 0 66 37" fill="none" xmlns="http://www.w3.org/2000/svg">
<path d="M12.6138 22.975C11.8138 22.975 11.0221 22.875 10.2388 22.675C9.45544 22.4917 8.73877 22.1917 8.08877 21.775C7.43877 21.3583 6.9221 20.825 6.53877 20.175C6.15544 19.525 5.96377 18.7417 5.96377 17.825C5.96377 16.9583 6.13877 16.125 6.48877 15.325C6.83877 14.525 7.28877 13.775 7.83877 13.075C8.40544 12.375 8.98877 11.75 9.58877 11.2C10.4388 10.4333 11.4054 9.69167 12.4888 8.975C13.5721 8.25833 14.7221 7.61667 15.9388 7.05C17.1721 6.48333 18.4138 6.03333 19.6638 5.7C20.9138 5.36667 22.1138 5.2 23.2638 5.2C23.7638 5.2 24.3054 5.275 24.8888 5.425C25.4888 5.575 25.9971 5.825 26.4138 6.175C26.8471 6.525 27.0638 7.01667 27.0638 7.65C27.0638 8.21667 26.8721 8.775 26.4888 9.325C26.1054 9.875 25.5971 10.3917 24.9638 10.875C24.3304 11.3583 23.6304 11.8083 22.8638 12.225C22.0971 12.625 21.3138 12.9833 20.5138 13.3C19.7304 13.6 18.9888 13.8417 18.2888 14.025C17.5888 14.2083 16.9971 14.325 16.5138 14.375C16.3971 14.3917 16.2804 14.4 16.1638 14.4C16.0471 14.4 15.9304 14.4 15.8138 14.4C15.7138 14.4 15.5054 14.3917 15.1888 14.375C14.8721 14.3417 14.5721 14.2833 14.2888 14.2C14.0054 14.1167 13.8638 13.9917 13.8638 13.825C13.8638 13.7417 13.9138 13.7 14.0138 13.7C14.0804 13.7 14.1638 13.7167 14.2638 13.75C14.3638 13.7833 14.4888 13.8 14.6388 13.8C15.0388 13.8 15.5554 13.7 16.1888 13.5C16.8221 13.3 17.5054 13.0333 18.2388 12.7C18.9888 12.35 19.7304 11.9583 20.4638 11.525C21.1971 11.0917 21.8721 10.6333 22.4888 10.15C23.1054 9.66667 23.5971 9.18333 23.9638 8.7C24.3304 8.21667 24.5138 7.75833 24.5138 7.325C24.5138 6.925 24.3721 6.63333 24.0888 6.45C23.8054 6.25 23.4721 6.11667 23.0888 6.05C22.7054 5.98333 22.3721 5.95 22.0888 5.95C21.0388 5.95 19.9554 6.10833 18.8388 6.425C17.7388 6.74167 16.6471 7.175 15.5638 7.725C14.4971 8.25833 13.4804 8.85833 12.5138 9.525C11.5638 10.1917 10.7138 10.875 9.96377 11.575C9.4471 12.0583 8.93044 12.6167 8.41377 13.25C7.91377 13.8667 7.4971 14.5333 7.16377 15.25C6.83044 15.95 6.66377 16.675 6.66377 17.425C6.66377 18.2583 6.86377 18.9583 7.26377 19.525C7.66377 20.0917 8.18044 20.55 8.81377 20.9C9.46377 21.2333 10.1638 21.475 10.9138 21.625C11.6638 21.775 12.3804 21.85 13.0638 21.85C13.4971 21.85 13.9304 21.8333 14.3638 21.8C14.7971 21.75 15.2221 21.6917 15.6388 21.625C16.7554 21.425 17.7721 21.1833 18.6888 20.9C19.6221 20.6167 20.5138 20.25 21.3638 19.8C22.2138 19.35 23.0804 18.7667 23.9638 18.05C24.0304 18.0167 24.0721 18 24.0888 18C24.1721 18 24.2138 18.05 24.2138 18.15C24.2138 18.2 24.1804 18.275 24.1138 18.375C23.4638 19.075 22.6721 19.7083 21.7388 20.275C20.8221 20.8417 19.8388 21.325 18.7888 21.725C17.7388 22.125 16.6804 22.4333 15.6138 22.65C14.5471 22.8667 13.5471 22.975 12.6138 22.975ZM28.9075 14.35C28.6742 14.35 28.4992 14.275 28.3825 14.125C28.2659 13.975 28.2075 13.8167 28.2075 13.65C28.2075 13.3167 28.3659 12.9917 28.6825 12.675C28.9992 12.3417 29.3325 12.175 29.6825 12.175C29.9159 12.175 30.0909 12.25 30.2075 12.4C30.3242 12.55 30.3825 12.7083 30.3825 12.875C30.3825 13.225 30.2242 13.5583 29.9075 13.875C29.6075 14.1917 29.2742 14.35 28.9075 14.35ZM25.0825 22.025C24.3992 22.025 23.9325 21.8833 23.6825 21.6C23.4492 21.3 23.3325 20.9667 23.3325 20.6C23.3325 20.3 23.3825 20.0167 23.4825 19.75C23.5825 19.4667 23.6659 19.2667 23.7325 19.15C23.8325 18.9833 23.9659 18.7917 24.1325 18.575C24.3159 18.3583 24.5159 18.125 24.7325 17.875C24.3992 18.1583 24.0825 18.4333 23.7825 18.7C23.4992 18.9667 23.2659 19.1667 23.0825 19.3C23.0325 19.35 22.9825 19.375 22.9325 19.375C22.8659 19.375 22.8325 19.3333 22.8325 19.25C22.8325 19.1167 22.9242 18.9833 23.1075 18.85C23.5409 18.4833 23.9575 18.0833 24.3575 17.65C24.7742 17.2167 25.1659 16.8167 25.5325 16.45C25.8992 16.0667 26.2242 15.8 26.5075 15.65C26.8075 15.4833 27.0492 15.375 27.2325 15.325C27.4159 15.275 27.5659 15.25 27.6825 15.25C27.8659 15.25 27.9992 15.2833 28.0825 15.35C28.1659 15.4 28.1825 15.4583 28.1325 15.525C27.8492 15.8083 27.5659 16.175 27.2825 16.625C27.0159 17.0583 26.7659 17.5167 26.5325 18C26.2992 18.4833 26.1075 18.9417 25.9575 19.375C25.8242 19.8083 25.7575 20.175 25.7575 20.475C25.7575 20.8917 25.9242 21.1 26.2575 21.1C26.5742 21.1 26.9825 20.9583 27.4825 20.675C27.9992 20.375 28.5325 20 29.0825 19.55C29.6492 19.1 30.1742 18.6583 30.6575 18.225C30.7242 18.1583 30.7825 18.125 30.8325 18.125C30.9159 18.125 30.9575 18.1667 30.9575 18.25C30.9742 18.3333 30.9575 18.3917 30.9075 18.425C30.3575 18.9417 29.7325 19.4833 29.0325 20.05C28.3492 20.6 27.6575 21.0667 26.9575 21.45C26.2742 21.8333 25.6492 22.025 25.0825 22.025ZM32.6423 22.25C31.909 22.25 31.2923 22.075 30.7923 21.725C30.309 21.3583 30.0673 20.8333 30.0673 20.15C30.0673 19.4167 30.2423 18.7333 30.5923 18.1C30.9423 17.4667 31.409 16.9167 31.9923 16.45C32.5756 15.9667 33.209 15.5917 33.8923 15.325C34.5923 15.0583 35.284 14.925 35.9673 14.925C36.6506 14.925 37.159 15.05 37.4923 15.3C37.8256 15.5333 37.9923 15.825 37.9923 16.175C37.9923 16.5083 37.834 16.8667 37.5173 17.25C37.2173 17.6167 36.7756 17.9417 36.1923 18.225C35.8256 18.3917 35.4006 18.5417 34.9173 18.675C34.4506 18.7917 34.0423 18.85 33.6923 18.85C33.4256 18.85 33.2923 18.8083 33.2923 18.725C33.2923 18.6583 33.409 18.625 33.6423 18.625C33.859 18.625 34.1923 18.5667 34.6423 18.45C35.109 18.3167 35.559 18.1417 35.9923 17.925C36.4756 17.6583 36.8173 17.3917 37.0173 17.125C37.2173 16.8583 37.3173 16.6167 37.3173 16.4C37.3173 16.2 37.234 16.0333 37.0673 15.9C36.9173 15.7667 36.7006 15.7 36.4173 15.7C36.1506 15.7 35.8506 15.775 35.5173 15.925C35.034 16.1417 34.534 16.5 34.0173 17C33.5173 17.4833 33.1006 18.0167 32.7673 18.6C32.434 19.1833 32.2673 19.7417 32.2673 20.275C32.2673 20.6417 32.3673 20.95 32.5673 21.2C32.784 21.45 33.1006 21.575 33.5173 21.575C33.9506 21.575 34.4506 21.4417 35.0173 21.175C35.584 20.8917 36.159 20.55 36.7423 20.15C37.3256 19.7333 37.8673 19.3167 38.3673 18.9C38.8673 18.4833 39.2673 18.1333 39.5673 17.85C39.6673 17.75 39.7423 17.7 39.7923 17.7C39.8423 17.7 39.8673 17.7417 39.8673 17.825C39.8673 17.9417 39.8173 18.0417 39.7173 18.125C39.084 18.7083 38.3923 19.3167 37.6423 19.95C36.909 20.5833 36.1173 21.125 35.2673 21.575C34.434 22.0083 33.559 22.2333 32.6423 22.25ZM42.4634 22.025C41.7467 22.025 41.2634 21.8917 41.0134 21.625C40.7634 21.3417 40.6384 21.0333 40.6384 20.7C40.6384 20.2667 40.805 19.8083 41.1384 19.325C41.3384 19.0417 41.5634 18.725 41.8134 18.375C42.0634 18.0083 42.2967 17.6667 42.5134 17.35C42.73 17.0333 42.88 16.8083 42.9634 16.675C43.08 16.5083 43.1467 16.4 43.1634 16.35C43.1967 16.2833 43.2134 16.2167 43.2134 16.15C43.2134 16.05 43.1467 15.9583 43.0134 15.875C42.8967 15.775 42.6967 15.725 42.4134 15.725C42.33 15.725 42.255 15.7333 42.1884 15.75C42.1384 15.75 42.08 15.75 42.0134 15.75C41.88 15.75 41.805 15.7417 41.7884 15.725L41.7134 15.825C41.2467 16.4417 40.7467 17.05 40.2134 17.65C39.68 18.2333 39.0967 18.775 38.4634 19.275C38.3967 19.325 38.3467 19.35 38.3134 19.35C38.2467 19.35 38.2134 19.3167 38.2134 19.25C38.2134 19.1167 38.3134 18.9667 38.5134 18.8C39.03 18.3667 39.5384 17.8833 40.0384 17.35C40.5384 16.8 40.9884 16.225 41.3884 15.625C41.2384 15.525 41.1634 15.325 41.1634 15.025C41.1634 14.575 41.305 14.0917 41.5884 13.575C41.7884 13.225 42.005 12.9667 42.2384 12.8C42.4884 12.6167 42.705 12.525 42.8884 12.525C43.2384 12.525 43.4134 12.7333 43.4134 13.15C43.4134 13.4167 43.3134 13.75 43.1134 14.15C43.03 14.35 42.8634 14.6083 42.6134 14.925C42.38 15.225 42.1467 15.4417 41.9134 15.575C42.2634 15.4583 42.705 15.3833 43.2384 15.35C43.7884 15.3 44.2467 15.275 44.6134 15.275C44.83 15.275 45.0967 15.3417 45.4134 15.475C45.73 15.5917 45.8884 15.8083 45.8884 16.125C45.8884 16.3417 45.7884 16.575 45.5884 16.825C45.5384 16.8917 45.405 17.05 45.1884 17.3C44.9717 17.55 44.73 17.85 44.4634 18.2C44.2134 18.55 43.98 18.9 43.7634 19.25C43.5467 19.5667 43.3717 19.8583 43.2384 20.125C43.1217 20.3917 43.0634 20.6167 43.0634 20.8C43.0634 21.0667 43.2134 21.2 43.5134 21.2C43.8634 21.2 44.33 21.0333 44.9134 20.7C45.4967 20.3667 46.1217 19.9417 46.7884 19.425C47.4717 18.8917 48.0967 18.3417 48.6634 17.775C48.73 17.7083 48.7884 17.675 48.8384 17.675C48.905 17.675 48.9384 17.7167 48.9384 17.8C48.9384 17.9 48.8967 17.9917 48.8134 18.075C48.23 18.6583 47.58 19.2583 46.8634 19.875C46.1634 20.475 45.43 20.9833 44.6634 21.4C43.9134 21.8167 43.18 22.025 42.4634 22.025ZM49.1216 22.025C48.6049 22.025 48.2049 21.8667 47.9216 21.55C47.6382 21.2167 47.4966 20.7917 47.4966 20.275C47.4966 19.7917 47.6216 19.2583 47.8716 18.675C48.1382 18.0917 48.5549 17.5 49.1216 16.9C49.7049 16.2667 50.4299 15.7583 51.2966 15.375C52.1632 14.975 52.9882 14.775 53.7716 14.775C54.4049 14.775 54.9466 14.9167 55.3966 15.2C55.8466 15.4667 56.1466 15.8083 56.2966 16.225C56.4799 16.225 56.7049 16.275 56.9716 16.375C57.2549 16.475 57.3966 16.6583 57.3966 16.925C57.3966 17.1083 57.3049 17.3167 57.1216 17.55C57.0049 17.7167 56.7966 17.9667 56.4966 18.3C56.2132 18.6333 55.9466 18.9917 55.6966 19.375C55.4966 19.675 55.3382 19.9583 55.2216 20.225C55.1049 20.475 55.0466 20.6917 55.0466 20.875C55.0466 21.125 55.1716 21.25 55.4216 21.25C55.7049 21.25 56.1299 21.0917 56.6966 20.775C57.3132 20.425 57.9049 20.025 58.4716 19.575C59.0382 19.125 59.4799 18.7667 59.7966 18.5C59.8799 18.4333 59.9382 18.4 59.9716 18.4C60.0382 18.4 60.0716 18.4417 60.0716 18.525C60.0716 18.625 60.0299 18.7167 59.9466 18.8C59.7966 18.9333 59.5049 19.1833 59.0716 19.55C58.6382 19.9167 58.1382 20.3 57.5716 20.7C57.0216 21.1 56.4799 21.425 55.9466 21.675C55.6799 21.7917 55.4299 21.8833 55.1966 21.95C54.9799 22 54.7799 22.025 54.5966 22.025C54.1466 22.025 53.8049 21.9 53.5716 21.65C53.3382 21.3833 53.2216 21.0417 53.2216 20.625C53.2216 20.4583 53.2466 20.2833 53.2966 20.1C53.3466 19.9167 53.4049 19.7333 53.4716 19.55L53.6466 19.125C53.2132 19.6583 52.7799 20.1083 52.3466 20.475C51.9132 20.825 51.4799 21.1333 51.0466 21.4C50.6799 21.6167 50.3299 21.775 49.9966 21.875C49.6799 21.975 49.3882 22.025 49.1216 22.025ZM49.8966 21.375C50.1966 21.375 50.6299 21.2 51.1966 20.85C51.7632 20.4833 52.4216 19.925 53.1716 19.175C53.2716 19.075 53.4549 18.9 53.7216 18.65C54.0049 18.3833 54.3049 18.0917 54.6216 17.775C54.9382 17.4417 55.2049 17.1167 55.4216 16.8C55.6549 16.4667 55.7716 16.1917 55.7716 15.975C55.7716 15.6583 55.4966 15.5 54.9466 15.5C54.4632 15.5 53.8799 15.6917 53.1966 16.075C52.5299 16.4417 51.8882 16.9917 51.2716 17.725C50.6382 18.475 50.1716 19.125 49.8716 19.675C49.5882 20.2083 49.4466 20.6167 49.4466 20.9C49.4466 21.2167 49.5966 21.375 49.8966 21.375Z" fill="white"/>
<path d="M4.44824 26.5352C4.49056 26.5677 4.51172 26.5872 4.51172 26.5938C4.51172 26.6003 4.55729 27.0462 4.64844 27.9316H4.38477C4.2513 27.4336 4.0446 27.0446 3.76465 26.7646C3.48796 26.4814 3.13802 26.3398 2.71484 26.3398C2.3112 26.3398 2.00033 26.4619 1.78223 26.7061C1.56413 26.9469 1.45508 27.2285 1.45508 27.5508C1.45508 27.7428 1.49577 27.9202 1.57715 28.083C1.65853 28.2425 1.76758 28.3809 1.9043 28.498C2.04102 28.612 2.19727 28.721 2.37305 28.8252C2.55208 28.9294 2.73926 29.0286 2.93457 29.123C3.12988 29.2142 3.3252 29.3086 3.52051 29.4062C3.71582 29.5007 3.90137 29.6081 4.07715 29.7285C4.25618 29.849 4.41406 29.9792 4.55078 30.1191C4.6875 30.2591 4.79655 30.4284 4.87793 30.627C4.95931 30.8255 5 31.0436 5 31.2812C5 31.8379 4.79655 32.2822 4.38965 32.6143C3.98275 32.943 3.44401 33.1074 2.77344 33.1074C2.39909 33.1074 2.01823 33.0277 1.63086 32.8682C1.24349 32.7087 0.921224 32.515 0.664062 32.2871L1.08398 31.8281C1.59831 32.2773 2.19727 32.502 2.88086 32.502C3.29753 32.502 3.64583 32.3978 3.92578 32.1895C4.20573 31.9779 4.3457 31.6816 4.3457 31.3008C4.3457 31.0827 4.2806 30.8857 4.15039 30.71C4.02344 30.5309 3.85742 30.3779 3.65234 30.251C3.44727 30.124 3.22103 30.002 2.97363 29.8848C2.72624 29.7643 2.47884 29.639 2.23145 29.5088C1.98405 29.3753 1.75781 29.2321 1.55273 29.0791C1.34766 28.9229 1.18001 28.7292 1.0498 28.498C0.922852 28.2637 0.859375 28.0033 0.859375 27.7168C0.859375 27.2383 1.04004 26.8444 1.40137 26.5352C1.7627 26.2227 2.22982 26.0664 2.80273 26.0664C3.02409 26.0664 3.23405 26.0843 3.43262 26.1201C3.63444 26.1559 3.7972 26.1999 3.9209 26.252C4.04785 26.3008 4.1569 26.3529 4.24805 26.4082C4.34245 26.4603 4.40918 26.5026 4.44824 26.5352ZM6.37695 28.791L7.68555 32.248L8.82812 29.6406L8.52539 28.791H9.0332L10.3418 32.2578L11.3965 29.8457C11.4681 29.6829 11.512 29.5446 11.5283 29.4307C11.5479 29.3167 11.5397 29.2321 11.5039 29.1768C11.4714 29.1214 11.4274 29.0824 11.3721 29.0596C11.3167 29.0368 11.2467 29.0254 11.1621 29.0254V28.791H12.0508V28.9375L10.3223 33H10.1172L8.95508 29.9336L7.62695 33H7.44141L5.84961 28.791H6.37695ZM14.5312 28.791C14.7233 28.791 14.8991 28.8122 15.0586 28.8545C15.2181 28.8968 15.3532 28.9505 15.4639 29.0156C15.5745 29.0807 15.6722 29.1605 15.7568 29.2549C15.8447 29.3493 15.9131 29.4437 15.9619 29.5381C16.014 29.6292 16.0579 29.7285 16.0938 29.8359C16.1296 29.9434 16.154 30.0361 16.167 30.1143C16.18 30.1924 16.1898 30.2721 16.1963 30.3535C16.2028 30.4349 16.2044 30.4886 16.2012 30.5146C16.2012 30.5407 16.2012 30.5618 16.2012 30.5781H13.3203C13.3171 30.6465 13.3154 30.7132 13.3154 30.7783C13.3154 31.3057 13.4229 31.7174 13.6377 32.0137C13.8786 32.3457 14.2253 32.5117 14.6777 32.5117C14.8079 32.5117 14.9382 32.4873 15.0684 32.4385C15.2018 32.3896 15.3125 32.3359 15.4004 32.2773C15.4883 32.2155 15.5729 32.1455 15.6543 32.0674C15.7357 31.9893 15.7878 31.9355 15.8105 31.9062C15.8366 31.8737 15.8561 31.8477 15.8691 31.8281L16.2109 32.1309L16.1475 32.2188C16.1051 32.2806 16.0368 32.3538 15.9424 32.4385C15.8512 32.5231 15.7438 32.6077 15.6201 32.6924C15.4997 32.777 15.3467 32.8503 15.1611 32.9121C14.9756 32.9707 14.7819 33 14.5801 33C14.0495 33 13.6165 32.7982 13.2812 32.3945C12.9492 31.9909 12.7832 31.4896 12.7832 30.8906C12.7832 30.2721 12.9476 29.7676 13.2764 29.377C13.6051 28.9863 14.0234 28.791 14.5312 28.791ZM13.3398 30.3828H15.6836C15.6836 30.3242 15.6771 30.251 15.6641 30.1631C15.6543 30.0752 15.625 29.9596 15.5762 29.8164C15.5306 29.6699 15.4688 29.5381 15.3906 29.4209C15.3158 29.3037 15.2035 29.2028 15.0537 29.1182C14.904 29.0303 14.7298 28.9863 14.5312 28.9863C14.3359 28.9863 14.1618 29.0303 14.0088 29.1182C13.859 29.2061 13.7435 29.3086 13.6621 29.4258C13.584 29.5397 13.5189 29.6699 13.4668 29.8164C13.4147 29.9629 13.3805 30.0785 13.3643 30.1631C13.3512 30.2477 13.3431 30.321 13.3398 30.3828ZM18.8086 28.791C19.0007 28.791 19.1764 28.8122 19.3359 28.8545C19.4954 28.8968 19.6305 28.9505 19.7412 29.0156C19.8519 29.0807 19.9495 29.1605 20.0342 29.2549C20.1221 29.3493 20.1904 29.4437 20.2393 29.5381C20.2913 29.6292 20.3353 29.7285 20.3711 29.8359C20.4069 29.9434 20.4313 30.0361 20.4443 30.1143C20.4574 30.1924 20.4671 30.2721 20.4736 30.3535C20.4801 30.4349 20.4818 30.4886 20.4785 30.5146C20.4785 30.5407 20.4785 30.5618 20.4785 30.5781H17.5977C17.5944 30.6465 17.5928 30.7132 17.5928 30.7783C17.5928 31.3057 17.7002 31.7174 17.915 32.0137C18.1559 32.3457 18.5026 32.5117 18.9551 32.5117C19.0853 32.5117 19.2155 32.4873 19.3457 32.4385C19.4792 32.3896 19.5898 32.3359 19.6777 32.2773C19.7656 32.2155 19.8503 32.1455 19.9316 32.0674C20.013 31.9893 20.0651 31.9355 20.0879 31.9062C20.1139 31.8737 20.1335 31.8477 20.1465 31.8281L20.4883 32.1309L20.4248 32.2188C20.3825 32.2806 20.3141 32.3538 20.2197 32.4385C20.1286 32.5231 20.0212 32.6077 19.8975 32.6924C19.777 32.777 19.624 32.8503 19.4385 32.9121C19.2529 32.9707 19.0592 33 18.8574 33C18.3268 33 17.8939 32.7982 17.5586 32.3945C17.2266 31.9909 17.0605 31.4896 17.0605 30.8906C17.0605 30.2721 17.2249 29.7676 17.5537 29.377C17.8825 28.9863 18.3008 28.791 18.8086 28.791ZM17.6172 30.3828H19.9609C19.9609 30.3242 19.9544 30.251 19.9414 30.1631C19.9316 30.0752 19.9023 29.9596 19.8535 29.8164C19.8079 29.6699 19.7461 29.5381 19.668 29.4209C19.5931 29.3037 19.4808 29.2028 19.3311 29.1182C19.1813 29.0303 19.0072 28.9863 18.8086 28.9863C18.6133 28.9863 18.4391 29.0303 18.2861 29.1182C18.1364 29.2061 18.0208 29.3086 17.9395 29.4258C17.8613 29.5397 17.7962 29.6699 17.7441 29.8164C17.6921 29.9629 17.6579 30.0785 17.6416 30.1631C17.6286 30.2477 17.6204 30.321 17.6172 30.3828ZM22.2266 27.6973V28.8008H23.5156V29.0156H22.2266V31.7988C22.2266 31.8802 22.2266 31.9469 22.2266 31.999C22.2298 32.0511 22.2347 32.1146 22.2412 32.1895C22.251 32.2611 22.264 32.3197 22.2803 32.3652C22.2965 32.4076 22.3177 32.4515 22.3438 32.4971C22.373 32.5426 22.4105 32.5768 22.4561 32.5996C22.5016 32.6191 22.5553 32.6289 22.6172 32.6289C22.7311 32.6289 22.8727 32.5915 23.042 32.5166C23.2145 32.4385 23.3366 32.3766 23.4082 32.3311C23.4831 32.2855 23.5417 32.248 23.584 32.2188L23.6621 32.3848L23.4668 32.541C23.3333 32.6484 23.1673 32.7526 22.9688 32.8535C22.7734 32.9577 22.6107 33.0098 22.4805 33.0098C21.9857 33.0098 21.7383 32.6517 21.7383 31.9355V29.0156H21.123V28.8008H21.7383V27.6973H22.2266ZM24.1895 32.4336L24.4727 32.0918C24.4857 32.1048 24.5036 32.1227 24.5264 32.1455C24.5524 32.1683 24.6077 32.209 24.6924 32.2676C24.777 32.3229 24.8649 32.3734 24.9561 32.4189C25.0472 32.4613 25.1628 32.5003 25.3027 32.5361C25.446 32.5719 25.5892 32.5898 25.7324 32.5898C26.0156 32.5898 26.2337 32.5199 26.3867 32.3799C26.543 32.2367 26.6211 32.0723 26.6211 31.8867C26.6211 31.7728 26.5804 31.667 26.499 31.5693C26.4176 31.4717 26.3102 31.387 26.1768 31.3154C26.0465 31.2438 25.9017 31.1738 25.7422 31.1055C25.5859 31.0339 25.4281 30.9574 25.2686 30.876C25.1123 30.7946 24.9674 30.7051 24.834 30.6074C24.7038 30.5098 24.598 30.3893 24.5166 30.2461C24.4352 30.1029 24.3945 29.9434 24.3945 29.7676C24.3945 29.4746 24.5068 29.2256 24.7314 29.0205C24.9561 28.8154 25.2702 28.7129 25.6738 28.7129C25.8854 28.7129 26.0905 28.7357 26.2891 28.7812C26.4909 28.8268 26.639 28.8724 26.7334 28.918L26.875 28.9863V29.9238H26.6797C26.6764 29.8978 26.6699 29.8636 26.6602 29.8213C26.6536 29.7757 26.626 29.696 26.5771 29.582C26.5316 29.4681 26.473 29.3688 26.4014 29.2842C26.333 29.1963 26.2288 29.1165 26.0889 29.0449C25.9521 28.9733 25.7943 28.9375 25.6152 28.9375C25.3874 28.9375 25.2002 29.0026 25.0537 29.1328C24.9072 29.2598 24.834 29.4355 24.834 29.6602C24.834 29.8034 24.8747 29.9336 24.9561 30.0508C25.0407 30.168 25.1481 30.2673 25.2783 30.3486C25.4118 30.4268 25.5583 30.5033 25.7178 30.5781C25.8805 30.653 26.0417 30.7295 26.2012 30.8076C26.3639 30.8857 26.5104 30.9704 26.6406 31.0615C26.7741 31.1494 26.8815 31.2617 26.9629 31.3984C27.0475 31.5319 27.0898 31.6816 27.0898 31.8477C27.0898 32.2025 26.958 32.4906 26.6943 32.7119C26.4307 32.93 26.11 33.0391 25.7324 33.0391C25.5404 33.0391 25.3548 33.0179 25.1758 32.9756C25 32.9333 24.8535 32.8828 24.7363 32.8242C24.6224 32.7656 24.5215 32.707 24.4336 32.6484C24.349 32.5898 24.2871 32.5394 24.248 32.4971L24.1895 32.4336ZM33.0957 27.0625C33.2585 27.0625 33.4131 27.082 33.5596 27.1211C33.7061 27.1569 33.8428 27.2155 33.9697 27.2969C34.0967 27.375 34.1976 27.4873 34.2725 27.6338C34.3473 27.7803 34.3848 27.9512 34.3848 28.1465C34.3848 28.2897 34.3604 28.4248 34.3115 28.5518C34.2627 28.6755 34.2008 28.7845 34.126 28.8789C34.0544 28.9701 33.9583 29.0628 33.8379 29.1572C33.7174 29.2484 33.6035 29.3265 33.4961 29.3916C33.3887 29.4535 33.2568 29.5234 33.1006 29.6016L33.8672 30.5195C34.1504 30.8646 34.3945 31.1494 34.5996 31.374C34.9577 30.9248 35.1986 30.4479 35.3223 29.9434H35.8789C35.7129 30.5911 35.4053 31.1934 34.9561 31.75C35.4769 32.2773 35.8757 32.541 36.1523 32.541C36.2533 32.541 36.346 32.5247 36.4307 32.4922C36.5153 32.4564 36.569 32.4287 36.5918 32.4092C36.6146 32.3864 36.6309 32.3685 36.6406 32.3555L36.7578 32.4434L36.7188 32.502C36.696 32.5378 36.6585 32.5833 36.6064 32.6387C36.5544 32.694 36.4941 32.7493 36.4258 32.8047C36.3607 32.86 36.2777 32.9072 36.1768 32.9463C36.0758 32.9821 35.9733 33 35.8691 33C35.5501 33 35.1139 32.7266 34.5605 32.1797C33.9551 32.7461 33.3171 33.0293 32.6465 33.0293C32.1582 33.0293 31.7448 32.8796 31.4062 32.5801C31.0677 32.2806 30.8984 31.8965 30.8984 31.4277C30.8984 31.2292 30.9277 31.0469 30.9863 30.8809C31.0482 30.7148 31.1198 30.5781 31.2012 30.4707C31.2858 30.36 31.403 30.251 31.5527 30.1436C31.7025 30.0361 31.8327 29.9531 31.9434 29.8945C32.0573 29.8359 32.207 29.7643 32.3926 29.6797C32.1777 29.3965 32.0166 29.1426 31.9092 28.918C31.8018 28.6934 31.748 28.4688 31.748 28.2441C31.748 27.9479 31.8815 27.6777 32.1484 27.4336C32.4186 27.1862 32.7344 27.0625 33.0957 27.0625ZM33.3594 30.832C32.9395 30.3438 32.6709 30.0264 32.5537 29.8799C32.3812 29.971 32.2331 30.0605 32.1094 30.1484C31.9889 30.2331 31.8734 30.3291 31.7627 30.4365C31.652 30.5407 31.5674 30.6628 31.5088 30.8027C31.4535 30.9395 31.4258 31.0892 31.4258 31.252C31.4258 31.4082 31.4486 31.5579 31.4941 31.7012C31.5397 31.8444 31.6097 31.9795 31.7041 32.1064C31.8018 32.2301 31.9352 32.3294 32.1045 32.4043C32.2738 32.4759 32.4707 32.5117 32.6953 32.5117C33.1966 32.5117 33.6995 32.2757 34.2041 31.8037C33.9958 31.5758 33.7142 31.252 33.3594 30.832ZM32.2656 27.9707C32.2656 28.1823 32.321 28.4004 32.4316 28.625C32.5423 28.8464 32.7148 29.1084 32.9492 29.4111C33.2324 29.2581 33.4505 29.0872 33.6035 28.8984C33.7598 28.7064 33.8379 28.4622 33.8379 28.166C33.8379 27.5605 33.5677 27.2578 33.0273 27.2578C32.819 27.2578 32.64 27.3229 32.4902 27.4531C32.3405 27.5801 32.2656 27.7526 32.2656 27.9707ZM44.2529 26.5352C44.2952 26.5677 44.3164 26.5872 44.3164 26.5938C44.3164 26.6003 44.362 27.0462 44.4531 27.9316H44.1895C44.056 27.4336 43.8493 27.0446 43.5693 26.7646C43.2926 26.4814 42.9427 26.3398 42.5195 26.3398C42.1159 26.3398 41.805 26.4619 41.5869 26.7061C41.3688 26.9469 41.2598 27.2285 41.2598 27.5508C41.2598 27.7428 41.3005 27.9202 41.3818 28.083C41.4632 28.2425 41.5723 28.3809 41.709 28.498C41.8457 28.612 42.002 28.721 42.1777 28.8252C42.3568 28.9294 42.5439 29.0286 42.7393 29.123C42.9346 29.2142 43.1299 29.3086 43.3252 29.4062C43.5205 29.5007 43.7061 29.6081 43.8818 29.7285C44.0609 29.849 44.2188 29.9792 44.3555 30.1191C44.4922 30.2591 44.6012 30.4284 44.6826 30.627C44.764 30.8255 44.8047 31.0436 44.8047 31.2812C44.8047 31.8379 44.6012 32.2822 44.1943 32.6143C43.7874 32.943 43.2487 33.1074 42.5781 33.1074C42.2038 33.1074 41.8229 33.0277 41.4355 32.8682C41.0482 32.7087 40.7259 32.515 40.4688 32.2871L40.8887 31.8281C41.403 32.2773 42.002 32.502 42.6855 32.502C43.1022 32.502 43.4505 32.3978 43.7305 32.1895C44.0104 31.9779 44.1504 31.6816 44.1504 31.3008C44.1504 31.0827 44.0853 30.8857 43.9551 30.71C43.8281 30.5309 43.6621 30.3779 43.457 30.251C43.252 30.124 43.0257 30.002 42.7783 29.8848C42.5309 29.7643 42.2835 29.639 42.0361 29.5088C41.7887 29.3753 41.5625 29.2321 41.3574 29.0791C41.1523 28.9229 40.9847 28.7292 40.8545 28.498C40.7275 28.2637 40.6641 28.0033 40.6641 27.7168C40.6641 27.2383 40.8447 26.8444 41.2061 26.5352C41.5674 26.2227 42.0345 26.0664 42.6074 26.0664C42.8288 26.0664 43.0387 26.0843 43.2373 26.1201C43.4391 26.1559 43.6019 26.1999 43.7256 26.252C43.8525 26.3008 43.9616 26.3529 44.0527 26.4082C44.1471 26.4603 44.2139 26.5026 44.2529 26.5352ZM47.5391 28.7422C47.7897 28.7422 48.0062 28.7666 48.1885 28.8154C48.3708 28.8643 48.5124 28.9261 48.6133 29.001C48.7174 29.0758 48.7988 29.1735 48.8574 29.2939C48.9193 29.4144 48.9583 29.5316 48.9746 29.6455C48.9941 29.7594 49.0039 29.8945 49.0039 30.0508V33H48.5645L48.5156 32.2188C48.3561 32.4759 48.1331 32.6745 47.8467 32.8145C47.5602 32.9512 47.3014 33.0195 47.0703 33.0195C46.7546 33.0195 46.4795 32.9284 46.2451 32.7461C46.014 32.5605 45.8984 32.2806 45.8984 31.9062C45.8984 31.7012 45.9375 31.5189 46.0156 31.3594C46.0938 31.1999 46.2044 31.0713 46.3477 30.9736C46.4909 30.876 46.6439 30.7946 46.8066 30.7295C46.9694 30.6644 47.1582 30.6172 47.373 30.5879C47.5879 30.5553 47.7799 30.5342 47.9492 30.5244C48.1217 30.5146 48.3105 30.5098 48.5156 30.5098C48.5156 30.4837 48.5124 30.3372 48.5059 30.0703C48.5026 29.9271 48.4896 29.8083 48.4668 29.7139C48.444 29.6195 48.4001 29.5299 48.335 29.4453C48.2699 29.3574 48.1706 29.2939 48.0371 29.2549C47.9069 29.2126 47.7409 29.1914 47.5391 29.1914C47.1615 29.1914 46.7839 29.2695 46.4062 29.4258L46.3184 29.0059L46.46 28.9375C46.5544 28.8952 46.7025 28.8529 46.9043 28.8105C47.1094 28.765 47.321 28.7422 47.5391 28.7422ZM48.5156 31.5547C48.5156 31.5547 48.5156 31.278 48.5156 30.7246C47.1289 30.7246 46.4355 31.099 46.4355 31.8477C46.4355 32.1016 46.512 32.3066 46.665 32.4629C46.8213 32.6191 47.028 32.6973 47.2852 32.6973C47.6009 32.6973 47.8841 32.5768 48.1348 32.3359C48.3887 32.0918 48.5156 31.8314 48.5156 31.5547ZM50.2832 28.791L51.8359 32.3359L52.8809 29.7871C52.9557 29.6081 52.9932 29.46 52.9932 29.3428C52.9899 29.1312 52.8678 29.0254 52.627 29.0254V28.791H53.4961V28.9375L51.8359 33H51.5527L49.7559 28.791H50.2832ZM55.9668 28.6445C56.5462 28.6445 57.0003 28.848 57.3291 29.2549C57.6579 29.6618 57.8223 30.1842 57.8223 30.8223C57.8223 31.1315 57.7832 31.4196 57.7051 31.6865C57.6302 31.9502 57.5195 32.1862 57.373 32.3945C57.2266 32.5996 57.0329 32.7624 56.792 32.8828C56.5544 33 56.2826 33.0586 55.9766 33.0586C55.6673 33.0586 55.3923 33 55.1514 32.8828C54.9105 32.7624 54.7168 32.5996 54.5703 32.3945C54.4238 32.1862 54.3115 31.9502 54.2334 31.6865C54.1585 31.4196 54.1211 31.1315 54.1211 30.8223C54.1211 30.1842 54.2839 29.6618 54.6094 29.2549C54.9382 28.848 55.3906 28.6445 55.9668 28.6445ZM55.9766 32.8242C56.1556 32.8242 56.3216 32.79 56.4746 32.7217C56.6309 32.6533 56.7757 32.5459 56.9092 32.3994C57.0426 32.2529 57.1484 32.0462 57.2266 31.7793C57.3047 31.5091 57.3438 31.1934 57.3438 30.832C57.3438 30.3145 57.2119 29.9076 56.9482 29.6113C56.6878 29.3118 56.3672 29.1621 55.9863 29.1621C55.6022 29.1621 55.2783 29.3118 55.0146 29.6113C54.751 29.9076 54.6191 30.3145 54.6191 30.832C54.6191 31.125 54.6452 31.387 54.6973 31.6182C54.7493 31.8493 54.8177 32.0397 54.9023 32.1895C54.9902 32.3359 55.0928 32.458 55.21 32.5557C55.3304 32.6533 55.4525 32.7233 55.5762 32.7656C55.7031 32.8047 55.8366 32.8242 55.9766 32.8242ZM58.9746 33V29.8164C58.9746 29.5365 58.9193 29.2565 58.8086 28.9766L59.2871 28.7812C59.3359 28.8952 59.3945 29.123 59.4629 29.4648C59.4824 29.4421 59.5117 29.4111 59.5508 29.3721C59.5898 29.333 59.6566 29.2728 59.751 29.1914C59.8486 29.11 59.9479 29.0368 60.0488 28.9717C60.1497 28.9066 60.2686 28.8496 60.4053 28.8008C60.5452 28.7487 60.6771 28.7227 60.8008 28.7227C61.0156 28.7227 61.1719 28.7585 61.2695 28.8301L60.957 29.4062L60.9082 29.3672C60.8757 29.3379 60.8203 29.3102 60.7422 29.2842C60.6673 29.2549 60.5859 29.2402 60.498 29.2402C60.2279 29.2402 59.9902 29.3314 59.7852 29.5137C59.5833 29.6927 59.4824 29.9076 59.4824 30.1582V33H58.9746ZM61.7773 34.2988C61.8783 34.2988 61.9678 34.2956 62.0459 34.2891C62.124 34.2826 62.1973 34.2663 62.2656 34.2402C62.334 34.2174 62.391 34.1963 62.4365 34.1768C62.4854 34.1572 62.5342 34.1198 62.583 34.0645C62.6351 34.0091 62.6758 33.9619 62.7051 33.9229C62.7344 33.887 62.7718 33.8236 62.8174 33.7324C62.8662 33.6413 62.9053 33.5648 62.9346 33.5029C62.9639 33.4443 63.0078 33.3499 63.0664 33.2197C63.1283 33.0895 63.1803 32.9805 63.2227 32.8926L61.377 28.791H61.9238L63.4961 32.248L64.4824 29.8555C64.554 29.6797 64.5996 29.5365 64.6191 29.4258C64.6354 29.3118 64.6257 29.2272 64.5898 29.1719C64.5573 29.1165 64.515 29.0791 64.4629 29.0596C64.4108 29.0368 64.3424 29.0254 64.2578 29.0254V28.7861L65.127 28.7812V28.9277C64.9414 29.3802 64.7347 29.8896 64.5068 30.4561C63.846 32.0967 63.4294 33.1025 63.2568 33.4736C62.9834 34.0693 62.736 34.4583 62.5146 34.6406C62.3356 34.7904 62.0898 34.8652 61.7773 34.8652V34.2988Z" fill="white"/>
</svg>
