<svg width="233" height="204" viewBox="0 0 233 204" fill="none" xmlns="http://www.w3.org/2000/svg">
<circle cx="116.5" cy="75" r="75" fill="#3D3D3D" fill-opacity="0.866667"/>
<path d="M88.1686 77.365C87.0486 77.365 85.9402 77.225 84.8436 76.945C83.7469 76.6883 82.7436 76.2683 81.8336 75.685C80.9236 75.1017 80.2002 74.355 79.6636 73.445C79.1269 72.535 78.8586 71.4383 78.8586 70.155C78.8586 68.9417 79.1036 67.775 79.5936 66.655C80.0836 65.535 80.7136 64.485 81.4836 63.505C82.2769 62.525 83.0936 61.65 83.9336 60.88C85.1236 59.8067 86.4769 58.7683 87.9936 57.765C89.5102 56.7617 91.1202 55.8633 92.8236 55.07C94.5502 54.2767 96.2886 53.6467 98.0386 53.18C99.7886 52.7133 101.469 52.48 103.079 52.48C103.779 52.48 104.537 52.585 105.354 52.795C106.194 53.005 106.905 53.355 107.489 53.845C108.095 54.335 108.399 55.0233 108.399 55.91C108.399 56.7033 108.13 57.485 107.594 58.255C107.057 59.025 106.345 59.7483 105.459 60.425C104.572 61.1017 103.592 61.7317 102.519 62.315C101.445 62.875 100.349 63.3767 99.2286 63.82C98.1319 64.24 97.0936 64.5783 96.1136 64.835C95.1336 65.0917 94.3052 65.255 93.6286 65.325C93.4652 65.3483 93.3019 65.36 93.1386 65.36C92.9752 65.36 92.8119 65.36 92.6486 65.36C92.5086 65.36 92.2169 65.3483 91.7736 65.325C91.3302 65.2783 90.9102 65.1967 90.5136 65.08C90.1169 64.9633 89.9186 64.7883 89.9186 64.555C89.9186 64.4383 89.9886 64.38 90.1286 64.38C90.2219 64.38 90.3386 64.4033 90.4786 64.45C90.6186 64.4967 90.7936 64.52 91.0036 64.52C91.5636 64.52 92.2869 64.38 93.1736 64.1C94.0602 63.82 95.0169 63.4467 96.0436 62.98C97.0936 62.49 98.1319 61.9417 99.1586 61.335C100.185 60.7283 101.13 60.0867 101.994 59.41C102.857 58.7333 103.545 58.0567 104.059 57.38C104.572 56.7033 104.829 56.0617 104.829 55.455C104.829 54.895 104.63 54.4867 104.234 54.23C103.837 53.95 103.37 53.7633 102.834 53.67C102.297 53.5767 101.83 53.53 101.434 53.53C99.9636 53.53 98.4469 53.7517 96.8836 54.195C95.3436 54.6383 93.8152 55.245 92.2986 56.015C90.8052 56.7617 89.3819 57.6017 88.0286 58.535C86.6986 59.4683 85.5086 60.425 84.4586 61.405C83.7352 62.0817 83.0119 62.8633 82.2886 63.75C81.5886 64.6133 81.0052 65.5467 80.5386 66.55C80.0719 67.53 79.8386 68.545 79.8386 69.595C79.8386 70.7617 80.1186 71.7417 80.6786 72.535C81.2386 73.3283 81.9619 73.97 82.8486 74.46C83.7586 74.9267 84.7386 75.265 85.7886 75.475C86.8386 75.685 87.8419 75.79 88.7986 75.79C89.4052 75.79 90.0119 75.7667 90.6186 75.72C91.2252 75.65 91.8202 75.5683 92.4036 75.475C93.9669 75.195 95.3902 74.8567 96.6736 74.46C97.9802 74.0633 99.2286 73.55 100.419 72.92C101.609 72.29 102.822 71.4733 104.059 70.47C104.152 70.4233 104.21 70.4 104.234 70.4C104.35 70.4 104.409 70.47 104.409 70.61C104.409 70.68 104.362 70.785 104.269 70.925C103.359 71.905 102.25 72.7917 100.944 73.585C99.6602 74.3783 98.2836 75.055 96.8136 75.615C95.3436 76.175 93.8619 76.6067 92.3686 76.91C90.8752 77.2133 89.4752 77.365 88.1686 77.365ZM110.98 65.29C110.653 65.29 110.408 65.185 110.245 64.975C110.081 64.765 110 64.5433 110 64.31C110 63.8433 110.221 63.3883 110.665 62.945C111.108 62.4783 111.575 62.245 112.065 62.245C112.391 62.245 112.636 62.35 112.8 62.56C112.963 62.77 113.045 62.9917 113.045 63.225C113.045 63.715 112.823 64.1817 112.38 64.625C111.96 65.0683 111.493 65.29 110.98 65.29ZM105.625 76.035C104.668 76.035 104.015 75.8367 103.665 75.44C103.338 75.02 103.175 74.5533 103.175 74.04C103.175 73.62 103.245 73.2233 103.385 72.85C103.525 72.4533 103.641 72.1733 103.735 72.01C103.875 71.7767 104.061 71.5083 104.295 71.205C104.551 70.9017 104.831 70.575 105.135 70.225C104.668 70.6217 104.225 71.0067 103.805 71.38C103.408 71.7533 103.081 72.0333 102.825 72.22C102.755 72.29 102.685 72.325 102.615 72.325C102.521 72.325 102.475 72.2667 102.475 72.15C102.475 71.9633 102.603 71.7767 102.86 71.59C103.466 71.0767 104.05 70.5167 104.61 69.91C105.193 69.3033 105.741 68.7433 106.255 68.23C106.768 67.6933 107.223 67.32 107.62 67.11C108.04 66.8767 108.378 66.725 108.635 66.655C108.891 66.585 109.101 66.55 109.265 66.55C109.521 66.55 109.708 66.5967 109.825 66.69C109.941 66.76 109.965 66.8417 109.895 66.935C109.498 67.3317 109.101 67.845 108.705 68.475C108.331 69.0817 107.981 69.7233 107.655 70.4C107.328 71.0767 107.06 71.7183 106.85 72.325C106.663 72.9317 106.57 73.445 106.57 73.865C106.57 74.4483 106.803 74.74 107.27 74.74C107.713 74.74 108.285 74.5417 108.985 74.145C109.708 73.725 110.455 73.2 111.225 72.57C112.018 71.94 112.753 71.3217 113.43 70.715C113.523 70.6217 113.605 70.575 113.675 70.575C113.791 70.575 113.85 70.6333 113.85 70.75C113.873 70.8667 113.85 70.9483 113.78 70.995C113.01 71.7183 112.135 72.4767 111.155 73.27C110.198 74.04 109.23 74.6933 108.25 75.23C107.293 75.7667 106.418 76.035 105.625 76.035ZM116.208 76.35C115.182 76.35 114.318 76.105 113.618 75.615C112.942 75.1017 112.603 74.3667 112.603 73.41C112.603 72.3833 112.848 71.4267 113.338 70.54C113.828 69.6533 114.482 68.8833 115.298 68.23C116.115 67.5533 117.002 67.0283 117.958 66.655C118.938 66.2817 119.907 66.095 120.863 66.095C121.82 66.095 122.532 66.27 122.998 66.62C123.465 66.9467 123.698 67.355 123.698 67.845C123.698 68.3117 123.477 68.8133 123.033 69.35C122.613 69.8633 121.995 70.3183 121.178 70.715C120.665 70.9483 120.07 71.1583 119.393 71.345C118.74 71.5083 118.168 71.59 117.678 71.59C117.305 71.59 117.118 71.5317 117.118 71.415C117.118 71.3217 117.282 71.275 117.608 71.275C117.912 71.275 118.378 71.1933 119.008 71.03C119.662 70.8433 120.292 70.5983 120.898 70.295C121.575 69.9217 122.053 69.5483 122.333 69.175C122.613 68.8017 122.753 68.4633 122.753 68.16C122.753 67.88 122.637 67.6467 122.403 67.46C122.193 67.2733 121.89 67.18 121.493 67.18C121.12 67.18 120.7 67.285 120.233 67.495C119.557 67.7983 118.857 68.3 118.133 69C117.433 69.6767 116.85 70.4233 116.383 71.24C115.917 72.0567 115.683 72.8383 115.683 73.585C115.683 74.0983 115.823 74.53 116.103 74.88C116.407 75.23 116.85 75.405 117.433 75.405C118.04 75.405 118.74 75.2183 119.533 74.845C120.327 74.4483 121.132 73.97 121.948 73.41C122.765 72.8267 123.523 72.2433 124.223 71.66C124.923 71.0767 125.483 70.5867 125.903 70.19C126.043 70.05 126.148 69.98 126.218 69.98C126.288 69.98 126.323 70.0383 126.323 70.155C126.323 70.3183 126.253 70.4583 126.113 70.575C125.227 71.3917 124.258 72.2433 123.208 73.13C122.182 74.0167 121.073 74.775 119.883 75.405C118.717 76.0117 117.492 76.3267 116.208 76.35ZM129.958 76.035C128.955 76.035 128.278 75.8483 127.928 75.475C127.578 75.0783 127.403 74.6467 127.403 74.18C127.403 73.5733 127.636 72.9317 128.103 72.255C128.383 71.8583 128.698 71.415 129.048 70.925C129.398 70.4117 129.725 69.9333 130.028 69.49C130.331 69.0467 130.541 68.7317 130.658 68.545C130.821 68.3117 130.915 68.16 130.938 68.09C130.985 67.9967 131.008 67.9033 131.008 67.81C131.008 67.67 130.915 67.5417 130.728 67.425C130.565 67.285 130.285 67.215 129.888 67.215C129.771 67.215 129.666 67.2267 129.573 67.25C129.503 67.25 129.421 67.25 129.328 67.25C129.141 67.25 129.036 67.2383 129.013 67.215L128.908 67.355C128.255 68.2183 127.555 69.07 126.808 69.91C126.061 70.7267 125.245 71.485 124.358 72.185C124.265 72.255 124.195 72.29 124.148 72.29C124.055 72.29 124.008 72.2433 124.008 72.15C124.008 71.9633 124.148 71.7533 124.428 71.52C125.151 70.9133 125.863 70.2367 126.563 69.49C127.263 68.72 127.893 67.915 128.453 67.075C128.243 66.935 128.138 66.655 128.138 66.235C128.138 65.605 128.336 64.9283 128.733 64.205C129.013 63.715 129.316 63.3533 129.643 63.12C129.993 62.8633 130.296 62.735 130.553 62.735C131.043 62.735 131.288 63.0267 131.288 63.61C131.288 63.9833 131.148 64.45 130.868 65.01C130.751 65.29 130.518 65.6517 130.168 66.095C129.841 66.515 129.515 66.8183 129.188 67.005C129.678 66.8417 130.296 66.7367 131.043 66.69C131.813 66.62 132.455 66.585 132.968 66.585C133.271 66.585 133.645 66.6783 134.088 66.865C134.531 67.0283 134.753 67.3317 134.753 67.775C134.753 68.0783 134.613 68.405 134.333 68.755C134.263 68.8483 134.076 69.07 133.773 69.42C133.47 69.77 133.131 70.19 132.758 70.68C132.408 71.17 132.081 71.66 131.778 72.15C131.475 72.5933 131.23 73.0017 131.043 73.375C130.88 73.7483 130.798 74.0633 130.798 74.32C130.798 74.6933 131.008 74.88 131.428 74.88C131.918 74.88 132.571 74.6467 133.388 74.18C134.205 73.7133 135.08 73.1183 136.013 72.395C136.97 71.6483 137.845 70.8783 138.638 70.085C138.731 69.9917 138.813 69.945 138.883 69.945C138.976 69.945 139.023 70.0033 139.023 70.12C139.023 70.26 138.965 70.3883 138.848 70.505C138.031 71.3217 137.121 72.1617 136.118 73.025C135.138 73.865 134.111 74.5767 133.038 75.16C131.988 75.7433 130.961 76.035 129.958 76.035ZM139.279 76.035C138.556 76.035 137.996 75.8133 137.599 75.37C137.203 74.9033 137.004 74.3083 137.004 73.585C137.004 72.9083 137.179 72.1617 137.529 71.345C137.903 70.5283 138.486 69.7 139.279 68.86C140.096 67.9733 141.111 67.2617 142.324 66.725C143.538 66.165 144.693 65.885 145.789 65.885C146.676 65.885 147.434 66.0833 148.064 66.48C148.694 66.8533 149.114 67.3317 149.324 67.915C149.581 67.915 149.896 67.985 150.269 68.125C150.666 68.265 150.864 68.5217 150.864 68.895C150.864 69.1517 150.736 69.4433 150.479 69.77C150.316 70.0033 150.024 70.3533 149.604 70.82C149.208 71.2867 148.834 71.7883 148.484 72.325C148.204 72.745 147.983 73.1417 147.819 73.515C147.656 73.865 147.574 74.1683 147.574 74.425C147.574 74.775 147.749 74.95 148.099 74.95C148.496 74.95 149.091 74.7283 149.884 74.285C150.748 73.795 151.576 73.235 152.369 72.605C153.163 71.975 153.781 71.4733 154.224 71.1C154.341 71.0067 154.423 70.96 154.469 70.96C154.563 70.96 154.609 71.0183 154.609 71.135C154.609 71.275 154.551 71.4033 154.434 71.52C154.224 71.7067 153.816 72.0567 153.209 72.57C152.603 73.0833 151.903 73.62 151.109 74.18C150.339 74.74 149.581 75.195 148.834 75.545C148.461 75.7083 148.111 75.8367 147.784 75.93C147.481 76 147.201 76.035 146.944 76.035C146.314 76.035 145.836 75.86 145.509 75.51C145.183 75.1367 145.019 74.6583 145.019 74.075C145.019 73.8417 145.054 73.5967 145.124 73.34C145.194 73.0833 145.276 72.8267 145.369 72.57L145.614 71.975C145.008 72.7217 144.401 73.3517 143.794 73.865C143.188 74.355 142.581 74.7867 141.974 75.16C141.461 75.4633 140.971 75.685 140.504 75.825C140.061 75.965 139.653 76.035 139.279 76.035ZM140.364 75.125C140.784 75.125 141.391 74.88 142.184 74.39C142.978 73.8767 143.899 73.095 144.949 72.045C145.089 71.905 145.346 71.66 145.719 71.31C146.116 70.9367 146.536 70.5283 146.979 70.085C147.423 69.6183 147.796 69.1633 148.099 68.72C148.426 68.2533 148.589 67.8683 148.589 67.565C148.589 67.1217 148.204 66.9 147.434 66.9C146.758 66.9 145.941 67.1683 144.984 67.705C144.051 68.2183 143.153 68.9883 142.289 70.015C141.403 71.065 140.749 71.975 140.329 72.745C139.933 73.4917 139.734 74.0633 139.734 74.46C139.734 74.9033 139.944 75.125 140.364 75.125Z" fill="white"/>
<path d="M73.6724 92.3027C73.7358 92.3516 73.7676 92.3809 73.7676 92.3906C73.7676 92.4004 73.8359 93.0693 73.9727 94.3975H73.5771C73.377 93.6504 73.0669 93.0669 72.647 92.647C72.2319 92.2222 71.707 92.0098 71.0723 92.0098C70.4668 92.0098 70.0005 92.1929 69.6733 92.5591C69.3462 92.9204 69.1826 93.3428 69.1826 93.8262C69.1826 94.1143 69.2437 94.3804 69.3657 94.6245C69.4878 94.8638 69.6514 95.0713 69.8564 95.2471C70.0615 95.418 70.2959 95.5815 70.5596 95.7378C70.8281 95.894 71.1089 96.043 71.4019 96.1846C71.6948 96.3213 71.9878 96.4629 72.2808 96.6094C72.5737 96.751 72.8521 96.9121 73.1157 97.0928C73.3843 97.2734 73.6211 97.4688 73.8262 97.6787C74.0312 97.8887 74.1948 98.1426 74.3169 98.4404C74.439 98.7383 74.5 99.0654 74.5 99.4219C74.5 100.257 74.1948 100.923 73.5845 101.421C72.9741 101.915 72.166 102.161 71.1602 102.161C70.5986 102.161 70.0273 102.042 69.4463 101.802C68.8652 101.563 68.3818 101.272 67.9961 100.931L68.626 100.242C69.3975 100.916 70.2959 101.253 71.3213 101.253C71.9463 101.253 72.4688 101.097 72.8887 100.784C73.3086 100.467 73.5186 100.022 73.5186 99.4512C73.5186 99.124 73.4209 98.8286 73.2256 98.5649C73.0352 98.2964 72.7861 98.0669 72.4785 97.8765C72.1709 97.686 71.8315 97.5029 71.4604 97.3271C71.0894 97.1465 70.7183 96.9585 70.3472 96.7632C69.9761 96.563 69.6367 96.3481 69.3291 96.1187C69.0215 95.8843 68.77 95.5938 68.5747 95.2471C68.3843 94.8955 68.2891 94.5049 68.2891 94.0752C68.2891 93.3574 68.5601 92.7666 69.1021 92.3027C69.644 91.834 70.3447 91.5996 71.2041 91.5996C71.5361 91.5996 71.8511 91.6265 72.1489 91.6802C72.4517 91.7339 72.6958 91.7998 72.8813 91.8779C73.0718 91.9512 73.2354 92.0293 73.3721 92.1123C73.5137 92.1904 73.6138 92.2539 73.6724 92.3027ZM76.5654 95.6865L78.5283 100.872L80.2422 96.9609L79.7881 95.6865H80.5498L82.5127 100.887L84.0947 97.2686C84.2021 97.0244 84.2681 96.8169 84.2925 96.646C84.3218 96.4751 84.3096 96.3481 84.2559 96.2651C84.207 96.1821 84.1411 96.1235 84.0581 96.0894C83.9751 96.0552 83.8701 96.0381 83.7432 96.0381V95.6865H85.0762V95.9062L82.4834 102H82.1758L80.4326 97.4004L78.4404 102H78.1621L75.7744 95.6865H76.5654ZM88.7969 95.6865C89.085 95.6865 89.3486 95.7183 89.5879 95.7817C89.8271 95.8452 90.0298 95.9258 90.1958 96.0234C90.3618 96.1211 90.5083 96.2407 90.6353 96.3823C90.7671 96.5239 90.8696 96.6655 90.9429 96.8071C91.021 96.9438 91.0869 97.0928 91.1406 97.2539C91.1943 97.415 91.231 97.5542 91.2505 97.6714C91.27 97.7886 91.2847 97.9082 91.2944 98.0303C91.3042 98.1523 91.3066 98.2329 91.3018 98.272C91.3018 98.311 91.3018 98.3428 91.3018 98.3672H86.9805C86.9756 98.4697 86.9731 98.5698 86.9731 98.6675C86.9731 99.4585 87.1343 100.076 87.4565 100.521C87.8179 101.019 88.3379 101.268 89.0166 101.268C89.2119 101.268 89.4072 101.231 89.6025 101.158C89.8027 101.084 89.9688 101.004 90.1006 100.916C90.2324 100.823 90.3594 100.718 90.4814 100.601C90.6035 100.484 90.6816 100.403 90.7158 100.359C90.7549 100.311 90.7842 100.271 90.8037 100.242L91.3164 100.696L91.2212 100.828C91.1577 100.921 91.0552 101.031 90.9136 101.158C90.7769 101.285 90.6157 101.412 90.4302 101.539C90.2495 101.666 90.02 101.775 89.7417 101.868C89.4634 101.956 89.1729 102 88.8701 102C88.0742 102 87.4248 101.697 86.9219 101.092C86.4238 100.486 86.1748 99.7344 86.1748 98.8359C86.1748 97.9082 86.4214 97.1514 86.9146 96.5654C87.4077 95.9795 88.0352 95.6865 88.7969 95.6865ZM87.0098 98.0742H90.5254C90.5254 97.9863 90.5156 97.8765 90.4961 97.7446C90.4814 97.6128 90.4375 97.4395 90.3643 97.2246C90.2959 97.0049 90.2031 96.8071 90.0859 96.6313C89.9736 96.4556 89.8052 96.3042 89.5806 96.1772C89.356 96.0454 89.0947 95.9795 88.7969 95.9795C88.5039 95.9795 88.2427 96.0454 88.0132 96.1772C87.7886 96.3091 87.6152 96.4629 87.4932 96.6387C87.376 96.8096 87.2783 97.0049 87.2002 97.2246C87.1221 97.4443 87.0708 97.6177 87.0464 97.7446C87.0269 97.8716 87.0146 97.9814 87.0098 98.0742ZM95.2129 95.6865C95.501 95.6865 95.7646 95.7183 96.0039 95.7817C96.2432 95.8452 96.4458 95.9258 96.6118 96.0234C96.7778 96.1211 96.9243 96.2407 97.0513 96.3823C97.1831 96.5239 97.2856 96.6655 97.3589 96.8071C97.437 96.9438 97.5029 97.0928 97.5566 97.2539C97.6104 97.415 97.647 97.5542 97.6665 97.6714C97.686 97.7886 97.7007 97.9082 97.7104 98.0303C97.7202 98.1523 97.7227 98.2329 97.7178 98.272C97.7178 98.311 97.7178 98.3428 97.7178 98.3672H93.3965C93.3916 98.4697 93.3892 98.5698 93.3892 98.6675C93.3892 99.4585 93.5503 100.076 93.8726 100.521C94.2339 101.019 94.7539 101.268 95.4326 101.268C95.6279 101.268 95.8232 101.231 96.0186 101.158C96.2188 101.084 96.3848 101.004 96.5166 100.916C96.6484 100.823 96.7754 100.718 96.8975 100.601C97.0195 100.484 97.0977 100.403 97.1318 100.359C97.1709 100.311 97.2002 100.271 97.2197 100.242L97.7324 100.696L97.6372 100.828C97.5737 100.921 97.4712 101.031 97.3296 101.158C97.1929 101.285 97.0317 101.412 96.8462 101.539C96.6655 101.666 96.436 101.775 96.1577 101.868C95.8794 101.956 95.5889 102 95.2861 102C94.4902 102 93.8408 101.697 93.3379 101.092C92.8398 100.486 92.5908 99.7344 92.5908 98.8359C92.5908 97.9082 92.8374 97.1514 93.3306 96.5654C93.8237 95.9795 94.4512 95.6865 95.2129 95.6865ZM93.4258 98.0742H96.9414C96.9414 97.9863 96.9316 97.8765 96.9121 97.7446C96.8975 97.6128 96.8535 97.4395 96.7803 97.2246C96.7119 97.0049 96.6191 96.8071 96.502 96.6313C96.3896 96.4556 96.2212 96.3042 95.9966 96.1772C95.772 96.0454 95.5107 95.9795 95.2129 95.9795C94.9199 95.9795 94.6587 96.0454 94.4292 96.1772C94.2046 96.3091 94.0312 96.4629 93.9092 96.6387C93.792 96.8096 93.6943 97.0049 93.6162 97.2246C93.5381 97.4443 93.4868 97.6177 93.4624 97.7446C93.4429 97.8716 93.4307 97.9814 93.4258 98.0742ZM100.34 94.0459V95.7012H102.273V96.0234H100.34V100.198C100.34 100.32 100.34 100.42 100.34 100.499C100.345 100.577 100.352 100.672 100.362 100.784C100.376 100.892 100.396 100.979 100.42 101.048C100.445 101.111 100.477 101.177 100.516 101.246C100.56 101.314 100.616 101.365 100.684 101.399C100.752 101.429 100.833 101.443 100.926 101.443C101.097 101.443 101.309 101.387 101.563 101.275C101.822 101.158 102.005 101.065 102.112 100.997C102.225 100.928 102.312 100.872 102.376 100.828L102.493 101.077L102.2 101.312C102 101.473 101.751 101.629 101.453 101.78C101.16 101.937 100.916 102.015 100.721 102.015C99.9785 102.015 99.6074 101.478 99.6074 100.403V96.0234H98.6846V95.7012H99.6074V94.0459H100.34ZM103.284 101.15L103.709 100.638C103.729 100.657 103.755 100.684 103.79 100.718C103.829 100.752 103.912 100.813 104.039 100.901C104.166 100.984 104.297 101.06 104.434 101.128C104.571 101.192 104.744 101.25 104.954 101.304C105.169 101.358 105.384 101.385 105.599 101.385C106.023 101.385 106.351 101.28 106.58 101.07C106.814 100.855 106.932 100.608 106.932 100.33C106.932 100.159 106.871 100 106.749 99.854C106.626 99.7075 106.465 99.5806 106.265 99.4731C106.07 99.3657 105.853 99.2607 105.613 99.1582C105.379 99.0508 105.142 98.936 104.903 98.814C104.668 98.6919 104.451 98.5576 104.251 98.4111C104.056 98.2646 103.897 98.084 103.775 97.8691C103.653 97.6543 103.592 97.415 103.592 97.1514C103.592 96.7119 103.76 96.3384 104.097 96.0308C104.434 95.7231 104.905 95.5693 105.511 95.5693C105.828 95.5693 106.136 95.6035 106.434 95.6719C106.736 95.7402 106.958 95.8086 107.1 95.877L107.312 95.9795V97.3857H107.02C107.015 97.3467 107.005 97.2954 106.99 97.2319C106.98 97.1636 106.939 97.0439 106.866 96.873C106.797 96.7021 106.709 96.5532 106.602 96.4263C106.5 96.2944 106.343 96.1748 106.133 96.0674C105.928 95.96 105.691 95.9062 105.423 95.9062C105.081 95.9062 104.8 96.0039 104.581 96.1992C104.361 96.3896 104.251 96.6533 104.251 96.9902C104.251 97.2051 104.312 97.4004 104.434 97.5762C104.561 97.752 104.722 97.9009 104.917 98.0229C105.118 98.1401 105.337 98.2549 105.577 98.3672C105.821 98.4795 106.062 98.5942 106.302 98.7114C106.546 98.8286 106.766 98.9556 106.961 99.0923C107.161 99.2241 107.322 99.3926 107.444 99.5977C107.571 99.7979 107.635 100.022 107.635 100.271C107.635 100.804 107.437 101.236 107.042 101.568C106.646 101.895 106.165 102.059 105.599 102.059C105.311 102.059 105.032 102.027 104.764 101.963C104.5 101.9 104.28 101.824 104.104 101.736C103.934 101.648 103.782 101.561 103.65 101.473C103.523 101.385 103.431 101.309 103.372 101.246L103.284 101.15ZM116.644 93.0938C116.888 93.0938 117.12 93.123 117.339 93.1816C117.559 93.2354 117.764 93.3232 117.955 93.4453C118.145 93.5625 118.296 93.731 118.409 93.9507C118.521 94.1704 118.577 94.4268 118.577 94.7197C118.577 94.9346 118.541 95.1372 118.467 95.3276C118.394 95.5132 118.301 95.6768 118.189 95.8184C118.082 95.9551 117.938 96.0942 117.757 96.2358C117.576 96.3726 117.405 96.4897 117.244 96.5874C117.083 96.6802 116.885 96.7852 116.651 96.9023L117.801 98.2793C118.226 98.7969 118.592 99.2241 118.899 99.561C119.437 98.8872 119.798 98.1719 119.983 97.415H120.818C120.569 98.3867 120.108 99.29 119.434 100.125C120.215 100.916 120.813 101.312 121.229 101.312C121.38 101.312 121.519 101.287 121.646 101.238C121.773 101.185 121.854 101.143 121.888 101.114C121.922 101.08 121.946 101.053 121.961 101.033L122.137 101.165L122.078 101.253C122.044 101.307 121.988 101.375 121.91 101.458C121.832 101.541 121.741 101.624 121.639 101.707C121.541 101.79 121.417 101.861 121.265 101.919C121.114 101.973 120.96 102 120.804 102C120.325 102 119.671 101.59 118.841 100.77C117.933 101.619 116.976 102.044 115.97 102.044C115.237 102.044 114.617 101.819 114.109 101.37C113.602 100.921 113.348 100.345 113.348 99.6416C113.348 99.3438 113.392 99.0703 113.479 98.8213C113.572 98.5723 113.68 98.3672 113.802 98.2061C113.929 98.04 114.104 97.8765 114.329 97.7153C114.554 97.5542 114.749 97.4297 114.915 97.3418C115.086 97.2539 115.311 97.1465 115.589 97.0195C115.267 96.5947 115.025 96.2139 114.864 95.877C114.703 95.54 114.622 95.2031 114.622 94.8662C114.622 94.4219 114.822 94.0166 115.223 93.6504C115.628 93.2793 116.102 93.0938 116.644 93.0938ZM117.039 98.748C116.409 98.0156 116.006 97.5396 115.831 97.3198C115.572 97.4565 115.35 97.5908 115.164 97.7227C114.983 97.8496 114.81 97.9937 114.644 98.1548C114.478 98.311 114.351 98.4941 114.263 98.7041C114.18 98.9092 114.139 99.1338 114.139 99.3779C114.139 99.6123 114.173 99.8369 114.241 100.052C114.31 100.267 114.415 100.469 114.556 100.66C114.703 100.845 114.903 100.994 115.157 101.106C115.411 101.214 115.706 101.268 116.043 101.268C116.795 101.268 117.549 100.914 118.306 100.206C117.994 99.8638 117.571 99.3779 117.039 98.748ZM115.398 94.4561C115.398 94.7734 115.481 95.1006 115.647 95.4375C115.813 95.7695 116.072 96.1626 116.424 96.6167C116.849 96.3872 117.176 96.1309 117.405 95.8477C117.64 95.5596 117.757 95.1934 117.757 94.749C117.757 93.8408 117.352 93.3867 116.541 93.3867C116.229 93.3867 115.96 93.4844 115.735 93.6797C115.511 93.8701 115.398 94.1289 115.398 94.4561ZM133.379 92.3027C133.443 92.3516 133.475 92.3809 133.475 92.3906C133.475 92.4004 133.543 93.0693 133.68 94.3975H133.284C133.084 93.6504 132.774 93.0669 132.354 92.647C131.939 92.2222 131.414 92.0098 130.779 92.0098C130.174 92.0098 129.708 92.1929 129.38 92.5591C129.053 92.9204 128.89 93.3428 128.89 93.8262C128.89 94.1143 128.951 94.3804 129.073 94.6245C129.195 94.8638 129.358 95.0713 129.563 95.2471C129.769 95.418 130.003 95.5815 130.267 95.7378C130.535 95.894 130.816 96.043 131.109 96.1846C131.402 96.3213 131.695 96.4629 131.988 96.6094C132.281 96.751 132.559 96.9121 132.823 97.0928C133.091 97.2734 133.328 97.4688 133.533 97.6787C133.738 97.8887 133.902 98.1426 134.024 98.4404C134.146 98.7383 134.207 99.0654 134.207 99.4219C134.207 100.257 133.902 100.923 133.292 101.421C132.681 101.915 131.873 102.161 130.867 102.161C130.306 102.161 129.734 102.042 129.153 101.802C128.572 101.563 128.089 101.272 127.703 100.931L128.333 100.242C129.104 100.916 130.003 101.253 131.028 101.253C131.653 101.253 132.176 101.097 132.596 100.784C133.016 100.467 133.226 100.022 133.226 99.4512C133.226 99.124 133.128 98.8286 132.933 98.5649C132.742 98.2964 132.493 98.0669 132.186 97.8765C131.878 97.686 131.539 97.5029 131.167 97.3271C130.796 97.1465 130.425 96.9585 130.054 96.7632C129.683 96.563 129.344 96.3481 129.036 96.1187C128.729 95.8843 128.477 95.5938 128.282 95.2471C128.091 94.8955 127.996 94.5049 127.996 94.0752C127.996 93.3574 128.267 92.7666 128.809 92.3027C129.351 91.834 130.052 91.5996 130.911 91.5996C131.243 91.5996 131.558 91.6265 131.856 91.6802C132.159 91.7339 132.403 91.7998 132.588 91.8779C132.779 91.9512 132.942 92.0293 133.079 92.1123C133.221 92.1904 133.321 92.2539 133.379 92.3027ZM138.309 95.6133C138.685 95.6133 139.009 95.6499 139.283 95.7231C139.556 95.7964 139.769 95.8892 139.92 96.0015C140.076 96.1138 140.198 96.2603 140.286 96.4409C140.379 96.6216 140.438 96.7974 140.462 96.9683C140.491 97.1392 140.506 97.3418 140.506 97.5762V102H139.847L139.773 100.828C139.534 101.214 139.2 101.512 138.77 101.722C138.34 101.927 137.952 102.029 137.605 102.029C137.132 102.029 136.719 101.893 136.368 101.619C136.021 101.341 135.848 100.921 135.848 100.359C135.848 100.052 135.906 99.7783 136.023 99.5391C136.141 99.2998 136.307 99.1069 136.521 98.9604C136.736 98.814 136.966 98.6919 137.21 98.5942C137.454 98.4966 137.737 98.4258 138.06 98.3818C138.382 98.333 138.67 98.3013 138.924 98.2866C139.183 98.272 139.466 98.2646 139.773 98.2646C139.773 98.2256 139.769 98.0059 139.759 97.6055C139.754 97.3906 139.734 97.2124 139.7 97.0708C139.666 96.9292 139.6 96.7949 139.502 96.668C139.405 96.5361 139.256 96.4409 139.056 96.3823C138.86 96.3188 138.611 96.2871 138.309 96.2871C137.742 96.2871 137.176 96.4043 136.609 96.6387L136.478 96.0088L136.69 95.9062C136.832 95.8428 137.054 95.7793 137.356 95.7158C137.664 95.6475 137.981 95.6133 138.309 95.6133ZM139.773 99.832C139.773 99.832 139.773 99.417 139.773 98.5869C137.693 98.5869 136.653 99.1484 136.653 100.271C136.653 100.652 136.768 100.96 136.998 101.194C137.232 101.429 137.542 101.546 137.928 101.546C138.401 101.546 138.826 101.365 139.202 101.004C139.583 100.638 139.773 100.247 139.773 99.832ZM142.425 95.6865L144.754 101.004L146.321 97.1807C146.434 96.9121 146.49 96.6899 146.49 96.5142C146.485 96.1968 146.302 96.0381 145.94 96.0381V95.6865H147.244V95.9062L144.754 102H144.329L141.634 95.6865H142.425ZM150.95 95.4668C151.819 95.4668 152.5 95.772 152.994 96.3823C153.487 96.9927 153.733 97.7764 153.733 98.7334C153.733 99.1973 153.675 99.6294 153.558 100.03C153.445 100.425 153.279 100.779 153.06 101.092C152.84 101.399 152.549 101.644 152.188 101.824C151.832 102 151.424 102.088 150.965 102.088C150.501 102.088 150.088 102 149.727 101.824C149.366 101.644 149.075 101.399 148.855 101.092C148.636 100.779 148.467 100.425 148.35 100.03C148.238 99.6294 148.182 99.1973 148.182 98.7334C148.182 97.7764 148.426 96.9927 148.914 96.3823C149.407 95.772 150.086 95.4668 150.95 95.4668ZM150.965 101.736C151.233 101.736 151.482 101.685 151.712 101.583C151.946 101.48 152.164 101.319 152.364 101.099C152.564 100.879 152.723 100.569 152.84 100.169C152.957 99.7637 153.016 99.29 153.016 98.748C153.016 97.9717 152.818 97.3613 152.422 96.917C152.032 96.4678 151.551 96.2432 150.979 96.2432C150.403 96.2432 149.917 96.4678 149.522 96.917C149.126 97.3613 148.929 97.9717 148.929 98.748C148.929 99.1875 148.968 99.5806 149.046 99.9272C149.124 100.274 149.227 100.56 149.354 100.784C149.485 101.004 149.639 101.187 149.815 101.333C149.996 101.48 150.179 101.585 150.364 101.648C150.555 101.707 150.755 101.736 150.965 101.736ZM155.462 102V97.2246C155.462 96.8047 155.379 96.3848 155.213 95.9648L155.931 95.6719C156.004 95.8428 156.092 96.1846 156.194 96.6973C156.224 96.6631 156.268 96.6167 156.326 96.5581C156.385 96.4995 156.485 96.4092 156.626 96.2871C156.773 96.165 156.922 96.0552 157.073 95.9575C157.225 95.8599 157.403 95.7744 157.608 95.7012C157.818 95.623 158.016 95.584 158.201 95.584C158.523 95.584 158.758 95.6377 158.904 95.7451L158.436 96.6094L158.362 96.5508C158.313 96.5068 158.23 96.4653 158.113 96.4263C158.001 96.3823 157.879 96.3604 157.747 96.3604C157.342 96.3604 156.985 96.4971 156.678 96.7705C156.375 97.0391 156.224 97.3613 156.224 97.7373V102H155.462ZM159.666 103.948C159.817 103.948 159.952 103.943 160.069 103.934C160.186 103.924 160.296 103.899 160.398 103.86C160.501 103.826 160.586 103.794 160.655 103.765C160.728 103.736 160.801 103.68 160.875 103.597C160.953 103.514 161.014 103.443 161.058 103.384C161.102 103.331 161.158 103.235 161.226 103.099C161.299 102.962 161.358 102.847 161.402 102.754C161.446 102.667 161.512 102.525 161.6 102.33C161.692 102.134 161.771 101.971 161.834 101.839L159.065 95.6865H159.886L162.244 100.872L163.724 97.2832C163.831 97.0195 163.899 96.8047 163.929 96.6387C163.953 96.4678 163.938 96.3408 163.885 96.2578C163.836 96.1748 163.772 96.1187 163.694 96.0894C163.616 96.0552 163.514 96.0381 163.387 96.0381V95.6792L164.69 95.6719V95.8916C164.412 96.5703 164.102 97.3345 163.76 98.1841C162.769 100.645 162.144 102.154 161.885 102.71C161.475 103.604 161.104 104.188 160.772 104.461C160.503 104.686 160.135 104.798 159.666 104.798V103.948Z" fill="white"/>
<rect x="0.5" y="172" width="232" height="32" rx="16" fill="#3D3D3D"/>
<path d="M24.9199 184.678C24.6895 184.537 24.3867 184.467 24.0117 184.467C23.6367 184.467 23.293 184.543 22.9805 184.695C22.6758 184.848 22.4102 185.064 22.1836 185.346C21.707 185.943 21.4668 186.721 21.4629 187.678C21.4629 189.658 21.9492 190.902 22.9219 191.41C23.2305 191.574 23.5449 191.656 23.8652 191.656C23.8691 191.656 23.873 191.654 23.877 191.65C24.1973 191.65 24.4512 191.625 24.6387 191.574C24.8301 191.523 25.002 191.463 25.1543 191.393C25.3066 191.318 25.4414 191.242 25.5586 191.164C25.7852 191.008 25.9277 190.93 25.9863 190.93C26.041 190.93 26.0957 190.951 26.1504 190.994C26.2051 191.037 26.2559 191.09 26.3027 191.152C26.4082 191.289 26.4609 191.408 26.4609 191.51C26.4609 191.615 26.4238 191.701 26.3496 191.768C26.2793 191.83 26.168 191.912 26.0156 192.014C25.8672 192.111 25.6836 192.205 25.4648 192.295C24.9375 192.51 24.3965 192.617 23.8418 192.617C23.2871 192.617 22.7891 192.531 22.3477 192.359C21.9102 192.184 21.5234 191.914 21.1875 191.551C20.4609 190.762 20.0977 189.645 20.0977 188.199C20.0977 186.691 20.4766 185.527 21.2344 184.707C21.9375 183.945 22.8711 183.564 24.0352 183.564H24.0527C24.666 183.564 25.2285 183.713 25.7402 184.01C26.3066 184.338 26.5898 184.744 26.5898 185.229C26.5898 185.479 26.5039 185.693 26.332 185.873C26.1641 186.045 25.9512 186.131 25.6934 186.131C25.4395 186.131 25.2266 186.045 25.0547 185.873C24.8789 185.697 24.791 185.49 24.791 185.252C24.791 185.018 24.834 184.826 24.9199 184.678ZM29.9941 192.617C29.5762 192.617 29.209 192.539 28.8926 192.383C28.5762 192.227 28.3086 192.008 28.0898 191.727C27.6523 191.16 27.4336 190.418 27.4336 189.5C27.4336 188.539 27.7305 187.789 28.3242 187.25C28.8633 186.762 29.543 186.518 30.3633 186.518H30.3809C31.1465 186.518 31.7617 186.809 32.2266 187.391C32.6719 187.945 32.8945 188.664 32.8945 189.547C32.8945 190.531 32.6211 191.297 32.0742 191.844C31.5586 192.359 30.8652 192.617 29.9941 192.617ZM29.1445 187.83C28.9961 187.986 28.873 188.201 28.7754 188.475C28.6816 188.744 28.6348 189.076 28.6348 189.471C28.6348 189.869 28.6719 190.207 28.7461 190.484C28.8242 190.758 28.9297 190.984 29.0625 191.164C29.332 191.531 29.7051 191.715 30.1816 191.715C30.6738 191.715 31.0547 191.5 31.3242 191.07C31.5703 190.68 31.6934 190.168 31.6934 189.535C31.6895 188.477 31.3789 187.812 30.7617 187.543C30.5742 187.461 30.3848 187.42 30.1934 187.42C29.998 187.42 29.8105 187.449 29.6309 187.508C29.4551 187.566 29.293 187.674 29.1445 187.83ZM33.8379 192.5C33.7324 192.5 33.6797 192.381 33.6797 192.143C33.6797 191.955 33.709 191.83 33.7676 191.768C33.8262 191.705 33.877 191.674 33.9199 191.674H33.9785C34.4316 191.674 34.6895 191.629 34.752 191.539C34.7754 191.508 34.7871 191.469 34.7871 191.422V187.537H33.668C33.668 187.107 33.6934 186.85 33.7441 186.764C33.7988 186.678 33.8574 186.635 33.9199 186.635H33.9785C34.4316 186.635 34.6895 186.59 34.752 186.5C34.7754 186.469 34.7871 186.43 34.7871 186.383V185.645C34.7871 184.52 35.1367 183.779 35.8359 183.424C36.0938 183.291 36.3574 183.225 36.627 183.225C36.8965 183.225 37.1055 183.238 37.2539 183.266C37.4023 183.293 37.5352 183.344 37.6523 183.418C37.9258 183.586 38.0625 183.846 38.0625 184.197C38.0625 184.428 37.9844 184.621 37.8281 184.777C37.6797 184.926 37.4902 185 37.2598 185C36.8965 185 36.6484 184.84 36.5156 184.52C36.4766 184.422 36.457 184.314 36.457 184.197V184.01H36.4512C36.1348 184.01 35.9648 184.34 35.9414 185C35.9336 185.188 35.9297 185.375 35.9297 185.562V186.635H37.5059C37.6035 186.635 37.6523 186.75 37.6523 186.98C37.6523 187.207 37.6055 187.375 37.5117 187.484C37.4844 187.52 37.4473 187.537 37.4004 187.537H35.9297V191.674H37.2539C37.3594 191.674 37.4121 191.793 37.4121 192.031C37.4121 192.219 37.3828 192.344 37.3242 192.406C37.2656 192.469 37.2148 192.5 37.1719 192.5H33.8379ZM38.4785 192.5C38.373 192.5 38.3203 192.381 38.3203 192.143C38.3203 191.955 38.3496 191.83 38.4082 191.768C38.4668 191.705 38.5176 191.674 38.5605 191.674H38.6191C39.0723 191.674 39.3301 191.629 39.3926 191.539C39.416 191.508 39.4277 191.469 39.4277 191.422V187.537H38.3086C38.3086 187.107 38.334 186.85 38.3848 186.764C38.4395 186.678 38.498 186.635 38.5605 186.635H38.6191C39.0723 186.635 39.3301 186.59 39.3926 186.5C39.416 186.469 39.4277 186.43 39.4277 186.383V185.645C39.4277 184.52 39.7773 183.779 40.4766 183.424C40.7344 183.291 40.998 183.225 41.2676 183.225C41.5371 183.225 41.7461 183.238 41.8945 183.266C42.043 183.293 42.1758 183.344 42.293 183.418C42.5664 183.586 42.7031 183.846 42.7031 184.197C42.7031 184.428 42.625 184.621 42.4688 184.777C42.3203 184.926 42.1309 185 41.9004 185C41.5371 185 41.2891 184.84 41.1562 184.52C41.1172 184.422 41.0977 184.314 41.0977 184.197V184.01H41.0918C40.7754 184.01 40.6055 184.34 40.582 185C40.5742 185.188 40.5703 185.375 40.5703 185.562V186.635H42.1465C42.2441 186.635 42.293 186.75 42.293 186.98C42.293 187.207 42.2461 187.375 42.1523 187.484C42.125 187.52 42.0879 187.537 42.041 187.537H40.5703V191.674H41.8945C42 191.674 42.0527 191.793 42.0527 192.031C42.0527 192.219 42.0234 192.344 41.9648 192.406C41.9062 192.469 41.8555 192.5 41.8125 192.5H38.4785ZM42.9551 189.488C42.9551 189.004 43.0352 188.574 43.1953 188.199C43.3516 187.832 43.5625 187.523 43.8281 187.273C44.3672 186.773 45.0332 186.521 45.8262 186.518H45.8438C46.5703 186.518 47.1309 186.746 47.5254 187.203C47.9199 187.656 48.1172 188.311 48.1172 189.166C48.1172 189.35 48.0332 189.508 47.8652 189.641C47.7012 189.77 47.4941 189.834 47.2441 189.834H44.1562C44.2266 190.748 44.5449 191.334 45.1113 191.592C45.291 191.674 45.4805 191.715 45.6797 191.715C45.8789 191.715 46.0566 191.693 46.2129 191.65C46.3691 191.604 46.5195 191.547 46.6641 191.48C46.8086 191.41 46.9492 191.332 47.0859 191.246C47.3711 191.066 47.5391 190.977 47.5898 190.977C47.6367 190.98 47.6875 191.004 47.7422 191.047C47.7891 191.094 47.8359 191.148 47.8828 191.211C47.9844 191.359 48.0371 191.484 48.041 191.586V191.598C48.041 191.691 48.0195 191.754 47.9766 191.785C47.2617 192.34 46.4492 192.617 45.5391 192.617C44.7227 192.617 44.0859 192.332 43.6289 191.762C43.1797 191.207 42.9551 190.449 42.9551 189.488ZM46.916 188.955V188.932C46.916 188.158 46.6914 187.682 46.2422 187.502C46.1016 187.447 45.9453 187.42 45.7734 187.42C45.6016 187.42 45.4219 187.451 45.2344 187.514C45.0469 187.58 44.875 187.676 44.7188 187.801C44.3711 188.086 44.1836 188.471 44.1562 188.955H46.916ZM49.0605 189.488C49.0605 189.004 49.1406 188.574 49.3008 188.199C49.457 187.832 49.668 187.523 49.9336 187.273C50.4727 186.773 51.1387 186.521 51.9316 186.518H51.9492C52.6758 186.518 53.2363 186.746 53.6309 187.203C54.0254 187.656 54.2227 188.311 54.2227 189.166C54.2227 189.35 54.1387 189.508 53.9707 189.641C53.8066 189.77 53.5996 189.834 53.3496 189.834H50.2617C50.332 190.748 50.6504 191.334 51.2168 191.592C51.3965 191.674 51.5859 191.715 51.7852 191.715C51.9844 191.715 52.1621 191.693 52.3184 191.65C52.4746 191.604 52.625 191.547 52.7695 191.48C52.9141 191.41 53.0547 191.332 53.1914 191.246C53.4766 191.066 53.6445 190.977 53.6953 190.977C53.7422 190.98 53.793 191.004 53.8477 191.047C53.8945 191.094 53.9414 191.148 53.9883 191.211C54.0898 191.359 54.1426 191.484 54.1465 191.586V191.598C54.1465 191.691 54.125 191.754 54.082 191.785C53.3672 192.34 52.5547 192.617 51.6445 192.617C50.8281 192.617 50.1914 192.332 49.7344 191.762C49.2852 191.207 49.0605 190.449 49.0605 189.488ZM53.0215 188.955V188.932C53.0215 188.158 52.7969 187.682 52.3477 187.502C52.207 187.447 52.0508 187.42 51.8789 187.42C51.707 187.42 51.5273 187.451 51.3398 187.514C51.1523 187.58 50.9805 187.676 50.8242 187.801C50.4766 188.086 50.2891 188.471 50.2617 188.955H53.0215Z" fill="white"/>
<path d="M92.7422 191.674C92.8438 191.674 92.8945 191.793 92.8945 192.031C92.8945 192.219 92.8652 192.344 92.8066 192.406C92.748 192.469 92.6973 192.5 92.6543 192.5H89.2207C89.127 192.5 89.0801 192.391 89.0801 192.172V192.154C89.0801 191.967 89.1328 191.82 89.2383 191.715C89.2695 191.684 89.332 191.668 89.4258 191.668H89.4434C89.459 191.672 89.4766 191.674 89.4961 191.674C89.5859 191.674 89.6777 191.668 89.7715 191.656C89.8848 191.648 89.9727 191.635 90.0352 191.615C90.1445 191.58 90.1992 191.516 90.1992 191.422V184.596C90.1992 184.537 90.1738 184.508 90.123 184.508H89.168C89.0586 184.508 88.9844 184.402 88.9453 184.191C88.9375 184.137 88.9316 184.082 88.9277 184.027C88.9277 183.797 88.9805 183.682 89.0859 183.682H92.3438C93.2461 183.686 93.9629 183.902 94.4941 184.332C95.0293 184.766 95.2969 185.359 95.2969 186.113C95.2969 187.914 94.0098 188.814 91.4355 188.814V191.674H92.7422ZM91.4355 187.912C92.2559 187.908 92.8496 187.809 93.2168 187.613C93.6934 187.359 93.9316 186.91 93.9316 186.266V186.248C93.9316 185.6 93.7383 185.156 93.3516 184.918C92.9922 184.695 92.3535 184.584 91.4355 184.584V187.912ZM97.875 187.344C97.9219 187.445 97.9453 187.561 97.9453 187.689C97.9453 187.818 97.9258 187.932 97.8867 188.029C97.8398 188.127 97.7812 188.211 97.7109 188.281C97.5625 188.43 97.373 188.506 97.1426 188.51C96.7793 188.51 96.5312 188.35 96.3984 188.029C96.3594 187.932 96.3398 187.811 96.3398 187.666C96.3398 187.525 96.3809 187.393 96.4629 187.268C96.5449 187.143 96.6523 187.035 96.7852 186.945C96.9219 186.855 97.0742 186.783 97.2422 186.729C97.4141 186.674 97.5879 186.631 97.7637 186.6C98.0723 186.545 98.4102 186.518 98.7773 186.518C99.1406 186.518 99.4551 186.576 99.7207 186.693C99.9902 186.811 100.203 186.969 100.359 187.168C100.629 187.516 100.764 188.008 100.764 188.645V191.674H101.748C101.854 191.674 101.906 191.789 101.906 192.02C101.906 192.121 101.887 192.223 101.848 192.324C101.809 192.422 101.748 192.48 101.666 192.5C101.447 192.562 101.135 192.594 100.729 192.594C100.318 192.594 100.09 192.586 100.043 192.57C99.9961 192.559 99.9531 192.535 99.9141 192.5C99.8398 192.434 99.7656 192.299 99.6914 192.096C99.2148 192.443 98.6406 192.617 97.9688 192.617C97.3672 192.617 96.8945 192.457 96.5508 192.137C96.2266 191.84 96.0645 191.451 96.0645 190.971V190.953C96.0645 190.355 96.2852 189.889 96.7266 189.553C97.1133 189.256 97.5957 189.107 98.1738 189.107H99.6211C99.6211 188.455 99.5664 188.035 99.457 187.848C99.3516 187.656 99.2227 187.525 99.0703 187.455C98.9219 187.381 98.7227 187.344 98.4727 187.344H97.875ZM98.1797 191.715C98.6719 191.715 99.1523 191.52 99.6211 191.129V189.986H98.3438C98.0312 189.986 97.8008 190.039 97.6523 190.145C97.3828 190.332 97.248 190.549 97.248 190.795C97.248 191.256 97.4395 191.545 97.8223 191.662C97.9355 191.697 98.0547 191.715 98.1797 191.715ZM103.822 191.715H104.49C105.033 191.715 105.398 191.549 105.586 191.217C105.641 191.115 105.668 191.004 105.668 190.883C105.668 190.762 105.639 190.658 105.58 190.572C105.525 190.482 105.438 190.4 105.316 190.326C105.133 190.213 104.826 190.092 104.396 189.963C103.971 189.83 103.646 189.717 103.424 189.623C103.201 189.525 103.008 189.41 102.844 189.277C102.508 188.996 102.34 188.609 102.34 188.117C102.34 187.395 102.744 186.908 103.553 186.658C103.857 186.564 104.158 186.518 104.455 186.518C104.748 186.518 105.02 186.537 105.27 186.576C105.527 186.615 105.758 186.682 105.961 186.775C106.426 186.99 106.658 187.297 106.658 187.695V187.725C106.658 187.943 106.582 188.129 106.43 188.281C106.281 188.43 106.09 188.506 105.855 188.51C105.488 188.51 105.238 188.35 105.105 188.029C105.066 187.932 105.047 187.852 105.047 187.789C105.047 187.727 105.07 187.578 105.117 187.344H104.537C104.221 187.344 103.986 187.398 103.834 187.508C103.557 187.699 103.418 187.91 103.418 188.141C103.418 188.445 103.691 188.691 104.238 188.879L104.684 189.031C105.438 189.281 105.922 189.494 106.137 189.67C106.352 189.846 106.508 190.037 106.605 190.244C106.703 190.451 106.752 190.688 106.752 190.953C106.752 191.223 106.699 191.455 106.594 191.65C106.492 191.85 106.348 192.02 106.16 192.16C105.758 192.465 105.234 192.617 104.59 192.617C104.02 192.617 103.508 192.531 103.055 192.359C102.719 192.234 102.48 192.055 102.34 191.82C102.27 191.703 102.234 191.576 102.234 191.439C102.234 191.307 102.254 191.191 102.293 191.094C102.34 190.992 102.398 190.906 102.469 190.836C102.621 190.688 102.812 190.613 103.043 190.613C103.27 190.613 103.461 190.689 103.617 190.842C103.773 190.99 103.852 191.158 103.852 191.346V191.352C103.848 191.547 103.838 191.668 103.822 191.715ZM109.688 192.617C108.887 192.617 108.486 192.076 108.486 190.994V187.537H107.373C107.373 187.107 107.398 186.85 107.449 186.764C107.504 186.678 107.562 186.635 107.625 186.635H107.684C108.164 186.635 108.453 186.59 108.551 186.5C108.59 186.469 108.611 186.43 108.615 186.383L108.867 185.088C108.914 184.873 109.168 184.766 109.629 184.766V186.635H111.211C111.309 186.635 111.357 186.75 111.357 186.98C111.354 187.207 111.305 187.375 111.211 187.484C111.184 187.52 111.148 187.537 111.105 187.537H109.629V190.994C109.629 191.432 109.758 191.65 110.016 191.65C110.309 191.65 110.516 191.629 110.637 191.586C110.762 191.539 110.848 191.516 110.895 191.516C110.938 191.516 110.98 191.531 111.023 191.562C111.07 191.59 111.109 191.627 111.141 191.674C111.207 191.775 111.24 191.881 111.24 191.99C111.24 192.107 111.203 192.184 111.129 192.219C110.625 192.484 110.145 192.617 109.688 192.617ZM113.982 186.951L113.977 187.186C113.977 187.232 113.975 187.279 113.971 187.326C113.971 187.373 113.971 187.416 113.971 187.455C114.428 187.037 114.887 186.75 115.348 186.594C115.496 186.547 115.65 186.521 115.811 186.518H115.822C115.975 186.518 116.111 186.547 116.232 186.605C116.357 186.668 116.457 186.742 116.531 186.828C116.664 186.984 116.73 187.146 116.73 187.314C116.73 187.486 116.709 187.621 116.666 187.719C116.623 187.816 116.562 187.9 116.484 187.971C116.32 188.123 116.158 188.199 115.998 188.199C115.834 188.199 115.709 188.178 115.623 188.135C115.537 188.088 115.461 188.029 115.395 187.959C115.254 187.811 115.184 187.645 115.184 187.461C114.957 187.566 114.785 187.688 114.668 187.824C114.551 187.961 114.453 188.088 114.375 188.205L114.117 188.604V191.674H115.541C115.631 191.674 115.676 191.793 115.676 192.031C115.676 192.223 115.646 192.35 115.588 192.412C115.533 192.471 115.482 192.5 115.436 192.5H112.025C111.916 192.5 111.861 192.377 111.861 192.131C111.865 191.951 111.918 191.812 112.02 191.715C112.051 191.688 112.119 191.674 112.225 191.674C112.33 191.674 112.438 191.67 112.547 191.662C112.66 191.65 112.748 191.635 112.811 191.615C112.92 191.58 112.975 191.516 112.975 191.422V187.561H111.943C111.791 187.561 111.715 187.408 111.715 187.104C111.715 186.908 111.764 186.789 111.861 186.746C111.963 186.703 112.094 186.668 112.254 186.641C112.418 186.609 112.586 186.586 112.758 186.57C113.086 186.539 113.346 186.521 113.537 186.518H113.584C113.744 186.518 113.84 186.527 113.871 186.547C113.91 186.562 113.938 186.59 113.953 186.629C113.973 186.668 113.982 186.752 113.982 186.881V186.951ZM118.705 185.047C118.342 185.047 118.094 184.887 117.961 184.566C117.922 184.469 117.902 184.361 117.902 184.244C117.902 183.873 118.064 183.621 118.389 183.488C118.486 183.449 118.592 183.43 118.705 183.43C118.932 183.43 119.121 183.508 119.273 183.664C119.43 183.816 119.508 184.01 119.508 184.244C119.508 184.475 119.43 184.668 119.273 184.824C119.125 184.973 118.936 185.047 118.705 185.047ZM117.311 192.5C117.209 192.5 117.158 192.381 117.158 192.143C117.158 191.955 117.188 191.83 117.246 191.768C117.305 191.705 117.355 191.674 117.398 191.674H117.457C117.914 191.674 118.172 191.629 118.23 191.539C118.25 191.512 118.26 191.479 118.26 191.439V187.537H117.229C117.115 187.533 117.039 187.434 117 187.238C116.992 187.184 116.988 187.127 116.988 187.068C116.988 186.889 117.041 186.779 117.146 186.74C117.252 186.697 117.391 186.662 117.562 186.635C117.734 186.607 117.914 186.586 118.102 186.57C118.461 186.539 118.807 186.521 119.139 186.518H119.145C119.309 186.518 119.395 186.684 119.402 187.016V191.674H120.387C120.488 191.674 120.539 191.793 120.539 192.031C120.539 192.219 120.51 192.344 120.451 192.406C120.393 192.469 120.342 192.5 120.299 192.5H117.311ZM121.084 189.488C121.084 189.004 121.164 188.574 121.324 188.199C121.48 187.832 121.691 187.523 121.957 187.273C122.496 186.773 123.162 186.521 123.955 186.518H123.973C124.699 186.518 125.26 186.746 125.654 187.203C126.049 187.656 126.246 188.311 126.246 189.166C126.246 189.35 126.162 189.508 125.994 189.641C125.83 189.77 125.623 189.834 125.373 189.834H122.285C122.355 190.748 122.674 191.334 123.24 191.592C123.42 191.674 123.609 191.715 123.809 191.715C124.008 191.715 124.186 191.693 124.342 191.65C124.498 191.604 124.648 191.547 124.793 191.48C124.938 191.41 125.078 191.332 125.215 191.246C125.5 191.066 125.668 190.977 125.719 190.977C125.766 190.98 125.816 191.004 125.871 191.047C125.918 191.094 125.965 191.148 126.012 191.211C126.113 191.359 126.166 191.484 126.17 191.586V191.598C126.17 191.691 126.148 191.754 126.105 191.785C125.391 192.34 124.578 192.617 123.668 192.617C122.852 192.617 122.215 192.332 121.758 191.762C121.309 191.207 121.084 190.449 121.084 189.488ZM125.045 188.955V188.932C125.045 188.158 124.82 187.682 124.371 187.502C124.23 187.447 124.074 187.42 123.902 187.42C123.73 187.42 123.551 187.451 123.363 187.514C123.176 187.58 123.004 187.676 122.848 187.801C122.5 188.086 122.312 188.471 122.285 188.955H125.045ZM128.748 191.715H129.416C129.959 191.715 130.324 191.549 130.512 191.217C130.566 191.115 130.594 191.004 130.594 190.883C130.594 190.762 130.564 190.658 130.506 190.572C130.451 190.482 130.363 190.4 130.242 190.326C130.059 190.213 129.752 190.092 129.322 189.963C128.896 189.83 128.572 189.717 128.35 189.623C128.127 189.525 127.934 189.41 127.77 189.277C127.434 188.996 127.266 188.609 127.266 188.117C127.266 187.395 127.67 186.908 128.479 186.658C128.783 186.564 129.084 186.518 129.381 186.518C129.674 186.518 129.945 186.537 130.195 186.576C130.453 186.615 130.684 186.682 130.887 186.775C131.352 186.99 131.584 187.297 131.584 187.695V187.725C131.584 187.943 131.508 188.129 131.355 188.281C131.207 188.43 131.016 188.506 130.781 188.51C130.414 188.51 130.164 188.35 130.031 188.029C129.992 187.932 129.973 187.852 129.973 187.789C129.973 187.727 129.996 187.578 130.043 187.344H129.463C129.146 187.344 128.912 187.398 128.76 187.508C128.482 187.699 128.344 187.91 128.344 188.141C128.344 188.445 128.617 188.691 129.164 188.879L129.609 189.031C130.363 189.281 130.848 189.494 131.062 189.67C131.277 189.846 131.434 190.037 131.531 190.244C131.629 190.451 131.678 190.688 131.678 190.953C131.678 191.223 131.625 191.455 131.52 191.65C131.418 191.85 131.273 192.02 131.086 192.16C130.684 192.465 130.16 192.617 129.516 192.617C128.945 192.617 128.434 192.531 127.98 192.359C127.645 192.234 127.406 192.055 127.266 191.82C127.195 191.703 127.16 191.576 127.16 191.439C127.16 191.307 127.18 191.191 127.219 191.094C127.266 190.992 127.324 190.906 127.395 190.836C127.547 190.688 127.738 190.613 127.969 190.613C128.195 190.613 128.387 190.689 128.543 190.842C128.699 190.99 128.777 191.158 128.777 191.346V191.352C128.773 191.547 128.764 191.668 128.748 191.715Z" fill="white"/>
<path d="M171.148 189.236C171.148 189.396 171.008 189.477 170.727 189.477C170.445 189.477 170.305 189.424 170.305 189.318V188.434H168.436V191.674H169.695C169.797 191.674 169.848 191.793 169.848 192.031C169.848 192.219 169.818 192.344 169.76 192.406C169.701 192.469 169.65 192.5 169.607 192.5H166.25C166.145 192.5 166.092 192.385 166.092 192.154C166.096 191.955 166.145 191.809 166.238 191.715C166.27 191.684 166.332 191.668 166.426 191.668H166.443C166.459 191.672 166.477 191.674 166.496 191.674C166.586 191.674 166.678 191.668 166.771 191.656C166.885 191.648 166.973 191.635 167.035 191.615C167.145 191.58 167.199 191.516 167.199 191.422V184.59C167.199 184.535 167.176 184.508 167.129 184.508H166.168C166.059 184.508 165.984 184.406 165.945 184.203C165.938 184.148 165.932 184.098 165.928 184.051C165.928 183.805 165.979 183.682 166.08 183.682H172.525V185.387C172.525 185.52 172.389 185.586 172.115 185.586C171.838 185.586 171.699 185.543 171.699 185.457C171.699 185.129 171.656 184.918 171.57 184.824C171.418 184.664 171.141 184.584 170.738 184.584H168.436V187.531H169.924C170.104 187.531 170.209 187.488 170.24 187.402C170.291 187.277 170.316 187.025 170.316 186.646C170.316 186.557 170.434 186.512 170.668 186.512C170.871 186.512 171.002 186.539 171.061 186.594C171.119 186.648 171.148 186.693 171.148 186.729V189.236ZM175.572 192.617C175.154 192.617 174.787 192.539 174.471 192.383C174.154 192.227 173.887 192.008 173.668 191.727C173.23 191.16 173.012 190.418 173.012 189.5C173.012 188.539 173.309 187.789 173.902 187.25C174.441 186.762 175.121 186.518 175.941 186.518H175.959C176.725 186.518 177.34 186.809 177.805 187.391C178.25 187.945 178.473 188.664 178.473 189.547C178.473 190.531 178.199 191.297 177.652 191.844C177.137 192.359 176.443 192.617 175.572 192.617ZM174.723 187.83C174.574 187.986 174.451 188.201 174.354 188.475C174.26 188.744 174.213 189.076 174.213 189.471C174.213 189.869 174.25 190.207 174.324 190.484C174.402 190.758 174.508 190.984 174.641 191.164C174.91 191.531 175.283 191.715 175.76 191.715C176.252 191.715 176.633 191.5 176.902 191.07C177.148 190.68 177.271 190.168 177.271 189.535C177.268 188.477 176.957 187.812 176.34 187.543C176.152 187.461 175.963 187.42 175.771 187.42C175.576 187.42 175.389 187.449 175.209 187.508C175.033 187.566 174.871 187.674 174.723 187.83ZM182.791 187.344H182.246C181.84 187.344 181.49 187.498 181.197 187.807C180.822 188.201 180.635 188.77 180.635 189.512C180.635 190.598 180.938 191.285 181.543 191.574C181.734 191.668 181.93 191.715 182.129 191.715C182.328 191.715 182.508 191.693 182.668 191.65C182.828 191.607 182.984 191.551 183.137 191.48C183.293 191.414 183.441 191.338 183.582 191.252L183.998 191C184.014 190.988 184.041 190.982 184.08 190.982C184.115 190.982 184.16 191.006 184.215 191.053C184.27 191.096 184.32 191.148 184.367 191.211C184.469 191.359 184.52 191.482 184.52 191.58C184.52 191.678 184.498 191.744 184.455 191.779C183.709 192.338 182.896 192.617 182.018 192.617C181.201 192.617 180.562 192.334 180.102 191.768C179.656 191.221 179.434 190.469 179.434 189.512C179.434 188.574 179.717 187.832 180.283 187.285C180.814 186.777 181.492 186.521 182.316 186.518C183.199 186.521 183.811 186.715 184.15 187.098C184.279 187.246 184.344 187.404 184.344 187.572C184.344 187.74 184.324 187.873 184.285 187.971C184.238 188.068 184.18 188.152 184.109 188.223C183.953 188.375 183.764 188.451 183.541 188.451C183.318 188.451 183.129 188.375 182.973 188.223C182.816 188.074 182.738 187.926 182.738 187.777C182.738 187.629 182.756 187.484 182.791 187.344ZM187.051 187.344C187.098 187.445 187.121 187.561 187.121 187.689C187.121 187.818 187.102 187.932 187.062 188.029C187.016 188.127 186.957 188.211 186.887 188.281C186.738 188.43 186.549 188.506 186.318 188.51C185.955 188.51 185.707 188.35 185.574 188.029C185.535 187.932 185.516 187.811 185.516 187.666C185.516 187.525 185.557 187.393 185.639 187.268C185.721 187.143 185.828 187.035 185.961 186.945C186.098 186.855 186.25 186.783 186.418 186.729C186.59 186.674 186.764 186.631 186.939 186.6C187.248 186.545 187.586 186.518 187.953 186.518C188.316 186.518 188.631 186.576 188.896 186.693C189.166 186.811 189.379 186.969 189.535 187.168C189.805 187.516 189.939 188.008 189.939 188.645V191.674H190.924C191.029 191.674 191.082 191.789 191.082 192.02C191.082 192.121 191.062 192.223 191.023 192.324C190.984 192.422 190.924 192.48 190.842 192.5C190.623 192.562 190.311 192.594 189.904 192.594C189.494 192.594 189.266 192.586 189.219 192.57C189.172 192.559 189.129 192.535 189.09 192.5C189.016 192.434 188.941 192.299 188.867 192.096C188.391 192.443 187.816 192.617 187.145 192.617C186.543 192.617 186.07 192.457 185.727 192.137C185.402 191.84 185.24 191.451 185.24 190.971V190.953C185.24 190.355 185.461 189.889 185.902 189.553C186.289 189.256 186.771 189.107 187.35 189.107H188.797C188.797 188.455 188.742 188.035 188.633 187.848C188.527 187.656 188.398 187.525 188.246 187.455C188.098 187.381 187.898 187.344 187.648 187.344H187.051ZM187.355 191.715C187.848 191.715 188.328 191.52 188.797 191.129V189.986H187.52C187.207 189.986 186.977 190.039 186.828 190.145C186.559 190.332 186.424 190.549 186.424 190.795C186.424 191.256 186.615 191.545 186.998 191.662C187.111 191.697 187.23 191.715 187.355 191.715ZM194.803 187.344H194.258C193.852 187.344 193.502 187.498 193.209 187.807C192.834 188.201 192.646 188.77 192.646 189.512C192.646 190.598 192.949 191.285 193.555 191.574C193.746 191.668 193.941 191.715 194.141 191.715C194.34 191.715 194.52 191.693 194.68 191.65C194.84 191.607 194.996 191.551 195.148 191.48C195.305 191.414 195.453 191.338 195.594 191.252L196.01 191C196.025 190.988 196.053 190.982 196.092 190.982C196.127 190.982 196.172 191.006 196.227 191.053C196.281 191.096 196.332 191.148 196.379 191.211C196.48 191.359 196.531 191.482 196.531 191.58C196.531 191.678 196.51 191.744 196.467 191.779C195.721 192.338 194.908 192.617 194.029 192.617C193.213 192.617 192.574 192.334 192.113 191.768C191.668 191.221 191.445 190.469 191.445 189.512C191.445 188.574 191.729 187.832 192.295 187.285C192.826 186.777 193.504 186.521 194.328 186.518C195.211 186.521 195.822 186.715 196.162 187.098C196.291 187.246 196.355 187.404 196.355 187.572C196.355 187.74 196.336 187.873 196.297 187.971C196.25 188.068 196.191 188.152 196.121 188.223C195.965 188.375 195.775 188.451 195.553 188.451C195.33 188.451 195.141 188.375 194.984 188.223C194.828 188.074 194.75 187.926 194.75 187.777C194.75 187.629 194.768 187.484 194.803 187.344ZM200.639 187.344H200.094C199.688 187.344 199.338 187.498 199.045 187.807C198.67 188.201 198.482 188.77 198.482 189.512C198.482 190.598 198.785 191.285 199.391 191.574C199.582 191.668 199.777 191.715 199.977 191.715C200.176 191.715 200.355 191.693 200.516 191.65C200.676 191.607 200.832 191.551 200.984 191.48C201.141 191.414 201.289 191.338 201.43 191.252L201.846 191C201.861 190.988 201.889 190.982 201.928 190.982C201.963 190.982 202.008 191.006 202.062 191.053C202.117 191.096 202.168 191.148 202.215 191.211C202.316 191.359 202.367 191.482 202.367 191.58C202.367 191.678 202.346 191.744 202.303 191.779C201.557 192.338 200.744 192.617 199.865 192.617C199.049 192.617 198.41 192.334 197.949 191.768C197.504 191.221 197.281 190.469 197.281 189.512C197.281 188.574 197.564 187.832 198.131 187.285C198.662 186.777 199.34 186.521 200.164 186.518C201.047 186.521 201.658 186.715 201.998 187.098C202.127 187.246 202.191 187.404 202.191 187.572C202.191 187.74 202.172 187.873 202.133 187.971C202.086 188.068 202.027 188.152 201.957 188.223C201.801 188.375 201.611 188.451 201.389 188.451C201.166 188.451 200.977 188.375 200.82 188.223C200.664 188.074 200.586 187.926 200.586 187.777C200.586 187.629 200.604 187.484 200.639 187.344ZM204.6 185.047C204.236 185.047 203.988 184.887 203.855 184.566C203.816 184.469 203.797 184.361 203.797 184.244C203.797 183.873 203.959 183.621 204.283 183.488C204.381 183.449 204.486 183.43 204.6 183.43C204.826 183.43 205.016 183.508 205.168 183.664C205.324 183.816 205.402 184.01 205.402 184.244C205.402 184.475 205.324 184.668 205.168 184.824C205.02 184.973 204.83 185.047 204.6 185.047ZM203.205 192.5C203.104 192.5 203.053 192.381 203.053 192.143C203.053 191.955 203.082 191.83 203.141 191.768C203.199 191.705 203.25 191.674 203.293 191.674H203.352C203.809 191.674 204.066 191.629 204.125 191.539C204.145 191.512 204.154 191.479 204.154 191.439V187.537H203.123C203.01 187.533 202.934 187.434 202.895 187.238C202.887 187.184 202.883 187.127 202.883 187.068C202.883 186.889 202.936 186.779 203.041 186.74C203.146 186.697 203.285 186.662 203.457 186.635C203.629 186.607 203.809 186.586 203.996 186.57C204.355 186.539 204.701 186.521 205.033 186.518H205.039C205.203 186.518 205.289 186.684 205.297 187.016V191.674H206.281C206.383 191.674 206.434 191.793 206.434 192.031C206.434 192.219 206.404 192.344 206.346 192.406C206.287 192.469 206.236 192.5 206.193 192.5H203.205ZM208.777 187.344C208.824 187.445 208.848 187.561 208.848 187.689C208.848 187.818 208.828 187.932 208.789 188.029C208.742 188.127 208.684 188.211 208.613 188.281C208.465 188.43 208.275 188.506 208.045 188.51C207.682 188.51 207.434 188.35 207.301 188.029C207.262 187.932 207.242 187.811 207.242 187.666C207.242 187.525 207.283 187.393 207.365 187.268C207.447 187.143 207.555 187.035 207.688 186.945C207.824 186.855 207.977 186.783 208.145 186.729C208.316 186.674 208.49 186.631 208.666 186.6C208.975 186.545 209.312 186.518 209.68 186.518C210.043 186.518 210.357 186.576 210.623 186.693C210.893 186.811 211.105 186.969 211.262 187.168C211.531 187.516 211.666 188.008 211.666 188.645V191.674H212.65C212.756 191.674 212.809 191.789 212.809 192.02C212.809 192.121 212.789 192.223 212.75 192.324C212.711 192.422 212.65 192.48 212.568 192.5C212.35 192.562 212.037 192.594 211.631 192.594C211.221 192.594 210.992 192.586 210.945 192.57C210.898 192.559 210.855 192.535 210.816 192.5C210.742 192.434 210.668 192.299 210.594 192.096C210.117 192.443 209.543 192.617 208.871 192.617C208.27 192.617 207.797 192.457 207.453 192.137C207.129 191.84 206.967 191.451 206.967 190.971V190.953C206.967 190.355 207.188 189.889 207.629 189.553C208.016 189.256 208.498 189.107 209.076 189.107H210.523C210.523 188.455 210.469 188.035 210.359 187.848C210.254 187.656 210.125 187.525 209.973 187.455C209.824 187.381 209.625 187.344 209.375 187.344H208.777ZM209.082 191.715C209.574 191.715 210.055 191.52 210.523 191.129V189.986H209.246C208.934 189.986 208.703 190.039 208.555 190.145C208.285 190.332 208.15 190.549 208.15 190.795C208.15 191.256 208.342 191.545 208.725 191.662C208.838 191.697 208.957 191.715 209.082 191.715Z" fill="white"/>
</svg>
