<svg width="308" height="301" viewBox="0 0 308 301" fill="none" xmlns="http://www.w3.org/2000/svg">
<circle cx="154" cy="100.5" r="100.5" fill="#222222"/>
<path d="M114.228 98.95C112.628 98.95 111.044 98.75 109.478 98.35C107.911 97.9833 106.478 97.3833 105.178 96.55C103.878 95.7167 102.844 94.65 102.078 93.35C101.311 92.05 100.928 90.4833 100.928 88.65C100.928 86.9167 101.278 85.25 101.978 83.65C102.678 82.05 103.578 80.55 104.678 79.15C105.811 77.75 106.978 76.5 108.178 75.4C109.878 73.8667 111.811 72.3833 113.978 70.95C116.144 69.5167 118.444 68.2333 120.878 67.1C123.344 65.9667 125.828 65.0667 128.328 64.4C130.828 63.7333 133.228 63.4 135.528 63.4C136.528 63.4 137.611 63.55 138.778 63.85C139.978 64.15 140.994 64.65 141.828 65.35C142.694 66.05 143.128 67.0333 143.128 68.3C143.128 69.4333 142.744 70.55 141.978 71.65C141.211 72.75 140.194 73.7833 138.928 74.75C137.661 75.7167 136.261 76.6167 134.728 77.45C133.194 78.25 131.628 78.9667 130.028 79.6C128.461 80.2 126.978 80.6833 125.578 81.05C124.178 81.4167 122.994 81.65 122.028 81.75C121.794 81.7833 121.561 81.8 121.328 81.8C121.094 81.8 120.861 81.8 120.628 81.8C120.428 81.8 120.011 81.7833 119.378 81.75C118.744 81.6833 118.144 81.5667 117.578 81.4C117.011 81.2333 116.728 80.9833 116.728 80.65C116.728 80.4833 116.828 80.4 117.028 80.4C117.161 80.4 117.328 80.4333 117.528 80.5C117.728 80.5667 117.978 80.6 118.278 80.6C119.078 80.6 120.111 80.4 121.378 80C122.644 79.6 124.011 79.0667 125.478 78.4C126.978 77.7 128.461 76.9167 129.928 76.05C131.394 75.1833 132.744 74.2667 133.978 73.3C135.211 72.3333 136.194 71.3667 136.928 70.4C137.661 69.4333 138.028 68.5167 138.028 67.65C138.028 66.85 137.744 66.2667 137.178 65.9C136.611 65.5 135.944 65.2333 135.178 65.1C134.411 64.9667 133.744 64.9 133.178 64.9C131.078 64.9 128.911 65.2167 126.678 65.85C124.478 66.4833 122.294 67.35 120.128 68.45C117.994 69.5167 115.961 70.7167 114.028 72.05C112.128 73.3833 110.428 74.75 108.928 76.15C107.894 77.1167 106.861 78.2333 105.828 79.5C104.828 80.7333 103.994 82.0667 103.328 83.5C102.661 84.9 102.328 86.35 102.328 87.85C102.328 89.5167 102.728 90.9167 103.528 92.05C104.328 93.1833 105.361 94.1 106.628 94.8C107.928 95.4667 109.328 95.95 110.828 96.25C112.328 96.55 113.761 96.7 115.128 96.7C115.994 96.7 116.861 96.6667 117.728 96.6C118.594 96.5 119.444 96.3833 120.278 96.25C122.511 95.85 124.544 95.3667 126.378 94.8C128.244 94.2333 130.028 93.5 131.728 92.6C133.428 91.7 135.161 90.5333 136.928 89.1C137.061 89.0333 137.144 89 137.178 89C137.344 89 137.428 89.1 137.428 89.3C137.428 89.4 137.361 89.55 137.228 89.75C135.928 91.15 134.344 92.4167 132.478 93.55C130.644 94.6833 128.678 95.65 126.578 96.45C124.478 97.25 122.361 97.8667 120.228 98.3C118.094 98.7333 116.094 98.95 114.228 98.95ZM146.815 81.7C146.348 81.7 145.998 81.55 145.765 81.25C145.532 80.95 145.415 80.6333 145.415 80.3C145.415 79.6333 145.732 78.9833 146.365 78.35C146.998 77.6833 147.665 77.35 148.365 77.35C148.832 77.35 149.182 77.5 149.415 77.8C149.648 78.1 149.765 78.4167 149.765 78.75C149.765 79.45 149.448 80.1167 148.815 80.75C148.215 81.3833 147.548 81.7 146.815 81.7ZM139.165 97.05C137.798 97.05 136.865 96.7667 136.365 96.2C135.898 95.6 135.665 94.9333 135.665 94.2C135.665 93.6 135.765 93.0333 135.965 92.5C136.165 91.9333 136.332 91.5333 136.465 91.3C136.665 90.9667 136.932 90.5833 137.265 90.15C137.632 89.7167 138.032 89.25 138.465 88.75C137.798 89.3167 137.165 89.8667 136.565 90.4C135.998 90.9333 135.532 91.3333 135.165 91.6C135.065 91.7 134.965 91.75 134.865 91.75C134.732 91.75 134.665 91.6667 134.665 91.5C134.665 91.2333 134.848 90.9667 135.215 90.7C136.082 89.9667 136.915 89.1667 137.715 88.3C138.548 87.4333 139.332 86.6333 140.065 85.9C140.798 85.1333 141.448 84.6 142.015 84.3C142.615 83.9667 143.098 83.75 143.465 83.65C143.832 83.55 144.132 83.5 144.365 83.5C144.732 83.5 144.998 83.5667 145.165 83.7C145.332 83.8 145.365 83.9167 145.265 84.05C144.698 84.6167 144.132 85.35 143.565 86.25C143.032 87.1167 142.532 88.0333 142.065 89C141.598 89.9667 141.215 90.8833 140.915 91.75C140.648 92.6167 140.515 93.35 140.515 93.95C140.515 94.7833 140.848 95.2 141.515 95.2C142.148 95.2 142.965 94.9167 143.965 94.35C144.998 93.75 146.065 93 147.165 92.1C148.298 91.2 149.348 90.3167 150.315 89.45C150.448 89.3167 150.565 89.25 150.665 89.25C150.832 89.25 150.915 89.3333 150.915 89.5C150.948 89.6667 150.915 89.7833 150.815 89.85C149.715 90.8833 148.465 91.9667 147.065 93.1C145.698 94.2 144.315 95.1333 142.915 95.9C141.548 96.6667 140.298 97.05 139.165 97.05ZM154.285 97.5C152.818 97.5 151.585 97.15 150.585 96.45C149.618 95.7167 149.135 94.6667 149.135 93.3C149.135 91.8333 149.485 90.4667 150.185 89.2C150.885 87.9333 151.818 86.8333 152.985 85.9C154.151 84.9333 155.418 84.1833 156.785 83.65C158.185 83.1167 159.568 82.85 160.935 82.85C162.301 82.85 163.318 83.1 163.985 83.6C164.651 84.0667 164.985 84.65 164.985 85.35C164.985 86.0167 164.668 86.7333 164.035 87.5C163.435 88.2333 162.551 88.8833 161.385 89.45C160.651 89.7833 159.801 90.0833 158.835 90.35C157.901 90.5833 157.085 90.7 156.385 90.7C155.851 90.7 155.585 90.6167 155.585 90.45C155.585 90.3167 155.818 90.25 156.285 90.25C156.718 90.25 157.385 90.1333 158.285 89.9C159.218 89.6333 160.118 89.2833 160.985 88.85C161.951 88.3167 162.635 87.7833 163.035 87.25C163.435 86.7167 163.635 86.2333 163.635 85.8C163.635 85.4 163.468 85.0667 163.135 84.8C162.835 84.5333 162.401 84.4 161.835 84.4C161.301 84.4 160.701 84.55 160.035 84.85C159.068 85.2833 158.068 86 157.035 87C156.035 87.9667 155.201 89.0333 154.535 90.2C153.868 91.3667 153.535 92.4833 153.535 93.55C153.535 94.2833 153.735 94.9 154.135 95.4C154.568 95.9 155.201 96.15 156.035 96.15C156.901 96.15 157.901 95.8833 159.035 95.35C160.168 94.7833 161.318 94.1 162.485 93.3C163.651 92.4667 164.735 91.6333 165.735 90.8C166.735 89.9667 167.535 89.2667 168.135 88.7C168.335 88.5 168.485 88.4 168.585 88.4C168.685 88.4 168.735 88.4833 168.735 88.65C168.735 88.8833 168.635 89.0833 168.435 89.25C167.168 90.4167 165.785 91.6333 164.285 92.9C162.818 94.1667 161.235 95.25 159.535 96.15C157.868 97.0167 156.118 97.4667 154.285 97.5ZM173.927 97.05C172.493 97.05 171.527 96.7833 171.027 96.25C170.527 95.6833 170.277 95.0667 170.277 94.4C170.277 93.5333 170.61 92.6167 171.277 91.65C171.677 91.0833 172.127 90.45 172.627 89.75C173.127 89.0167 173.593 88.3333 174.027 87.7C174.46 87.0667 174.76 86.6167 174.927 86.35C175.16 86.0167 175.293 85.8 175.327 85.7C175.393 85.5667 175.427 85.4333 175.427 85.3C175.427 85.1 175.293 84.9167 175.027 84.75C174.793 84.55 174.393 84.45 173.827 84.45C173.66 84.45 173.51 84.4667 173.377 84.5C173.277 84.5 173.16 84.5 173.027 84.5C172.76 84.5 172.61 84.4833 172.577 84.45L172.427 84.65C171.493 85.8833 170.493 87.1 169.427 88.3C168.36 89.4667 167.193 90.55 165.927 91.55C165.793 91.65 165.693 91.7 165.627 91.7C165.493 91.7 165.427 91.6333 165.427 91.5C165.427 91.2333 165.627 90.9333 166.027 90.6C167.06 89.7333 168.077 88.7667 169.077 87.7C170.077 86.6 170.977 85.45 171.777 84.25C171.477 84.05 171.327 83.65 171.327 83.05C171.327 82.15 171.61 81.1833 172.177 80.15C172.577 79.45 173.01 78.9333 173.477 78.6C173.977 78.2333 174.41 78.05 174.777 78.05C175.477 78.05 175.827 78.4667 175.827 79.3C175.827 79.8333 175.627 80.5 175.227 81.3C175.06 81.7 174.727 82.2167 174.227 82.85C173.76 83.45 173.293 83.8833 172.827 84.15C173.527 83.9167 174.41 83.7667 175.477 83.7C176.577 83.6 177.493 83.55 178.227 83.55C178.66 83.55 179.193 83.6833 179.827 83.95C180.46 84.1833 180.777 84.6167 180.777 85.25C180.777 85.6833 180.577 86.15 180.177 86.65C180.077 86.7833 179.81 87.1 179.377 87.6C178.943 88.1 178.46 88.7 177.927 89.4C177.427 90.1 176.96 90.8 176.527 91.5C176.093 92.1333 175.743 92.7167 175.477 93.25C175.243 93.7833 175.127 94.2333 175.127 94.6C175.127 95.1333 175.427 95.4 176.027 95.4C176.727 95.4 177.66 95.0667 178.827 94.4C179.993 93.7333 181.243 92.8833 182.577 91.85C183.943 90.7833 185.193 89.6833 186.327 88.55C186.46 88.4167 186.577 88.35 186.677 88.35C186.81 88.35 186.877 88.4333 186.877 88.6C186.877 88.8 186.793 88.9833 186.627 89.15C185.46 90.3167 184.16 91.5167 182.727 92.75C181.327 93.95 179.86 94.9667 178.327 95.8C176.827 96.6333 175.36 97.05 173.927 97.05ZM187.243 97.05C186.21 97.05 185.41 96.7333 184.843 96.1C184.276 95.4333 183.993 94.5833 183.993 93.55C183.993 92.5833 184.243 91.5167 184.743 90.35C185.276 89.1833 186.11 88 187.243 86.8C188.41 85.5333 189.86 84.5167 191.593 83.75C193.326 82.95 194.976 82.55 196.543 82.55C197.81 82.55 198.893 82.8333 199.793 83.4C200.693 83.9333 201.293 84.6167 201.593 85.45C201.96 85.45 202.41 85.55 202.943 85.75C203.51 85.95 203.793 86.3167 203.793 86.85C203.793 87.2167 203.61 87.6333 203.243 88.1C203.01 88.4333 202.593 88.9333 201.993 89.6C201.426 90.2667 200.893 90.9833 200.393 91.75C199.993 92.35 199.676 92.9167 199.443 93.45C199.21 93.95 199.093 94.3833 199.093 94.75C199.093 95.25 199.343 95.5 199.843 95.5C200.41 95.5 201.26 95.1833 202.393 94.55C203.626 93.85 204.81 93.05 205.943 92.15C207.076 91.25 207.96 90.5333 208.593 90C208.76 89.8667 208.876 89.8 208.943 89.8C209.076 89.8 209.143 89.8833 209.143 90.05C209.143 90.25 209.06 90.4333 208.893 90.6C208.593 90.8667 208.01 91.3667 207.143 92.1C206.276 92.8333 205.276 93.6 204.143 94.4C203.043 95.2 201.96 95.85 200.893 96.35C200.36 96.5833 199.86 96.7667 199.393 96.9C198.96 97 198.56 97.05 198.193 97.05C197.293 97.05 196.61 96.8 196.143 96.3C195.676 95.7667 195.443 95.0833 195.443 94.25C195.443 93.9167 195.493 93.5667 195.593 93.2C195.693 92.8333 195.81 92.4667 195.943 92.1L196.293 91.25C195.426 92.3167 194.56 93.2167 193.693 93.95C192.826 94.65 191.96 95.2667 191.093 95.8C190.36 96.2333 189.66 96.55 188.993 96.75C188.36 96.95 187.776 97.05 187.243 97.05ZM188.793 95.75C189.393 95.75 190.26 95.4 191.393 94.7C192.526 93.9667 193.843 92.85 195.343 91.35C195.543 91.15 195.91 90.8 196.443 90.3C197.01 89.7667 197.61 89.1833 198.243 88.55C198.876 87.8833 199.41 87.2333 199.843 86.6C200.31 85.9333 200.543 85.3833 200.543 84.95C200.543 84.3167 199.993 84 198.893 84C197.926 84 196.76 84.3833 195.393 85.15C194.06 85.8833 192.776 86.9833 191.543 88.45C190.276 89.95 189.343 91.25 188.743 92.35C188.176 93.4167 187.893 94.2333 187.893 94.8C187.893 95.4333 188.193 95.75 188.793 95.75Z" fill="white"/>
<path d="M97.3965 120.07C97.4811 120.135 97.5234 120.174 97.5234 120.188C97.5234 120.201 97.6146 121.092 97.7969 122.863H97.2695C97.0026 121.867 96.5892 121.089 96.0293 120.529C95.4759 119.963 94.776 119.68 93.9297 119.68C93.1224 119.68 92.5007 119.924 92.0645 120.412C91.6283 120.894 91.4102 121.457 91.4102 122.102C91.4102 122.486 91.4915 122.84 91.6543 123.166C91.8171 123.485 92.0352 123.762 92.3086 123.996C92.582 124.224 92.8945 124.442 93.2461 124.65C93.6042 124.859 93.9785 125.057 94.3691 125.246C94.7598 125.428 95.1504 125.617 95.541 125.812C95.9316 126.001 96.3027 126.216 96.6543 126.457C97.0124 126.698 97.3281 126.958 97.6016 127.238C97.875 127.518 98.0931 127.857 98.2559 128.254C98.4186 128.651 98.5 129.087 98.5 129.562C98.5 130.676 98.0931 131.564 97.2793 132.229C96.4655 132.886 95.388 133.215 94.0469 133.215C93.2982 133.215 92.5365 133.055 91.7617 132.736C90.987 132.417 90.3424 132.03 89.8281 131.574L90.668 130.656C91.6966 131.555 92.8945 132.004 94.2617 132.004C95.0951 132.004 95.7917 131.796 96.3516 131.379C96.9115 130.956 97.1914 130.363 97.1914 129.602C97.1914 129.165 97.0612 128.771 96.8008 128.42C96.5469 128.062 96.2148 127.756 95.8047 127.502C95.3945 127.248 94.9421 127.004 94.4473 126.77C93.9525 126.529 93.4577 126.278 92.9629 126.018C92.4681 125.751 92.0156 125.464 91.6055 125.158C91.1953 124.846 90.86 124.458 90.5996 123.996C90.3457 123.527 90.2188 123.007 90.2188 122.434C90.2188 121.477 90.5801 120.689 91.3027 120.07C92.0254 119.445 92.9596 119.133 94.1055 119.133C94.5482 119.133 94.9681 119.169 95.3652 119.24C95.7689 119.312 96.0944 119.4 96.3418 119.504C96.5957 119.602 96.8138 119.706 96.9961 119.816C97.1849 119.921 97.3184 120.005 97.3965 120.07ZM101.254 124.582L103.871 131.496L106.156 126.281L105.551 124.582H106.566L109.184 131.516L111.293 126.691C111.436 126.366 111.524 126.089 111.557 125.861C111.596 125.633 111.579 125.464 111.508 125.354C111.443 125.243 111.355 125.165 111.244 125.119C111.133 125.074 110.993 125.051 110.824 125.051V124.582H112.602V124.875L109.145 133H108.734L106.41 126.867L103.754 133H103.383L100.199 124.582H101.254ZM117.562 124.582C117.947 124.582 118.298 124.624 118.617 124.709C118.936 124.794 119.206 124.901 119.428 125.031C119.649 125.161 119.844 125.321 120.014 125.51C120.189 125.699 120.326 125.887 120.424 126.076C120.528 126.258 120.616 126.457 120.688 126.672C120.759 126.887 120.808 127.072 120.834 127.229C120.86 127.385 120.88 127.544 120.893 127.707C120.906 127.87 120.909 127.977 120.902 128.029C120.902 128.081 120.902 128.124 120.902 128.156H115.141C115.134 128.293 115.131 128.426 115.131 128.557C115.131 129.611 115.346 130.435 115.775 131.027C116.257 131.691 116.951 132.023 117.855 132.023C118.116 132.023 118.376 131.975 118.637 131.877C118.904 131.779 119.125 131.672 119.301 131.555C119.477 131.431 119.646 131.291 119.809 131.135C119.971 130.979 120.076 130.871 120.121 130.812C120.173 130.747 120.212 130.695 120.238 130.656L120.922 131.262L120.795 131.438C120.71 131.561 120.574 131.708 120.385 131.877C120.202 132.046 119.988 132.215 119.74 132.385C119.499 132.554 119.193 132.701 118.822 132.824C118.451 132.941 118.064 133 117.66 133C116.599 133 115.733 132.596 115.062 131.789C114.398 130.982 114.066 129.979 114.066 128.781C114.066 127.544 114.395 126.535 115.053 125.754C115.71 124.973 116.547 124.582 117.562 124.582ZM115.18 127.766H119.867C119.867 127.648 119.854 127.502 119.828 127.326C119.809 127.15 119.75 126.919 119.652 126.633C119.561 126.34 119.438 126.076 119.281 125.842C119.132 125.607 118.907 125.406 118.607 125.236C118.308 125.061 117.96 124.973 117.562 124.973C117.172 124.973 116.824 125.061 116.518 125.236C116.218 125.412 115.987 125.617 115.824 125.852C115.668 126.079 115.538 126.34 115.434 126.633C115.329 126.926 115.261 127.157 115.229 127.326C115.202 127.495 115.186 127.642 115.18 127.766ZM126.117 124.582C126.501 124.582 126.853 124.624 127.172 124.709C127.491 124.794 127.761 124.901 127.982 125.031C128.204 125.161 128.399 125.321 128.568 125.51C128.744 125.699 128.881 125.887 128.979 126.076C129.083 126.258 129.171 126.457 129.242 126.672C129.314 126.887 129.363 127.072 129.389 127.229C129.415 127.385 129.434 127.544 129.447 127.707C129.46 127.87 129.464 127.977 129.457 128.029C129.457 128.081 129.457 128.124 129.457 128.156H123.695C123.689 128.293 123.686 128.426 123.686 128.557C123.686 129.611 123.9 130.435 124.33 131.027C124.812 131.691 125.505 132.023 126.41 132.023C126.671 132.023 126.931 131.975 127.191 131.877C127.458 131.779 127.68 131.672 127.855 131.555C128.031 131.431 128.201 131.291 128.363 131.135C128.526 130.979 128.63 130.871 128.676 130.812C128.728 130.747 128.767 130.695 128.793 130.656L129.477 131.262L129.35 131.438C129.265 131.561 129.128 131.708 128.939 131.877C128.757 132.046 128.542 132.215 128.295 132.385C128.054 132.554 127.748 132.701 127.377 132.824C127.006 132.941 126.618 133 126.215 133C125.154 133 124.288 132.596 123.617 131.789C122.953 130.982 122.621 129.979 122.621 128.781C122.621 127.544 122.95 126.535 123.607 125.754C124.265 124.973 125.102 124.582 126.117 124.582ZM123.734 127.766H128.422C128.422 127.648 128.409 127.502 128.383 127.326C128.363 127.15 128.305 126.919 128.207 126.633C128.116 126.34 127.992 126.076 127.836 125.842C127.686 125.607 127.462 125.406 127.162 125.236C126.863 125.061 126.514 124.973 126.117 124.973C125.727 124.973 125.378 125.061 125.072 125.236C124.773 125.412 124.542 125.617 124.379 125.852C124.223 126.079 124.092 126.34 123.988 126.633C123.884 126.926 123.816 127.157 123.783 127.326C123.757 127.495 123.741 127.642 123.734 127.766ZM132.953 122.395V124.602H135.531V125.031H132.953V130.598C132.953 130.76 132.953 130.894 132.953 130.998C132.96 131.102 132.969 131.229 132.982 131.379C133.002 131.522 133.028 131.639 133.061 131.73C133.093 131.815 133.135 131.903 133.188 131.994C133.246 132.085 133.321 132.154 133.412 132.199C133.503 132.238 133.611 132.258 133.734 132.258C133.962 132.258 134.245 132.183 134.584 132.033C134.929 131.877 135.173 131.753 135.316 131.662C135.466 131.571 135.583 131.496 135.668 131.438L135.824 131.77L135.434 132.082C135.167 132.297 134.835 132.505 134.438 132.707C134.047 132.915 133.721 133.02 133.461 133.02C132.471 133.02 131.977 132.303 131.977 130.871V125.031H130.746V124.602H131.977V122.395H132.953ZM136.879 131.867L137.445 131.184C137.471 131.21 137.507 131.245 137.553 131.291C137.605 131.337 137.715 131.418 137.885 131.535C138.054 131.646 138.23 131.747 138.412 131.838C138.594 131.923 138.826 132.001 139.105 132.072C139.392 132.144 139.678 132.18 139.965 132.18C140.531 132.18 140.967 132.04 141.273 131.76C141.586 131.473 141.742 131.145 141.742 130.773C141.742 130.546 141.661 130.334 141.498 130.139C141.335 129.943 141.12 129.774 140.854 129.631C140.593 129.488 140.303 129.348 139.984 129.211C139.672 129.068 139.356 128.915 139.037 128.752C138.725 128.589 138.435 128.41 138.168 128.215C137.908 128.02 137.696 127.779 137.533 127.492C137.37 127.206 137.289 126.887 137.289 126.535C137.289 125.949 137.514 125.451 137.963 125.041C138.412 124.631 139.04 124.426 139.848 124.426C140.271 124.426 140.681 124.471 141.078 124.562C141.482 124.654 141.778 124.745 141.967 124.836L142.25 124.973V126.848H141.859C141.853 126.796 141.84 126.727 141.82 126.643C141.807 126.551 141.752 126.392 141.654 126.164C141.563 125.936 141.446 125.738 141.303 125.568C141.166 125.393 140.958 125.233 140.678 125.09C140.404 124.947 140.089 124.875 139.73 124.875C139.275 124.875 138.9 125.005 138.607 125.266C138.314 125.52 138.168 125.871 138.168 126.32C138.168 126.607 138.249 126.867 138.412 127.102C138.581 127.336 138.796 127.535 139.057 127.697C139.324 127.854 139.617 128.007 139.936 128.156C140.261 128.306 140.583 128.459 140.902 128.615C141.228 128.771 141.521 128.941 141.781 129.123C142.048 129.299 142.263 129.523 142.426 129.797C142.595 130.064 142.68 130.363 142.68 130.695C142.68 131.405 142.416 131.981 141.889 132.424C141.361 132.86 140.72 133.078 139.965 133.078C139.581 133.078 139.21 133.036 138.852 132.951C138.5 132.867 138.207 132.766 137.973 132.648C137.745 132.531 137.543 132.414 137.367 132.297C137.198 132.18 137.074 132.079 136.996 131.994L136.879 131.867ZM154.691 121.125C155.017 121.125 155.326 121.164 155.619 121.242C155.912 121.314 156.186 121.431 156.439 121.594C156.693 121.75 156.895 121.975 157.045 122.268C157.195 122.561 157.27 122.902 157.27 123.293C157.27 123.579 157.221 123.85 157.123 124.104C157.025 124.351 156.902 124.569 156.752 124.758C156.609 124.94 156.417 125.126 156.176 125.314C155.935 125.497 155.707 125.653 155.492 125.783C155.277 125.907 155.014 126.047 154.701 126.203L156.234 128.039C156.801 128.729 157.289 129.299 157.699 129.748C158.415 128.85 158.897 127.896 159.145 126.887H160.258C159.926 128.182 159.311 129.387 158.412 130.5C159.454 131.555 160.251 132.082 160.805 132.082C161.007 132.082 161.192 132.049 161.361 131.984C161.531 131.913 161.638 131.857 161.684 131.818C161.729 131.773 161.762 131.737 161.781 131.711L162.016 131.887L161.938 132.004C161.892 132.076 161.817 132.167 161.713 132.277C161.609 132.388 161.488 132.499 161.352 132.609C161.221 132.72 161.055 132.814 160.854 132.893C160.652 132.964 160.447 133 160.238 133C159.6 133 158.728 132.453 157.621 131.359C156.41 132.492 155.134 133.059 153.793 133.059C152.816 133.059 151.99 132.759 151.312 132.16C150.635 131.561 150.297 130.793 150.297 129.855C150.297 129.458 150.355 129.094 150.473 128.762C150.596 128.43 150.74 128.156 150.902 127.941C151.072 127.72 151.306 127.502 151.605 127.287C151.905 127.072 152.165 126.906 152.387 126.789C152.615 126.672 152.914 126.529 153.285 126.359C152.855 125.793 152.533 125.285 152.318 124.836C152.104 124.387 151.996 123.938 151.996 123.488C151.996 122.896 152.263 122.355 152.797 121.867C153.337 121.372 153.969 121.125 154.691 121.125ZM155.219 128.664C154.379 127.688 153.842 127.053 153.607 126.76C153.262 126.942 152.966 127.121 152.719 127.297C152.478 127.466 152.247 127.658 152.025 127.873C151.804 128.081 151.635 128.326 151.518 128.605C151.407 128.879 151.352 129.178 151.352 129.504C151.352 129.816 151.397 130.116 151.488 130.402C151.579 130.689 151.719 130.959 151.908 131.213C152.104 131.46 152.37 131.659 152.709 131.809C153.048 131.952 153.441 132.023 153.891 132.023C154.893 132.023 155.899 131.551 156.908 130.607C156.492 130.152 155.928 129.504 155.219 128.664ZM153.031 122.941C153.031 123.365 153.142 123.801 153.363 124.25C153.585 124.693 153.93 125.217 154.398 125.822C154.965 125.516 155.401 125.174 155.707 124.797C156.02 124.413 156.176 123.924 156.176 123.332C156.176 122.121 155.635 121.516 154.555 121.516C154.138 121.516 153.78 121.646 153.48 121.906C153.181 122.16 153.031 122.505 153.031 122.941ZM177.006 120.07C177.09 120.135 177.133 120.174 177.133 120.188C177.133 120.201 177.224 121.092 177.406 122.863H176.879C176.612 121.867 176.199 121.089 175.639 120.529C175.085 119.963 174.385 119.68 173.539 119.68C172.732 119.68 172.11 119.924 171.674 120.412C171.238 120.894 171.02 121.457 171.02 122.102C171.02 122.486 171.101 122.84 171.264 123.166C171.426 123.485 171.645 123.762 171.918 123.996C172.191 124.224 172.504 124.442 172.855 124.65C173.214 124.859 173.588 125.057 173.979 125.246C174.369 125.428 174.76 125.617 175.15 125.812C175.541 126.001 175.912 126.216 176.264 126.457C176.622 126.698 176.938 126.958 177.211 127.238C177.484 127.518 177.702 127.857 177.865 128.254C178.028 128.651 178.109 129.087 178.109 129.562C178.109 130.676 177.702 131.564 176.889 132.229C176.075 132.886 174.997 133.215 173.656 133.215C172.908 133.215 172.146 133.055 171.371 132.736C170.596 132.417 169.952 132.03 169.438 131.574L170.277 130.656C171.306 131.555 172.504 132.004 173.871 132.004C174.704 132.004 175.401 131.796 175.961 131.379C176.521 130.956 176.801 130.363 176.801 129.602C176.801 129.165 176.671 128.771 176.41 128.42C176.156 128.062 175.824 127.756 175.414 127.502C175.004 127.248 174.551 127.004 174.057 126.77C173.562 126.529 173.067 126.278 172.572 126.018C172.077 125.751 171.625 125.464 171.215 125.158C170.805 124.846 170.469 124.458 170.209 123.996C169.955 123.527 169.828 123.007 169.828 122.434C169.828 121.477 170.189 120.689 170.912 120.07C171.635 119.445 172.569 119.133 173.715 119.133C174.158 119.133 174.577 119.169 174.975 119.24C175.378 119.312 175.704 119.4 175.951 119.504C176.205 119.602 176.423 119.706 176.605 119.816C176.794 119.921 176.928 120.005 177.006 120.07ZM183.578 124.484C184.079 124.484 184.512 124.533 184.877 124.631C185.242 124.729 185.525 124.852 185.727 125.002C185.935 125.152 186.098 125.347 186.215 125.588C186.339 125.829 186.417 126.063 186.449 126.291C186.488 126.519 186.508 126.789 186.508 127.102V133H185.629L185.531 131.438C185.212 131.952 184.766 132.349 184.193 132.629C183.62 132.902 183.103 133.039 182.641 133.039C182.009 133.039 181.459 132.857 180.99 132.492C180.528 132.121 180.297 131.561 180.297 130.812C180.297 130.402 180.375 130.038 180.531 129.719C180.688 129.4 180.909 129.143 181.195 128.947C181.482 128.752 181.788 128.589 182.113 128.459C182.439 128.329 182.816 128.234 183.246 128.176C183.676 128.111 184.06 128.068 184.398 128.049C184.743 128.029 185.121 128.02 185.531 128.02C185.531 127.967 185.525 127.674 185.512 127.141C185.505 126.854 185.479 126.617 185.434 126.428C185.388 126.239 185.3 126.06 185.17 125.891C185.04 125.715 184.841 125.588 184.574 125.51C184.314 125.425 183.982 125.383 183.578 125.383C182.823 125.383 182.068 125.539 181.312 125.852L181.137 125.012L181.42 124.875C181.609 124.79 181.905 124.706 182.309 124.621C182.719 124.53 183.142 124.484 183.578 124.484ZM185.531 130.109C185.531 130.109 185.531 129.556 185.531 128.449C182.758 128.449 181.371 129.198 181.371 130.695C181.371 131.203 181.524 131.613 181.83 131.926C182.143 132.238 182.556 132.395 183.07 132.395C183.702 132.395 184.268 132.154 184.77 131.672C185.277 131.184 185.531 130.663 185.531 130.109ZM189.066 124.582L192.172 131.672L194.262 126.574C194.411 126.216 194.486 125.92 194.486 125.686C194.48 125.262 194.236 125.051 193.754 125.051V124.582H195.492V124.875L192.172 133H191.605L188.012 124.582H189.066ZM200.434 124.289C201.592 124.289 202.501 124.696 203.158 125.51C203.816 126.324 204.145 127.368 204.145 128.645C204.145 129.263 204.066 129.839 203.91 130.373C203.76 130.9 203.539 131.372 203.246 131.789C202.953 132.199 202.566 132.525 202.084 132.766C201.609 133 201.065 133.117 200.453 133.117C199.835 133.117 199.285 133 198.803 132.766C198.321 132.525 197.934 132.199 197.641 131.789C197.348 131.372 197.123 130.9 196.967 130.373C196.817 129.839 196.742 129.263 196.742 128.645C196.742 127.368 197.068 126.324 197.719 125.51C198.376 124.696 199.281 124.289 200.434 124.289ZM200.453 132.648C200.811 132.648 201.143 132.58 201.449 132.443C201.762 132.307 202.051 132.092 202.318 131.799C202.585 131.506 202.797 131.092 202.953 130.559C203.109 130.018 203.188 129.387 203.188 128.664C203.188 127.629 202.924 126.815 202.396 126.223C201.876 125.624 201.234 125.324 200.473 125.324C199.704 125.324 199.057 125.624 198.529 126.223C198.002 126.815 197.738 127.629 197.738 128.664C197.738 129.25 197.79 129.774 197.895 130.236C197.999 130.699 198.135 131.079 198.305 131.379C198.48 131.672 198.686 131.916 198.92 132.111C199.161 132.307 199.405 132.447 199.652 132.531C199.906 132.609 200.173 132.648 200.453 132.648ZM206.449 133V126.633C206.449 126.073 206.339 125.513 206.117 124.953L207.074 124.562C207.172 124.79 207.289 125.246 207.426 125.93C207.465 125.884 207.523 125.822 207.602 125.744C207.68 125.666 207.813 125.546 208.002 125.383C208.197 125.22 208.396 125.074 208.598 124.943C208.799 124.813 209.037 124.699 209.311 124.602C209.59 124.497 209.854 124.445 210.102 124.445C210.531 124.445 210.844 124.517 211.039 124.66L210.414 125.812L210.316 125.734C210.251 125.676 210.141 125.62 209.984 125.568C209.835 125.51 209.672 125.48 209.496 125.48C208.956 125.48 208.48 125.663 208.07 126.027C207.667 126.385 207.465 126.815 207.465 127.316V133H206.449ZM212.055 135.598C212.257 135.598 212.436 135.591 212.592 135.578C212.748 135.565 212.895 135.533 213.031 135.48C213.168 135.435 213.282 135.393 213.373 135.354C213.471 135.314 213.568 135.24 213.666 135.129C213.77 135.018 213.852 134.924 213.91 134.846C213.969 134.774 214.044 134.647 214.135 134.465C214.232 134.283 214.311 134.13 214.369 134.006C214.428 133.889 214.516 133.7 214.633 133.439C214.757 133.179 214.861 132.961 214.945 132.785L211.254 124.582H212.348L215.492 131.496L217.465 126.711C217.608 126.359 217.699 126.073 217.738 125.852C217.771 125.624 217.751 125.454 217.68 125.344C217.615 125.233 217.53 125.158 217.426 125.119C217.322 125.074 217.185 125.051 217.016 125.051V124.572L218.754 124.562V124.855C218.383 125.76 217.969 126.779 217.514 127.912C216.192 131.193 215.359 133.205 215.014 133.947C214.467 135.139 213.972 135.917 213.529 136.281C213.171 136.581 212.68 136.73 212.055 136.73V135.598Z" fill="white"/>
<rect y="251" width="308" height="50" rx="25" fill="#F5F5F5"/>
<path d="M31.7266 271.57C31.4193 271.383 31.0156 271.289 30.5156 271.289C30.0156 271.289 29.5573 271.391 29.1406 271.594C28.7344 271.797 28.3802 272.086 28.0781 272.461C27.4427 273.258 27.1224 274.294 27.1172 275.57C27.1172 278.211 27.7656 279.87 29.0625 280.547C29.474 280.766 29.8932 280.875 30.3203 280.875C30.3255 280.875 30.3307 280.872 30.3359 280.867C30.763 280.867 31.1016 280.833 31.3516 280.766C31.6068 280.698 31.8359 280.617 32.0391 280.523C32.2422 280.424 32.4219 280.323 32.5781 280.219C32.8802 280.01 33.0703 279.906 33.1484 279.906C33.2214 279.906 33.2943 279.935 33.3672 279.992C33.4401 280.049 33.5078 280.12 33.5703 280.203C33.7109 280.385 33.7812 280.544 33.7812 280.68C33.7812 280.82 33.7318 280.935 33.6328 281.023C33.5391 281.107 33.3906 281.216 33.1875 281.352C32.9896 281.482 32.7448 281.607 32.4531 281.727C31.75 282.013 31.0286 282.156 30.2891 282.156C29.5495 282.156 28.8854 282.042 28.2969 281.812C27.7135 281.578 27.1979 281.219 26.75 280.734C25.7812 279.682 25.2969 278.193 25.2969 276.266C25.2969 274.255 25.8021 272.703 26.8125 271.609C27.75 270.594 28.9948 270.086 30.5469 270.086H30.5703C31.388 270.086 32.138 270.284 32.8203 270.68C33.5755 271.117 33.9531 271.659 33.9531 272.305C33.9531 272.638 33.8385 272.924 33.6094 273.164C33.3854 273.393 33.1016 273.508 32.7578 273.508C32.4193 273.508 32.1354 273.393 31.9062 273.164C31.6719 272.93 31.5547 272.654 31.5547 272.336C31.5547 272.023 31.612 271.768 31.7266 271.57ZM38.4922 282.156C37.9349 282.156 37.4453 282.052 37.0234 281.844C36.6016 281.635 36.2448 281.344 35.9531 280.969C35.3698 280.214 35.0781 279.224 35.0781 278C35.0781 276.719 35.474 275.719 36.2656 275C36.9844 274.349 37.8906 274.023 38.9844 274.023H39.0078C40.0286 274.023 40.849 274.411 41.4688 275.188C42.0625 275.927 42.3594 276.885 42.3594 278.062C42.3594 279.375 41.9948 280.396 41.2656 281.125C40.5781 281.812 39.6536 282.156 38.4922 282.156ZM37.3594 275.773C37.1615 275.982 36.9974 276.268 36.8672 276.633C36.7422 276.992 36.6797 277.435 36.6797 277.961C36.6797 278.492 36.7292 278.943 36.8281 279.312C36.9323 279.677 37.0729 279.979 37.25 280.219C37.6094 280.708 38.1068 280.953 38.7422 280.953C39.3984 280.953 39.9062 280.667 40.2656 280.094C40.5938 279.573 40.7578 278.891 40.7578 278.047C40.7526 276.635 40.3385 275.75 39.5156 275.391C39.2656 275.281 39.013 275.227 38.7578 275.227C38.4974 275.227 38.2474 275.266 38.0078 275.344C37.7734 275.422 37.5573 275.565 37.3594 275.773ZM43.6172 282C43.4766 282 43.4062 281.841 43.4062 281.523C43.4062 281.273 43.4453 281.107 43.5234 281.023C43.6016 280.94 43.6693 280.898 43.7266 280.898H43.8047C44.4089 280.898 44.7526 280.839 44.8359 280.719C44.8672 280.677 44.8828 280.625 44.8828 280.562V275.383H43.3906C43.3906 274.81 43.4245 274.466 43.4922 274.352C43.5651 274.237 43.6432 274.18 43.7266 274.18H43.8047C44.4089 274.18 44.7526 274.12 44.8359 274C44.8672 273.958 44.8828 273.906 44.8828 273.844V272.859C44.8828 271.359 45.349 270.372 46.2812 269.898C46.625 269.721 46.9766 269.633 47.3359 269.633C47.6953 269.633 47.974 269.651 48.1719 269.688C48.3698 269.724 48.5469 269.792 48.7031 269.891C49.0677 270.115 49.25 270.461 49.25 270.93C49.25 271.237 49.1458 271.495 48.9375 271.703C48.7396 271.901 48.487 272 48.1797 272C47.6953 272 47.3646 271.786 47.1875 271.359C47.1354 271.229 47.1094 271.086 47.1094 270.93V270.68H47.1016C46.6797 270.68 46.4531 271.12 46.4219 272C46.4115 272.25 46.4062 272.5 46.4062 272.75V274.18H48.5078C48.638 274.18 48.7031 274.333 48.7031 274.641C48.7031 274.943 48.6406 275.167 48.5156 275.312C48.4792 275.359 48.4297 275.383 48.3672 275.383H46.4062V280.898H48.1719C48.3125 280.898 48.3828 281.057 48.3828 281.375C48.3828 281.625 48.3438 281.792 48.2656 281.875C48.1875 281.958 48.1198 282 48.0625 282H43.6172ZM49.8047 282C49.6641 282 49.5938 281.841 49.5938 281.523C49.5938 281.273 49.6328 281.107 49.7109 281.023C49.7891 280.94 49.8568 280.898 49.9141 280.898H49.9922C50.5964 280.898 50.9401 280.839 51.0234 280.719C51.0547 280.677 51.0703 280.625 51.0703 280.562V275.383H49.5781C49.5781 274.81 49.612 274.466 49.6797 274.352C49.7526 274.237 49.8307 274.18 49.9141 274.18H49.9922C50.5964 274.18 50.9401 274.12 51.0234 274C51.0547 273.958 51.0703 273.906 51.0703 273.844V272.859C51.0703 271.359 51.5365 270.372 52.4688 269.898C52.8125 269.721 53.1641 269.633 53.5234 269.633C53.8828 269.633 54.1615 269.651 54.3594 269.688C54.5573 269.724 54.7344 269.792 54.8906 269.891C55.2552 270.115 55.4375 270.461 55.4375 270.93C55.4375 271.237 55.3333 271.495 55.125 271.703C54.9271 271.901 54.6745 272 54.3672 272C53.8828 272 53.5521 271.786 53.375 271.359C53.3229 271.229 53.2969 271.086 53.2969 270.93V270.68H53.2891C52.8672 270.68 52.6406 271.12 52.6094 272C52.599 272.25 52.5938 272.5 52.5938 272.75V274.18H54.6953C54.8255 274.18 54.8906 274.333 54.8906 274.641C54.8906 274.943 54.8281 275.167 54.7031 275.312C54.6667 275.359 54.6172 275.383 54.5547 275.383H52.5938V280.898H54.3594C54.5 280.898 54.5703 281.057 54.5703 281.375C54.5703 281.625 54.5312 281.792 54.4531 281.875C54.375 281.958 54.3073 282 54.25 282H49.8047ZM55.7734 277.984C55.7734 277.339 55.8802 276.766 56.0938 276.266C56.3021 275.776 56.5833 275.365 56.9375 275.031C57.6562 274.365 58.5443 274.029 59.6016 274.023H59.625C60.5938 274.023 61.3411 274.328 61.8672 274.938C62.3932 275.542 62.6562 276.414 62.6562 277.555C62.6562 277.799 62.5443 278.01 62.3203 278.188C62.1016 278.359 61.8255 278.445 61.4922 278.445H57.375C57.4688 279.664 57.8932 280.445 58.6484 280.789C58.888 280.898 59.1406 280.953 59.4062 280.953C59.6719 280.953 59.9089 280.924 60.1172 280.867C60.3255 280.805 60.526 280.729 60.7188 280.641C60.9115 280.547 61.099 280.443 61.2812 280.328C61.6615 280.089 61.8854 279.969 61.9531 279.969C62.0156 279.974 62.0833 280.005 62.1562 280.062C62.2188 280.125 62.2812 280.198 62.3438 280.281C62.4792 280.479 62.5495 280.646 62.5547 280.781V280.797C62.5547 280.922 62.526 281.005 62.4688 281.047C61.5156 281.786 60.4323 282.156 59.2188 282.156C58.1302 282.156 57.2812 281.776 56.6719 281.016C56.0729 280.276 55.7734 279.266 55.7734 277.984ZM61.0547 277.273V277.242C61.0547 276.211 60.7552 275.576 60.1562 275.336C59.9688 275.263 59.7604 275.227 59.5312 275.227C59.3021 275.227 59.0625 275.268 58.8125 275.352C58.5625 275.44 58.3333 275.568 58.125 275.734C57.6615 276.115 57.4115 276.628 57.375 277.273H61.0547ZM63.9141 277.984C63.9141 277.339 64.0208 276.766 64.2344 276.266C64.4427 275.776 64.724 275.365 65.0781 275.031C65.7969 274.365 66.6849 274.029 67.7422 274.023H67.7656C68.7344 274.023 69.4818 274.328 70.0078 274.938C70.5339 275.542 70.7969 276.414 70.7969 277.555C70.7969 277.799 70.6849 278.01 70.4609 278.188C70.2422 278.359 69.9661 278.445 69.6328 278.445H65.5156C65.6094 279.664 66.0339 280.445 66.7891 280.789C67.0286 280.898 67.2812 280.953 67.5469 280.953C67.8125 280.953 68.0495 280.924 68.2578 280.867C68.4661 280.805 68.6667 280.729 68.8594 280.641C69.0521 280.547 69.2396 280.443 69.4219 280.328C69.8021 280.089 70.026 279.969 70.0938 279.969C70.1562 279.974 70.224 280.005 70.2969 280.062C70.3594 280.125 70.4219 280.198 70.4844 280.281C70.6198 280.479 70.6901 280.646 70.6953 280.781V280.797C70.6953 280.922 70.6667 281.005 70.6094 281.047C69.6562 281.786 68.5729 282.156 67.3594 282.156C66.2708 282.156 65.4219 281.776 64.8125 281.016C64.2135 280.276 63.9141 279.266 63.9141 277.984ZM69.1953 277.273V277.242C69.1953 276.211 68.8958 275.576 68.2969 275.336C68.1094 275.263 67.901 275.227 67.6719 275.227C67.4427 275.227 67.2031 275.268 66.9531 275.352C66.7031 275.44 66.474 275.568 66.2656 275.734C65.8021 276.115 65.5521 276.628 65.5156 277.273H69.1953Z" fill="black"/>
<path d="M122.156 280.898C122.292 280.898 122.359 281.057 122.359 281.375C122.359 281.625 122.32 281.792 122.242 281.875C122.164 281.958 122.096 282 122.039 282H117.461C117.336 282 117.273 281.854 117.273 281.562V281.539C117.273 281.289 117.344 281.094 117.484 280.953C117.526 280.911 117.609 280.891 117.734 280.891H117.758C117.779 280.896 117.802 280.898 117.828 280.898C117.948 280.898 118.07 280.891 118.195 280.875C118.346 280.865 118.464 280.846 118.547 280.82C118.693 280.773 118.766 280.688 118.766 280.562V271.461C118.766 271.383 118.732 271.344 118.664 271.344H117.391C117.245 271.344 117.146 271.203 117.094 270.922C117.083 270.849 117.076 270.776 117.07 270.703C117.07 270.396 117.141 270.242 117.281 270.242H121.625C122.828 270.247 123.784 270.536 124.492 271.109C125.206 271.688 125.562 272.479 125.562 273.484C125.562 275.885 123.846 277.086 120.414 277.086V280.898H122.156ZM120.414 275.883C121.508 275.878 122.299 275.745 122.789 275.484C123.424 275.146 123.742 274.547 123.742 273.688V273.664C123.742 272.799 123.484 272.208 122.969 271.891C122.49 271.594 121.638 271.445 120.414 271.445V275.883ZM129 275.125C129.062 275.26 129.094 275.414 129.094 275.586C129.094 275.758 129.068 275.909 129.016 276.039C128.953 276.169 128.875 276.281 128.781 276.375C128.583 276.573 128.331 276.674 128.023 276.68C127.539 276.68 127.208 276.466 127.031 276.039C126.979 275.909 126.953 275.747 126.953 275.555C126.953 275.367 127.008 275.19 127.117 275.023C127.227 274.857 127.37 274.714 127.547 274.594C127.729 274.474 127.932 274.378 128.156 274.305C128.385 274.232 128.617 274.174 128.852 274.133C129.263 274.06 129.714 274.023 130.203 274.023C130.688 274.023 131.107 274.102 131.461 274.258C131.82 274.414 132.104 274.625 132.312 274.891C132.672 275.354 132.852 276.01 132.852 276.859V280.898H134.164C134.305 280.898 134.375 281.052 134.375 281.359C134.375 281.495 134.349 281.63 134.297 281.766C134.245 281.896 134.164 281.974 134.055 282C133.763 282.083 133.346 282.125 132.805 282.125C132.258 282.125 131.953 282.115 131.891 282.094C131.828 282.078 131.771 282.047 131.719 282C131.62 281.911 131.521 281.732 131.422 281.461C130.786 281.924 130.021 282.156 129.125 282.156C128.323 282.156 127.693 281.943 127.234 281.516C126.802 281.12 126.586 280.602 126.586 279.961V279.938C126.586 279.141 126.88 278.518 127.469 278.07C127.984 277.674 128.628 277.477 129.398 277.477H131.328C131.328 276.607 131.255 276.047 131.109 275.797C130.969 275.542 130.797 275.367 130.594 275.273C130.396 275.174 130.13 275.125 129.797 275.125H129ZM129.406 280.953C130.062 280.953 130.703 280.693 131.328 280.172V278.648H129.625C129.208 278.648 128.901 278.719 128.703 278.859C128.344 279.109 128.164 279.398 128.164 279.727C128.164 280.341 128.419 280.727 128.93 280.883C129.081 280.93 129.24 280.953 129.406 280.953ZM136.93 280.953H137.82C138.544 280.953 139.031 280.732 139.281 280.289C139.354 280.154 139.391 280.005 139.391 279.844C139.391 279.682 139.352 279.544 139.273 279.43C139.201 279.31 139.083 279.201 138.922 279.102C138.677 278.951 138.268 278.789 137.695 278.617C137.128 278.44 136.695 278.289 136.398 278.164C136.102 278.034 135.844 277.88 135.625 277.703C135.177 277.328 134.953 276.812 134.953 276.156C134.953 275.193 135.492 274.544 136.57 274.211C136.977 274.086 137.378 274.023 137.773 274.023C138.164 274.023 138.526 274.049 138.859 274.102C139.203 274.154 139.51 274.242 139.781 274.367C140.401 274.654 140.711 275.062 140.711 275.594V275.633C140.711 275.924 140.609 276.172 140.406 276.375C140.208 276.573 139.953 276.674 139.641 276.68C139.151 276.68 138.818 276.466 138.641 276.039C138.589 275.909 138.562 275.802 138.562 275.719C138.562 275.635 138.594 275.438 138.656 275.125H137.883C137.461 275.125 137.148 275.198 136.945 275.344C136.576 275.599 136.391 275.88 136.391 276.188C136.391 276.594 136.755 276.922 137.484 277.172L138.078 277.375C139.083 277.708 139.729 277.992 140.016 278.227C140.302 278.461 140.51 278.716 140.641 278.992C140.771 279.268 140.836 279.583 140.836 279.938C140.836 280.297 140.766 280.607 140.625 280.867C140.49 281.133 140.297 281.359 140.047 281.547C139.51 281.953 138.812 282.156 137.953 282.156C137.193 282.156 136.51 282.042 135.906 281.812C135.458 281.646 135.141 281.406 134.953 281.094C134.859 280.938 134.812 280.768 134.812 280.586C134.812 280.409 134.839 280.255 134.891 280.125C134.953 279.99 135.031 279.875 135.125 279.781C135.328 279.583 135.583 279.484 135.891 279.484C136.193 279.484 136.448 279.586 136.656 279.789C136.865 279.987 136.969 280.211 136.969 280.461V280.469C136.964 280.729 136.951 280.891 136.93 280.953ZM144.75 282.156C143.682 282.156 143.148 281.435 143.148 279.992V275.383H141.664C141.664 274.81 141.698 274.466 141.766 274.352C141.839 274.237 141.917 274.18 142 274.18H142.078C142.719 274.18 143.104 274.12 143.234 274C143.286 273.958 143.315 273.906 143.32 273.844L143.656 272.117C143.719 271.831 144.057 271.688 144.672 271.688V274.18H146.781C146.911 274.18 146.977 274.333 146.977 274.641C146.971 274.943 146.906 275.167 146.781 275.312C146.745 275.359 146.698 275.383 146.641 275.383H144.672V279.992C144.672 280.576 144.844 280.867 145.188 280.867C145.578 280.867 145.854 280.839 146.016 280.781C146.182 280.719 146.297 280.688 146.359 280.688C146.417 280.688 146.474 280.708 146.531 280.75C146.594 280.786 146.646 280.836 146.688 280.898C146.776 281.034 146.82 281.174 146.82 281.32C146.82 281.477 146.771 281.578 146.672 281.625C146 281.979 145.359 282.156 144.75 282.156ZM150.477 274.602L150.469 274.914C150.469 274.977 150.466 275.039 150.461 275.102C150.461 275.164 150.461 275.221 150.461 275.273C151.07 274.716 151.682 274.333 152.297 274.125C152.495 274.062 152.701 274.029 152.914 274.023H152.93C153.133 274.023 153.315 274.062 153.477 274.141C153.643 274.224 153.776 274.323 153.875 274.438C154.052 274.646 154.141 274.862 154.141 275.086C154.141 275.315 154.112 275.495 154.055 275.625C153.997 275.755 153.917 275.867 153.812 275.961C153.594 276.164 153.378 276.266 153.164 276.266C152.945 276.266 152.779 276.237 152.664 276.18C152.549 276.117 152.448 276.039 152.359 275.945C152.172 275.747 152.078 275.526 152.078 275.281C151.776 275.422 151.547 275.583 151.391 275.766C151.234 275.948 151.104 276.117 151 276.273L150.656 276.805V280.898H152.555C152.674 280.898 152.734 281.057 152.734 281.375C152.734 281.63 152.695 281.799 152.617 281.883C152.544 281.961 152.477 282 152.414 282H147.867C147.721 282 147.648 281.836 147.648 281.508C147.654 281.268 147.724 281.083 147.859 280.953C147.901 280.917 147.992 280.898 148.133 280.898C148.273 280.898 148.417 280.893 148.562 280.883C148.714 280.867 148.831 280.846 148.914 280.82C149.06 280.773 149.133 280.688 149.133 280.562V275.414H147.758C147.555 275.414 147.453 275.211 147.453 274.805C147.453 274.544 147.518 274.385 147.648 274.328C147.784 274.271 147.958 274.224 148.172 274.188C148.391 274.146 148.615 274.115 148.844 274.094C149.281 274.052 149.628 274.029 149.883 274.023H149.945C150.159 274.023 150.286 274.036 150.328 274.062C150.38 274.083 150.417 274.12 150.438 274.172C150.464 274.224 150.477 274.336 150.477 274.508V274.602ZM156.773 272.062C156.289 272.062 155.958 271.849 155.781 271.422C155.729 271.292 155.703 271.148 155.703 270.992C155.703 270.497 155.919 270.161 156.352 269.984C156.482 269.932 156.622 269.906 156.773 269.906C157.076 269.906 157.328 270.01 157.531 270.219C157.74 270.422 157.844 270.68 157.844 270.992C157.844 271.299 157.74 271.557 157.531 271.766C157.333 271.964 157.081 272.062 156.773 272.062ZM154.914 282C154.779 282 154.711 281.841 154.711 281.523C154.711 281.273 154.75 281.107 154.828 281.023C154.906 280.94 154.974 280.898 155.031 280.898H155.109C155.719 280.898 156.062 280.839 156.141 280.719C156.167 280.682 156.18 280.638 156.18 280.586V275.383H154.805C154.654 275.378 154.552 275.245 154.5 274.984C154.49 274.911 154.484 274.836 154.484 274.758C154.484 274.518 154.555 274.372 154.695 274.32C154.836 274.263 155.021 274.216 155.25 274.18C155.479 274.143 155.719 274.115 155.969 274.094C156.448 274.052 156.909 274.029 157.352 274.023H157.359C157.578 274.023 157.693 274.245 157.703 274.688V280.898H159.016C159.151 280.898 159.219 281.057 159.219 281.375C159.219 281.625 159.18 281.792 159.102 281.875C159.023 281.958 158.956 282 158.898 282H154.914ZM159.945 277.984C159.945 277.339 160.052 276.766 160.266 276.266C160.474 275.776 160.755 275.365 161.109 275.031C161.828 274.365 162.716 274.029 163.773 274.023H163.797C164.766 274.023 165.513 274.328 166.039 274.938C166.565 275.542 166.828 276.414 166.828 277.555C166.828 277.799 166.716 278.01 166.492 278.188C166.273 278.359 165.997 278.445 165.664 278.445H161.547C161.641 279.664 162.065 280.445 162.82 280.789C163.06 280.898 163.312 280.953 163.578 280.953C163.844 280.953 164.081 280.924 164.289 280.867C164.497 280.805 164.698 280.729 164.891 280.641C165.083 280.547 165.271 280.443 165.453 280.328C165.833 280.089 166.057 279.969 166.125 279.969C166.188 279.974 166.255 280.005 166.328 280.062C166.391 280.125 166.453 280.198 166.516 280.281C166.651 280.479 166.721 280.646 166.727 280.781V280.797C166.727 280.922 166.698 281.005 166.641 281.047C165.688 281.786 164.604 282.156 163.391 282.156C162.302 282.156 161.453 281.776 160.844 281.016C160.245 280.276 159.945 279.266 159.945 277.984ZM165.227 277.273V277.242C165.227 276.211 164.927 275.576 164.328 275.336C164.141 275.263 163.932 275.227 163.703 275.227C163.474 275.227 163.234 275.268 162.984 275.352C162.734 275.44 162.505 275.568 162.297 275.734C161.833 276.115 161.583 276.628 161.547 277.273H165.227ZM170.164 280.953H171.055C171.779 280.953 172.266 280.732 172.516 280.289C172.589 280.154 172.625 280.005 172.625 279.844C172.625 279.682 172.586 279.544 172.508 279.43C172.435 279.31 172.318 279.201 172.156 279.102C171.911 278.951 171.503 278.789 170.93 278.617C170.362 278.44 169.93 278.289 169.633 278.164C169.336 278.034 169.078 277.88 168.859 277.703C168.411 277.328 168.188 276.812 168.188 276.156C168.188 275.193 168.727 274.544 169.805 274.211C170.211 274.086 170.612 274.023 171.008 274.023C171.398 274.023 171.76 274.049 172.094 274.102C172.438 274.154 172.745 274.242 173.016 274.367C173.635 274.654 173.945 275.062 173.945 275.594V275.633C173.945 275.924 173.844 276.172 173.641 276.375C173.443 276.573 173.188 276.674 172.875 276.68C172.385 276.68 172.052 276.466 171.875 276.039C171.823 275.909 171.797 275.802 171.797 275.719C171.797 275.635 171.828 275.438 171.891 275.125H171.117C170.695 275.125 170.383 275.198 170.18 275.344C169.81 275.599 169.625 275.88 169.625 276.188C169.625 276.594 169.99 276.922 170.719 277.172L171.312 277.375C172.318 277.708 172.964 277.992 173.25 278.227C173.536 278.461 173.745 278.716 173.875 278.992C174.005 279.268 174.07 279.583 174.07 279.938C174.07 280.297 174 280.607 173.859 280.867C173.724 281.133 173.531 281.359 173.281 281.547C172.745 281.953 172.047 282.156 171.188 282.156C170.427 282.156 169.745 282.042 169.141 281.812C168.693 281.646 168.375 281.406 168.188 281.094C168.094 280.938 168.047 280.768 168.047 280.586C168.047 280.409 168.073 280.255 168.125 280.125C168.188 279.99 168.266 279.875 168.359 279.781C168.562 279.583 168.818 279.484 169.125 279.484C169.427 279.484 169.682 279.586 169.891 279.789C170.099 279.987 170.203 280.211 170.203 280.461V280.469C170.198 280.729 170.185 280.891 170.164 280.953Z" fill="black"/>
<path d="M228.031 277.648C228.031 277.862 227.844 277.969 227.469 277.969C227.094 277.969 226.906 277.898 226.906 277.758V276.578H224.414V280.898H226.094C226.229 280.898 226.297 281.057 226.297 281.375C226.297 281.625 226.258 281.792 226.18 281.875C226.102 281.958 226.034 282 225.977 282H221.5C221.359 282 221.289 281.846 221.289 281.539C221.294 281.273 221.359 281.078 221.484 280.953C221.526 280.911 221.609 280.891 221.734 280.891H221.758C221.779 280.896 221.802 280.898 221.828 280.898C221.948 280.898 222.07 280.891 222.195 280.875C222.346 280.865 222.464 280.846 222.547 280.82C222.693 280.773 222.766 280.688 222.766 280.562V271.453C222.766 271.38 222.734 271.344 222.672 271.344H221.391C221.245 271.344 221.146 271.208 221.094 270.938C221.083 270.865 221.076 270.797 221.07 270.734C221.07 270.406 221.138 270.242 221.273 270.242H229.867V272.516C229.867 272.693 229.685 272.781 229.32 272.781C228.951 272.781 228.766 272.724 228.766 272.609C228.766 272.172 228.708 271.891 228.594 271.766C228.391 271.552 228.021 271.445 227.484 271.445H224.414V275.375H226.398C226.638 275.375 226.779 275.318 226.82 275.203C226.888 275.036 226.922 274.701 226.922 274.195C226.922 274.076 227.078 274.016 227.391 274.016C227.661 274.016 227.836 274.052 227.914 274.125C227.992 274.198 228.031 274.258 228.031 274.305V277.648ZM233.93 282.156C233.372 282.156 232.883 282.052 232.461 281.844C232.039 281.635 231.682 281.344 231.391 280.969C230.807 280.214 230.516 279.224 230.516 278C230.516 276.719 230.911 275.719 231.703 275C232.422 274.349 233.328 274.023 234.422 274.023H234.445C235.466 274.023 236.286 274.411 236.906 275.188C237.5 275.927 237.797 276.885 237.797 278.062C237.797 279.375 237.432 280.396 236.703 281.125C236.016 281.812 235.091 282.156 233.93 282.156ZM232.797 275.773C232.599 275.982 232.435 276.268 232.305 276.633C232.18 276.992 232.117 277.435 232.117 277.961C232.117 278.492 232.167 278.943 232.266 279.312C232.37 279.677 232.51 279.979 232.688 280.219C233.047 280.708 233.544 280.953 234.18 280.953C234.836 280.953 235.344 280.667 235.703 280.094C236.031 279.573 236.195 278.891 236.195 278.047C236.19 276.635 235.776 275.75 234.953 275.391C234.703 275.281 234.451 275.227 234.195 275.227C233.935 275.227 233.685 275.266 233.445 275.344C233.211 275.422 232.995 275.565 232.797 275.773ZM243.555 275.125H242.828C242.286 275.125 241.82 275.331 241.43 275.742C240.93 276.268 240.68 277.026 240.68 278.016C240.68 279.464 241.083 280.38 241.891 280.766C242.146 280.891 242.406 280.953 242.672 280.953C242.938 280.953 243.177 280.924 243.391 280.867C243.604 280.81 243.812 280.734 244.016 280.641C244.224 280.552 244.422 280.451 244.609 280.336L245.164 280C245.185 279.984 245.221 279.977 245.273 279.977C245.32 279.977 245.38 280.008 245.453 280.07C245.526 280.128 245.594 280.198 245.656 280.281C245.792 280.479 245.859 280.643 245.859 280.773C245.859 280.904 245.831 280.992 245.773 281.039C244.779 281.784 243.695 282.156 242.523 282.156C241.435 282.156 240.583 281.779 239.969 281.023C239.375 280.294 239.078 279.292 239.078 278.016C239.078 276.766 239.456 275.776 240.211 275.047C240.919 274.37 241.823 274.029 242.922 274.023C244.099 274.029 244.914 274.286 245.367 274.797C245.539 274.995 245.625 275.206 245.625 275.43C245.625 275.654 245.599 275.831 245.547 275.961C245.484 276.091 245.406 276.203 245.312 276.297C245.104 276.5 244.852 276.602 244.555 276.602C244.258 276.602 244.005 276.5 243.797 276.297C243.589 276.099 243.484 275.901 243.484 275.703C243.484 275.505 243.508 275.312 243.555 275.125ZM249.234 275.125C249.297 275.26 249.328 275.414 249.328 275.586C249.328 275.758 249.302 275.909 249.25 276.039C249.188 276.169 249.109 276.281 249.016 276.375C248.818 276.573 248.565 276.674 248.258 276.68C247.773 276.68 247.443 276.466 247.266 276.039C247.214 275.909 247.188 275.747 247.188 275.555C247.188 275.367 247.242 275.19 247.352 275.023C247.461 274.857 247.604 274.714 247.781 274.594C247.964 274.474 248.167 274.378 248.391 274.305C248.62 274.232 248.852 274.174 249.086 274.133C249.497 274.06 249.948 274.023 250.438 274.023C250.922 274.023 251.341 274.102 251.695 274.258C252.055 274.414 252.339 274.625 252.547 274.891C252.906 275.354 253.086 276.01 253.086 276.859V280.898H254.398C254.539 280.898 254.609 281.052 254.609 281.359C254.609 281.495 254.583 281.63 254.531 281.766C254.479 281.896 254.398 281.974 254.289 282C253.997 282.083 253.581 282.125 253.039 282.125C252.492 282.125 252.188 282.115 252.125 282.094C252.062 282.078 252.005 282.047 251.953 282C251.854 281.911 251.755 281.732 251.656 281.461C251.021 281.924 250.255 282.156 249.359 282.156C248.557 282.156 247.927 281.943 247.469 281.516C247.036 281.12 246.82 280.602 246.82 279.961V279.938C246.82 279.141 247.115 278.518 247.703 278.07C248.219 277.674 248.862 277.477 249.633 277.477H251.562C251.562 276.607 251.49 276.047 251.344 275.797C251.203 275.542 251.031 275.367 250.828 275.273C250.63 275.174 250.365 275.125 250.031 275.125H249.234ZM249.641 280.953C250.297 280.953 250.938 280.693 251.562 280.172V278.648H249.859C249.443 278.648 249.135 278.719 248.938 278.859C248.578 279.109 248.398 279.398 248.398 279.727C248.398 280.341 248.654 280.727 249.164 280.883C249.315 280.93 249.474 280.953 249.641 280.953ZM259.57 275.125H258.844C258.302 275.125 257.836 275.331 257.445 275.742C256.945 276.268 256.695 277.026 256.695 278.016C256.695 279.464 257.099 280.38 257.906 280.766C258.161 280.891 258.422 280.953 258.688 280.953C258.953 280.953 259.193 280.924 259.406 280.867C259.62 280.81 259.828 280.734 260.031 280.641C260.24 280.552 260.438 280.451 260.625 280.336L261.18 280C261.201 279.984 261.237 279.977 261.289 279.977C261.336 279.977 261.396 280.008 261.469 280.07C261.542 280.128 261.609 280.198 261.672 280.281C261.807 280.479 261.875 280.643 261.875 280.773C261.875 280.904 261.846 280.992 261.789 281.039C260.794 281.784 259.711 282.156 258.539 282.156C257.451 282.156 256.599 281.779 255.984 281.023C255.391 280.294 255.094 279.292 255.094 278.016C255.094 276.766 255.471 275.776 256.227 275.047C256.935 274.37 257.839 274.029 258.938 274.023C260.115 274.029 260.93 274.286 261.383 274.797C261.555 274.995 261.641 275.206 261.641 275.43C261.641 275.654 261.615 275.831 261.562 275.961C261.5 276.091 261.422 276.203 261.328 276.297C261.12 276.5 260.867 276.602 260.57 276.602C260.273 276.602 260.021 276.5 259.812 276.297C259.604 276.099 259.5 275.901 259.5 275.703C259.5 275.505 259.523 275.312 259.57 275.125ZM267.352 275.125H266.625C266.083 275.125 265.617 275.331 265.227 275.742C264.727 276.268 264.477 277.026 264.477 278.016C264.477 279.464 264.88 280.38 265.688 280.766C265.943 280.891 266.203 280.953 266.469 280.953C266.734 280.953 266.974 280.924 267.188 280.867C267.401 280.81 267.609 280.734 267.812 280.641C268.021 280.552 268.219 280.451 268.406 280.336L268.961 280C268.982 279.984 269.018 279.977 269.07 279.977C269.117 279.977 269.177 280.008 269.25 280.07C269.323 280.128 269.391 280.198 269.453 280.281C269.589 280.479 269.656 280.643 269.656 280.773C269.656 280.904 269.628 280.992 269.57 281.039C268.576 281.784 267.492 282.156 266.32 282.156C265.232 282.156 264.38 281.779 263.766 281.023C263.172 280.294 262.875 279.292 262.875 278.016C262.875 276.766 263.253 275.776 264.008 275.047C264.716 274.37 265.62 274.029 266.719 274.023C267.896 274.029 268.711 274.286 269.164 274.797C269.336 274.995 269.422 275.206 269.422 275.43C269.422 275.654 269.396 275.831 269.344 275.961C269.281 276.091 269.203 276.203 269.109 276.297C268.901 276.5 268.648 276.602 268.352 276.602C268.055 276.602 267.802 276.5 267.594 276.297C267.385 276.099 267.281 275.901 267.281 275.703C267.281 275.505 267.305 275.312 267.352 275.125ZM272.633 272.062C272.148 272.062 271.818 271.849 271.641 271.422C271.589 271.292 271.562 271.148 271.562 270.992C271.562 270.497 271.779 270.161 272.211 269.984C272.341 269.932 272.482 269.906 272.633 269.906C272.935 269.906 273.188 270.01 273.391 270.219C273.599 270.422 273.703 270.68 273.703 270.992C273.703 271.299 273.599 271.557 273.391 271.766C273.193 271.964 272.94 272.062 272.633 272.062ZM270.773 282C270.638 282 270.57 281.841 270.57 281.523C270.57 281.273 270.609 281.107 270.688 281.023C270.766 280.94 270.833 280.898 270.891 280.898H270.969C271.578 280.898 271.922 280.839 272 280.719C272.026 280.682 272.039 280.638 272.039 280.586V275.383H270.664C270.513 275.378 270.411 275.245 270.359 274.984C270.349 274.911 270.344 274.836 270.344 274.758C270.344 274.518 270.414 274.372 270.555 274.32C270.695 274.263 270.88 274.216 271.109 274.18C271.339 274.143 271.578 274.115 271.828 274.094C272.307 274.052 272.768 274.029 273.211 274.023H273.219C273.438 274.023 273.552 274.245 273.562 274.688V280.898H274.875C275.01 280.898 275.078 281.057 275.078 281.375C275.078 281.625 275.039 281.792 274.961 281.875C274.883 281.958 274.815 282 274.758 282H270.773ZM278.203 275.125C278.266 275.26 278.297 275.414 278.297 275.586C278.297 275.758 278.271 275.909 278.219 276.039C278.156 276.169 278.078 276.281 277.984 276.375C277.786 276.573 277.534 276.674 277.227 276.68C276.742 276.68 276.411 276.466 276.234 276.039C276.182 275.909 276.156 275.747 276.156 275.555C276.156 275.367 276.211 275.19 276.32 275.023C276.43 274.857 276.573 274.714 276.75 274.594C276.932 274.474 277.135 274.378 277.359 274.305C277.589 274.232 277.82 274.174 278.055 274.133C278.466 274.06 278.917 274.023 279.406 274.023C279.891 274.023 280.31 274.102 280.664 274.258C281.023 274.414 281.307 274.625 281.516 274.891C281.875 275.354 282.055 276.01 282.055 276.859V280.898H283.367C283.508 280.898 283.578 281.052 283.578 281.359C283.578 281.495 283.552 281.63 283.5 281.766C283.448 281.896 283.367 281.974 283.258 282C282.966 282.083 282.549 282.125 282.008 282.125C281.461 282.125 281.156 282.115 281.094 282.094C281.031 282.078 280.974 282.047 280.922 282C280.823 281.911 280.724 281.732 280.625 281.461C279.99 281.924 279.224 282.156 278.328 282.156C277.526 282.156 276.896 281.943 276.438 281.516C276.005 281.12 275.789 280.602 275.789 279.961V279.938C275.789 279.141 276.083 278.518 276.672 278.07C277.188 277.674 277.831 277.477 278.602 277.477H280.531C280.531 276.607 280.458 276.047 280.312 275.797C280.172 275.542 280 275.367 279.797 275.273C279.599 275.174 279.333 275.125 279 275.125H278.203ZM278.609 280.953C279.266 280.953 279.906 280.693 280.531 280.172V278.648H278.828C278.411 278.648 278.104 278.719 277.906 278.859C277.547 279.109 277.367 279.398 277.367 279.727C277.367 280.341 277.622 280.727 278.133 280.883C278.284 280.93 278.443 280.953 278.609 280.953Z" fill="black"/>
</svg>
